SplineFontDB: 3.0
FontName: Tienne-Regular
FullName: Tienne
FamilyName: Tienne
Weight: Book
Copyright: Copyright (c) 2011 by vernon adams. All rights reserved. with\nReserved Font Names "Tienne" and "Tienne Regular". This\nFont Software is licensed under the SIL Open Font License, Version\n1.1. This license is available with a FAQ at:\nhttp://scripts.sil.org/OFL
Version: 1.000
ItalicAngle: 0
UnderlinePosition: -103
UnderlineWidth: 102
Ascent: 1638
Descent: 410
sfntRevision: 0x00010000
LayerCount: 2
Layer: 0 0 "Back"  1
Layer: 1 0 "Fore"  0
XUID: [1021 14 500265001 4310955]
FSType: 0
OS2Version: 3
OS2_WeightWidthSlopeOnly: 0
OS2_UseTypoMetrics: 1
CreationTime: 1311320069
ModificationTime: 1337849254
PfmFamily: 17
TTFWeight: 400
TTFWidth: 5
LineGap: 0
VLineGap: 0
Panose: 2 4 6 3 4 5 6 3 2 4
OS2TypoAscent: 392
OS2TypoAOffset: 1
OS2TypoDescent: -314
OS2TypoDOffset: 1
OS2TypoLinegap: 0
OS2WinAscent: 0
OS2WinAOffset: 1
OS2WinDescent: 0
OS2WinDOffset: 1
HheadAscent: 0
HheadAOffset: 1
HheadDescent: 0
HheadDOffset: 1
OS2SubXSize: 1331
OS2SubYSize: 1229
OS2SubXOff: 0
OS2SubYOff: 154
OS2SupXSize: 1331
OS2SupYSize: 1229
OS2SupXOff: 0
OS2SupYOff: 717
OS2StrikeYSize: 102
OS2StrikeYPos: 512
OS2Vendor: 'newt'
OS2CodePages: 20000003.00000000
OS2UnicodeRanges: 800000ef.4000204b.00000000.00000000
MarkAttachClasses: 1
DEI: 91125
LangName: 1033 "" "" "" "vernonadams: Tienne: 2011" "" "Version 1.000" "" "Tienne is a trademark of vernon adams." "vernon adams" "vernon adams" "Copyright (c) 2011 by vernon adams. All rights reserved." "" "newtypography.co.uk" "" "http://scripts.sil.org/OFL" "" "" "" "Tienne Regular" 
GaspTable: 1 65535 3
Encoding: UnicodeBmp
Compacted: 1
UnicodeInterp: none
NameList: Adobe Glyph List
DisplaySize: -48
AntiAlias: 1
FitToEm: 1
WinInfo: 0 27 10
BeginPrivate: 0
EndPrivate
BeginChars: 65541 354

StartChar: exclam
Encoding: 33 33 7
Width: 704
GlyphClass: 2
Flags: HW
LayerCount: 2
Fore
SplineSet
210.258614262 110.997266972 m 0
 210.258614262 188.140386978 266.22093516 256 335 256 c 128
 423.752532474 256 492 205.368068291 492 130 c 128
 491 36 444 -22 350 -22 c 128
 267.315316397 -22 210.258614262 35.8272402371 210.258614262 110.997266972 c 0
219 1406 m 2
 219 1446.50147528 299.743910272 1457 340 1457 c 128
 429 1457 466 1437 466 1358 c 0
 466 1107.67364191 425 770.987286571 425 500 c 128
 425 462 426 430 429 403 c 1
 408 395 386 391 364 391 c 128
 296 391 278 402 275 470 c 2
 240 1135 l 2
 235.864422523 1227.36123033 219 1314.94074398 219 1383 c 2
 219 1406 l 2
EndSplineSet
EndChar

StartChar: quotedbl
Encoding: 34 34 8
Width: 792
GlyphClass: 2
Flags: HW
LayerCount: 2
Fore
SplineSet
580 1494 m 128
 651 1494 675 1474 675 1410 c 128
 675 1382 674 1358 672 1337 c 2
 642 983 l 1
 623 967 604 959 585 959 c 128
 520 959 516 999 509 1067 c 1
 493 1260 l 2
 486 1340 482 1403 481 1450 c 1
 508 1479 541 1494 580 1494 c 128
214 1494 m 128
 280 1494 311 1475 311 1419 c 0
 311 1386 310 1358 307 1337 c 1
 277 983 l 1
 260 967 242 959 222 959 c 128
 153 959 151 1000 144 1072 c 2
 128 1260 l 2
 121 1343 117 1406 117 1450 c 1
 142 1479 174 1494 214 1494 c 128
EndSplineSet
EndChar

StartChar: numbersign
Encoding: 35 35 9
Width: 1240
GlyphClass: 2
Flags: HW
LayerCount: 2
Fore
SplineSet
461 582 m 1
 726 582 l 1
 781 848 l 1
 517 848 l 1
 461 582 l 1
156 920 m 2
 156 979 175 985 232 985 c 2
 397 985 l 1
 474 1351 l 1
 529 1351 l 2
 571 1351 602 1350 615 1322 c 1
 608 1298 607 1270 601 1245 c 2
 546 985 l 1
 808 985 l 1
 886 1351 l 1
 939 1351 l 2
 980 1351 1007 1348 1020 1341 c 1
 1021 1319 l 1
 1017 1278 1010 1234 999 1188 c 1
 955 985 l 1
 1158 985 l 1
 1158 933 l 2
 1158 863 1149 848 1083 848 c 2
 929 848 l 1
 872 582 l 1
 1085 582 l 1
 1085 510 l 2
 1085 468 1072 452 1038 445 c 1
 845 445 l 1
 768 73 l 1
 714 73 l 2
 668 73 640 84 630 107 c 1
 635 149 648 194 657 240 c 2
 698 445 l 1
 433 445 l 1
 356 73 l 1
 292 73 l 2
 244 73 220 82 220 99 c 0
 220 123 228 170 243 240 c 2
 287 445 l 1
 82 445 l 1
 82 498 l 2
 82 567 93 582 157 582 c 2
 313 582 l 1
 368 848 l 1
 156 848 l 1
 156 920 l 2
EndSplineSet
EndChar

StartChar: dollar
Encoding: 36 36 10
Width: 1302
GlyphClass: 2
Flags: HW
LayerCount: 2
Fore
SplineSet
724 89 m 1
 844 106 943 190 943 323 c 0
 943 472.02582559 839.410452567 526.085256268 724 583 c 1
 724 89 l 1
584 1343 m 1
 450 1325 364 1247 364 1102 c 128
 364 955.392659834 463.537766248 901.184893501 584 853 c 1
 584 1343 l 1
724 796 m 1
 948.511509873 702.197245875 1158 608.543115275 1158 357 c 0
 1158 119 956 -16 724 -34 c 1
 724 -238 l 1
 656 -238 l 2
 590 -238 584 -222 584 -159 c 2
 584 -35 l 1
 457.373387051 -28.6231202112 178.476242546 17.8748633173 135 132 c 1
 135 169 138 207 144 244 c 1
 203 375 l 1
 303 335 l 1
 356 199 429 108 584 91 c 1
 584 642 l 1
 361.119249545 740.552712786 164 821.428388895 164 1068 c 0
 164 1299.86509737 339.820312655 1424.19050483 584 1458 c 1
 584 1596 l 1
 651 1596 l 2
 691 1596 715 1581 724 1550 c 1
 724 1468 l 1
 885.560641877 1468 1033.41294723 1448.78273703 1094 1368 c 1
 1093 1336 1092 1304 1088 1274 c 1
 1042 1123 l 1
 949 1148 l 1
 904 1254 833 1321 724 1340 c 1
 724 796 l 1
EndSplineSet
EndChar

StartChar: percent
Encoding: 37 37 11
Width: 1643
GlyphClass: 2
Flags: HW
LayerCount: 2
Fore
SplineSet
1551 350 m 128
 1551 132.833775052 1449.07218704 -26 1236 -26 c 128
 1020.36824441 -26 920.992924633 137.277977833 920.992924633 352.094905816 c 0
 920.992924633 568.799465589 1025.33683214 725.004720033 1235.00123848 725.004720033 c 0
 1235.66643218 725.004720033 1236.33268601 725.003147708 1237 725 c 0
 1437 725 1551 580 1551 350 c 128
1395 350 m 128
 1395 508.956012461 1371.21383912 643 1238 643 c 128
 1104.0496838 643 1080 509.514018725 1080 350 c 128
 1080 190.54818146 1104.41614296 56 1238 56 c 128
 1370.72687913 56 1395 191.432771819 1395 350 c 128
405 1457 m 128
 629.319640543 1457 718 1295.73436388 718 1060 c 0
 718 863.778848007 613.025163432 707 408 707 c 128
 194.49263136 707 92 864.628498094 92 1083 c 128
 92 1302 191 1457 405 1457 c 128
246 1082 m 128
 246 923.553327768 271.260856924 789 404 789 c 128
 537 789 562 923 562 1082 c 128
 562 1241.67294536 538.016559807 1375 404 1375 c 128
 270 1375 246 1241 246 1082 c 128
314 13 m 1
 351 80 644 562 1193 1460 c 1
 1265.63822131 1438.47756406 1276.7259822 1417.195727 1312 1392 c 1
 440 -34 l 1
 314 13 l 1
EndSplineSet
EndChar

StartChar: ampersand
Encoding: 38 38 12
Width: 1399
GlyphClass: 2
Flags: HW
LayerCount: 2
Fore
SplineSet
862 1039 m 1
 808.303473241 1208.7503104 774.613138311 1306 591 1306 c 128
 427 1306 324 1207 324 1048 c 0
 324 883 455 788 625 788 c 2
 1367 788 l 1
 1367 510 l 1
 1304 510 l 1
 1278.57685699 606.925732737 1265.95638154 657 1174 657 c 2
 1104 657 l 1
 1123 522 1133 421 1133 354 c 128
 1133 65.0621872289 902.3241136 -37 607 -37 c 0
 252 -37 74 100 74 374 c 0
 74 554.026518366 203.365644116 691.302303496 385 729 c 1
 385 734 l 1
 222.300852832 774.674786792 116 873.409020268 116 1064 c 128
 116 1317.10540566 325.392495592 1421 585 1421 c 0
 740 1421 903 1386 1009 1318 c 1
 985 1039 l 1
 862 1039 l 1
616 94 m 128
 831 94 950 210 951 421 c 0
 951 483 948 537 943 582 c 2
 935 657 l 1
 605 657 l 2
 425 657 306 548 305 369 c 1
 305 189 420 94 616 94 c 128
EndSplineSet
EndChar

StartChar: quotesingle
Encoding: 39 39 13
Width: 429
GlyphClass: 2
Flags: HW
LayerCount: 2
Fore
SplineSet
117 1412 m 128
 117 1479.69505532 165.536971851 1494 228 1494 c 0
 284 1494 312 1466 312 1409 c 0
 312 1382 311 1358 308 1337 c 1
 277 983 l 1
 258 967 239 959 220 959 c 128
 154 959 152 999 145 1067 c 1
 128 1260 l 2
 121 1337 117 1388 117 1412 c 128
EndSplineSet
EndChar

StartChar: parenleft
Encoding: 40 40 14
Width: 588
GlyphClass: 2
Flags: HW
LayerCount: 2
Fore
SplineSet
305 672 m 128
 305 336 377 49 522 -188 c 1
 479 -208 l 1
 470 -211 462 -213 454 -213 c 0
 430 -213 408 -202 388 -180 c 1
 223.903504043 32.4349986415 117.675366592 314.336075602 117.675366592 674.640519322 c 0
 117.675366592 1025.17480337 235.752754153 1321.82220578 388 1524 c 0
 405 1546 429 1557 460 1557 c 0
 464 1557 470 1555 479 1552 c 1
 522 1532 l 1
 377 1295 305 1008 305 672 c 128
EndSplineSet
EndChar

StartChar: parenright
Encoding: 41 41 15
Width: 588
GlyphClass: 2
Flags: HW
LayerCount: 2
Fore
SplineSet
283 672 m 128
 283 1008 211 1295 66 1532 c 1
 109 1552 l 1
 118 1555 126 1557 134 1557 c 0
 161 1557 183 1546 200 1524 c 0
 363.31265299 1311.31375425 471 1029.47329929 471 671 c 128
 471 315.566439656 355.48366849 20.4428015474 200 -180 c 1
 180 -202 156 -213 128 -213 c 0
 124 -213 118 -211 109 -208 c 1
 66 -188 l 1
 211 49 283 336 283 672 c 128
EndSplineSet
EndChar

StartChar: asterisk
Encoding: 42 42 16
Width: 926
GlyphClass: 2
Flags: HW
LayerCount: 2
Fore
SplineSet
280 743 m 1
 394 994 l 1
 126 859 l 1
 84 1014 l 1
 370 1080 l 1
 122 1249 l 1
 253 1363 l 1
 430 1139 l 1
 460 1440 l 1
 638 1389 l 1
 521 1126 l 1
 791 1252 l 1
 830 1099 l 1
 549 1041 l 1
 791 843 l 1
 659 737 l 1
 484 982 l 1
 457 670 l 1
 280 743 l 1
EndSplineSet
EndChar

StartChar: plus
Encoding: 43 43 17
Width: 1289
GlyphClass: 2
Flags: HW
LayerCount: 2
Fore
SplineSet
133 601 m 1
 134 672 151 677 222 677 c 2
 571 677 l 1
 571 1115 l 1
 639 1115 l 2
 681 1115 707 1099 716 1068 c 1
 716 677 l 1
 1156 677 l 1
 1156 610 l 2
 1156 539 1137 533 1071 533 c 2
 716 533 l 1
 716 93 l 1
 648 93 l 2
 646.168862825 92.9742093356 644.380960943 92.9610566802 642.635282219 92.9610566802 c 0
 576.694502977 92.9610566802 571 111.727974518 571 177 c 2
 571 533 l 1
 133 533 l 1
 133 601 l 1
EndSplineSet
EndChar

StartChar: comma
Encoding: 44 44 18
Width: 462
GlyphClass: 2
Flags: HW
LayerCount: 2
Fore
SplineSet
79.9677394135 125.32973885 m 0
 79.9677394135 203.437376699 131.827363052 249 220 249 c 128
 305 249 347 211 347 128 c 128
 347 -72.2231838588 233.331215817 -215.933209805 118 -316 c 1
 97 -316 83 -310 74 -298 c 1
 61 -267 l 1
 116 -189 148 -99 157 3 c 2
 160 41 l 1
 103.606928346 42.1748556595 79.9677394135 81.6410588784 79.9677394135 125.32973885 c 0
EndSplineSet
EndChar

StartChar: hyphen
Encoding: 45 45 19
Width: 683
GlyphClass: 2
Flags: HW
LayerCount: 2
Fore
SplineSet
51 589 m 1
 52 645 77 651 133 651 c 2
 632 651 l 1
 632 599 l 2
 632 557 616 530 584 519 c 1
 51 519 l 1
 51 589 l 1
EndSplineSet
EndChar

StartChar: period
Encoding: 46 46 20
Width: 600
GlyphClass: 2
Flags: HW
LayerCount: 2
Fore
SplineSet
300 245 m 0
 371 245 436 188 436 120 c 128
 436 18.432422106 364.885357116 -31.5469557817 295.381132295 -31.5469557817 c 0
 228.955099712 -31.5469557817 164 14.1034945698 164 104 c 128
 164 188 220 245 300 245 c 0
EndSplineSet
EndChar

StartChar: slash
Encoding: 47 47 21
Width: 853
GlyphClass: 2
Flags: HW
LayerCount: 2
Fore
SplineSet
853 1491 m 1
 848 1474 614 925 153 -157 c 1
 81 -157 l 2
 39 -157 11 -147 -3 -126 c 1
 701 1518 l 1
 771 1518 l 2
 814 1518 842 1509 853 1491 c 1
EndSplineSet
EndChar

StartChar: zero
Encoding: 48 48 22
Width: 1277
GlyphClass: 2
Flags: HW
LayerCount: 2
Fore
SplineSet
638 -37 m 0
 239.035266534 -37 92 299.71995722 92 710 c 0
 92 1129 247 1458 638 1458 c 0
 1029 1458 1185 1130 1185 710 c 1
 1186 297 1024 -37 638 -37 c 0
638 87 m 0
 900.845825635 87 968.967202618 419.612648092 968.967202618 743.199696713 c 0
 968.967202618 1041.47185863 891.151420155 1337.01348242 640.933190459 1337.01348242 c 0
 639.958080432 1337.01348242 638.980352145 1337.00899406 638 1337 c 0
 384.666509937 1337 313 1037.67808474 313 712 c 128
 313 408.936912779 358.716897533 86.9907591853 635.427041826 86.9907591853 c 0
 636.28248507 86.9907591853 637.140135969 86.9938361001 638 87 c 0
EndSplineSet
EndChar

StartChar: one
Encoding: 49 49 23
Width: 986
GlyphClass: 2
Flags: HW
LayerCount: 2
Fore
SplineSet
135 1347 m 1
 352.50188004 1424.17808647 391.812758506 1458 550 1458 c 128
 578 1458 598 1448 610 1428 c 1
 610 252 l 2
 610 200 615 159 624 128 c 1
 647 122 681 119 727 119 c 2
 818 119 l 1
 818 -19 l 1
 722 -6.5 622 -0.25 518.125 -0.25 c 0
 414.25 -0.25 306.5 -6.5 195 -19 c 1
 195 119 l 1
 284 119 l 2
 334 119 368 122 387 128 c 1
 398 163 403 204 403 249 c 2
 403 1246 l 1
 378 1265 346 1275 307 1275 c 0
 286 1275 267 1273 249 1270 c 2
 154 1253 l 1
 135 1347 l 1
EndSplineSet
EndChar

StartChar: two
Encoding: 50 50 24
Width: 1251
GlyphClass: 2
Flags: HW
LayerCount: 2
Fore
SplineSet
726 144 m 2
 901.572941116 144 985.507641398 214.944675094 1038 340 c 1
 1101 329 l 1
 1101 202 1097 102 1088 27 c 1
 1000.20083435 0.660250303744 812.407245901 0 699 0 c 2
 197 0 l 2
 142 0 119 12 104 50 c 1
 104 67 109 95 118 134 c 1
 477 489 691 718 758 822 c 0
 821 920 843 968 843 1079 c 0
 843 1250 766 1336 611 1336 c 0
 441 1336 302 1218 279 1071 c 1
 134 1192 l 1
 159 1369 380 1458 595 1458 c 0
 861 1458 1052 1326 1053 1069 c 0
 1053 951 1002 828 900 700 c 0
 760 524 500 295 329 144 c 1
 726 144 l 2
EndSplineSet
EndChar

StartChar: three
Encoding: 51 51 25
Width: 1200
GlyphClass: 2
Flags: HW
LayerCount: 2
Fore
SplineSet
1030 1121 m 128
 1030 895.479384907 862.1653758 789.929138694 676 748 c 1
 946 713 1081 589 1081 378 c 0
 1081 108 868 -37 590 -37 c 0
 404 -37 167 37 121 166 c 1
 127 212 l 130
 135 273 143 330 155 392 c 1
 265 373 l 1
 264 186 385 87 577 87 c 0
 577.712799231 86.9959955099 578.424732522 86.9939955125 579.135795376 86.9939955125 c 0
 755.991125079 86.9939955125 879 210.716803721 879 389 c 0
 879 578 736 672 450 672 c 2
 409 672 l 1
 409 791 l 1
 475 791 l 1
 657.461112447 793.225135518 836 920.842311026 836 1097 c 0
 836 1243 727 1336 581 1336 c 0
 417 1336 284 1221 261 1080 c 1
 126 1191 l 1
 151 1364 358 1457 567 1457 c 0
 568.5109174 1457.00719484 570.020249524 1457.01079598 571.527961729 1457.01079598 c 0
 823.361066616 1457.01079598 1030 1356.54269161 1030 1121 c 128
EndSplineSet
EndChar

StartChar: four
Encoding: 52 52 26
Width: 1210
GlyphClass: 2
Flags: HW
LayerCount: 2
Fore
SplineSet
702 512 m 1
 702 1194 l 1
 244 544 l 1
 226 512 l 1
 702 512 l 1
583 117 m 2
 700.647642312 117 702.000750074 133.153298392 702.000750074 239.348425821 c 0
 702.000750074 241.848715842 702 244.398919118 702 247 c 2
 702 385 l 1
 75 385 l 1
 48 406 35 435 35 472 c 1
 44 499 209 737 530 1186 c 0
 627 1322 690 1406 719 1437 c 1
 807 1437 l 2
 882 1437 900 1427 900 1360 c 2
 900 512 l 1
 1181 512 l 1
 1181 458 l 2
 1181 391 1166 385 1101 385 c 2
 900 385 l 1
 900 250 l 2
 900 194 905 153 914 126 c 1
 937 120 971 117 1017 117 c 2
 1107 117 l 1
 1107 -19 l 1
 1015 -6.5 918 -0.25 815.875 -0.25 c 0
 713.75 -0.25 606.5 -6.5 494 -19 c 1
 494 117 l 1
 583 117 l 2
EndSplineSet
EndChar

StartChar: five
Encoding: 53 53 27
Width: 1234
GlyphClass: 2
Flags: HW
LayerCount: 2
Fore
SplineSet
608 87 m 128
 800.162458385 87 898 246.17485612 898 439 c 128
 898 644 760 761 552 761 c 128
 445 761 356 731 286 672 c 1
 217 691 l 1
 217 1394 l 1
 236 1423 272 1437 324 1437 c 2
 646 1437 l 2
 815 1437 942 1445 1028 1461 c 1
 1035 1317 l 1
 1007 1282 933 1265 814 1265 c 128
 695 1265 552 1281 386 1312 c 1
 379 836 l 1
 461 875 541 894 619 894 c 128
 909 894 1104 721 1104 449 c 0
 1104 148 911 -37 608 -37 c 0
 407 -37 262 4 173 85 c 1
 173 401 l 1
 295 389 l 1
 341 147 l 1
 438 96 487 87 608 87 c 128
EndSplineSet
EndChar

StartChar: six
Encoding: 54 54 28
Width: 1225
GlyphClass: 2
Flags: HW
LayerCount: 2
Fore
SplineSet
699 1337 m 128
 404.086973699 1337 332 1029.78235353 332 737 c 2
 332 726 l 2
 332 722 332 718 333 714 c 1
 448 829 576 887 715 887 c 0
 967 887 1130 699 1130 445 c 0
 1130 153 920 -37 626 -37 c 0
 292 -37 125 195 125 660 c 0
 125 1159.75285468 274.636508139 1458 707 1458 c 0
 840.078432157 1458 978.090260458 1441.12779163 1052 1382 c 1
 1038 1068 l 1
 918 1068 l 1
 886 1281 l 1
 817 1318 754 1337 699 1337 c 128
693 761 m 128
 535.402661842 761 441.062425748 671.728225391 345 577 c 1
 345 250 442 87 637 87 c 0
 826.010389821 87 921.007812641 240.389577738 921.007812641 437.894137256 c 0
 921.007812641 616.066684635 854.699268319 761 693 761 c 128
EndSplineSet
EndChar

StartChar: seven
Encoding: 55 55 29
Width: 1201
GlyphClass: 2
Flags: HW
LayerCount: 2
Fore
SplineSet
1077 1437 m 1
 1094 1391 1103 1340 1103 1285 c 1
 626 188 l 2
 573.251967831 68.5412212649 551.127531141 -11 426 -11 c 128
 376 -11 344 1 330 24 c 1
 337 46 346 68 357 89 c 2
 937 1304 l 1
 500 1304 l 2
 405 1304 337 1296 297 1281 c 1
 271 1067 l 1
 156 1067 l 1
 111 1381 l 1
 180 1418 348 1437 613 1437 c 2
 1077 1437 l 1
EndSplineSet
EndChar

StartChar: eight
Encoding: 56 56 30
Width: 1174
GlyphClass: 2
Flags: HW
LayerCount: 2
Fore
SplineSet
614 800 m 1
 737.664392928 869.897265568 837 935.773748538 837 1099 c 128
 837 1255 727 1336 575 1337 c 1
 418 1336 314 1259 314 1100 c 128
 314 920.69704709 464.212010515 846.211188245 614 800 c 1
575 87 m 0
 575.90175274 86.9945015077 576.802447311 86.9917542564 577.702068086 86.9917542564 c 0
 740.414710907 86.9917542564 868 176.863263294 868 333 c 0
 868 466 776 569 592 642 c 2
 506 676 l 1
 361 603 289 496 289 356 c 0
 289 186.842224508 401.873226404 86.9925704921 572.447878494 86.9925704921 c 0
 573.29715753 86.9925704921 574.147866968 86.9950457382 575 87 c 0
1030 1108 m 0
 1030 954.560536472 897.296462734 832.648835404 775 740 c 1
 978 649 1080 524 1080 367 c 0
 1080 91 864 -36 575 -37 c 0
 322 -37 94 83 94 323 c 0
 94 512 189 649 379 735 c 1
 200.424024278 823.645628236 116 917.385353027 116 1124 c 128
 116 1352.82548348 346.914223567 1458 575 1458 c 0
 816 1458 1030 1336 1030 1108 c 0
EndSplineSet
EndChar

StartChar: nine
Encoding: 57 57 31
Width: 1223
GlyphClass: 2
Flags: HW
LayerCount: 2
Fore
SplineSet
528 87 m 128
 800.078902755 87 891 370.869305161 891 649 c 0
 891 668 890 687 887 707 c 1
 767 596 641 541 510 541 c 0
 509.354358461 540.997407062 508.709335468 540.996111726 508.064932154 540.996111726 c 0
 260.186873059 540.996111726 104 732.661199167 104 987 c 0
 104 1273 310 1458 598 1458 c 0
 931 1458 1098 1236 1098 792 c 0
 1098 285.919109113 964.131192679 -37.0430850137 545.410667026 -37.0430850137 c 0
 542.619781031 -37.0430850137 539.816240258 -37.0287371455 537 -37 c 0
 534.208841168 -37.0234551162 531.415867722 -37.0352377099 528.621660058 -37.0352377099 c 0
 385.807884906 -37.0352377099 239.769960759 -6.25558330675 168 70 c 1
 168 374 l 1
 295 363 l 1
 337 133 l 1
 406 102 470 87 528 87 c 128
607.623857125 1345.37379794 m 0
 411.878723943 1345.37379794 313 1191.03056303 313 990 c 0
 312.98761836 988.080845768 312.981401578 986.168067002 312.981401578 984.261728185 c 0
 312.981401578 795.590837658 373.875507236 670 546 670 c 128
 710.775079068 670 872.326536535 807.081755057 879 945 c 1
 879 1142.94185556 788.112199852 1345.37379794 607.623857125 1345.37379794 c 0
EndSplineSet
EndChar

StartChar: colon
Encoding: 58 58 32
Width: 608
GlyphClass: 2
Flags: HW
LayerCount: 2
Fore
SplineSet
292 1055 m 128
 378.739533994 1055 444 1009.78954971 444 934 c 128
 444 835 398 779 302 779 c 128
 216 779 166 836 166 920 c 128
 166 994 222 1055 292 1055 c 128
290 244 m 128
 377.427299407 244 442 184.539308404 442 110 c 128
 442 24 396 -34 319 -34 c 128
 220 -34 166 12 166 108 c 128
 166 185 219 244 290 244 c 128
EndSplineSet
EndChar

StartChar: semicolon
Encoding: 59 59 33
Width: 474
GlyphClass: 2
Flags: HW
LayerCount: 2
Fore
SplineSet
198 248 m 128
 296 248 345 221 345 126 c 128
 345 -61.8592124482 231.535840599 -231.522296472 128 -314 c 1
 124 -315 116 -316 104 -316 c 0
 75 -316 54 -303 41 -278 c 1
 115 -167 155 -60 160 41 c 1
 103.498870897 41 79.4223082881 76.9542409995 79.4223082881 118.893877646 c 0
 79.4223082881 177.585932721 126.574706788 248 198 248 c 128
236 779 m 128
 136 779 81 823 81 919 c 0
 81 1007 133 1055 228 1055 c 128
 299 1055 359 998 359 934 c 128
 359 846 315 779 236 779 c 128
EndSplineSet
EndChar

StartChar: less
Encoding: 60 60 34
Width: 1387
GlyphClass: 2
Flags: HW
LayerCount: 2
Fore
SplineSet
133 552 m 1
 132 588 l 1
 132 595 l 2
 132 618 142 635 163 644 c 0
 284 699 392 748 485 791 c 2
 730 903 l 2
 898.467118068 980.115230101 1034.08924075 1060.1578196 1201 1114 c 1
 1214 1104 1231 1061 1254 985 c 1
 347 569 l 1
 1252 157 l 1
 1230 71 1228 47 1201 25 c 1
 1136 52 780 214 133 510 c 1
 133 552 l 1
EndSplineSet
EndChar

StartChar: equal
Encoding: 61 61 35
Width: 1288
GlyphClass: 2
Flags: HW
LayerCount: 2
Fore
SplineSet
133 399 m 2
 133 468 148 475 213 475 c 2
 1155 475 l 1
 1155 410 l 2
 1155 368 1139 342 1108 332 c 1
 133 332 l 1
 133 399 l 2
133 802 m 2
 133 871 167 878 231 878 c 2
 1155 878 l 1
 1155 811 l 2
 1155 769 1139 743 1108 733 c 1
 133 733 l 1
 133 802 l 2
EndSplineSet
EndChar

StartChar: greater
Encoding: 62 62 36
Width: 1386
GlyphClass: 2
Flags: HW
LayerCount: 2
Fore
SplineSet
1253 509 m 1
 554 189 199 27 186 24 c 1
 165 35 148 78 135 155 c 1
 1039 571 l 1
 133 984 l 1
 195 1115 l 1
 1228 643 l 2
 1245 635 1253 612 1253 573 c 2
 1253 509 l 1
EndSplineSet
EndChar

StartChar: question
Encoding: 63 63 37
Width: 984
GlyphClass: 2
Flags: HW
LayerCount: 2
Fore
SplineSet
88 1161 m 1
 92.176251674 1357.28382868 250.576542291 1458 476 1458 c 128
 713 1458 880 1333 880 1108 c 0
 880 989 818 876 694 768 c 0
 594.529434967 680.513840393 509 639.334242896 509 552 c 0
 509 503 519 445 540 377 c 1
 462 377 l 1
 391.906644238 417.05334615 329 475.718501559 329 576 c 128
 329 644 376 701 414 742 c 128
 501 836 658 952 658 1112 c 0
 658 1236 598 1324 474 1324 c 128
 331 1324 257 1279 225 1161 c 1
 88 1161 l 1
432 240 m 128
 527.838431572 240 587 182.5856745 587 90 c 128
 587 16 530 -38 462 -38 c 128
 361.595469423 -38 312.051650694 38.8502160547 312.051650694 111.738763207 c 0
 312.051650694 177.480829599 352.356526913 240 432 240 c 128
EndSplineSet
EndChar

StartChar: at
Encoding: 64 64 38
Width: 1859
GlyphClass: 2
Flags: HW
LayerCount: 2
Fore
SplineSet
1064 1005 m 0
 885.912381825 1005 754 724.237597905 754 533 c 0
 754 404.512374366 827.974937601 335.453962777 908.599107333 335.453962777 c 0
 1127.90709026 335.453962777 1155.50954277 687.573161256 1184 906 c 1
 1173 972 1133 1005 1064 1005 c 0
1751 767 m 1
 1752.84878447 510.018959069 1583.2582094 223 1340 223 c 1
 1225 224 1147 292 1117 395 c 1
 1109 395 l 1
 1064 314 974 223 860 223 c 128
 665 223 570 343 570 533 c 0
 570 830.485137287 775.616922147 1096 1067 1096 c 0
 1144 1096 1201 1060 1237 987 c 1
 1276 1052 l 1
 1383 1052 l 1
 1267 552 l 2
 1258 515 1254 478 1254 441 c 0
 1254 363 1290 324 1362 324 c 0
 1529.54701942 324 1631.44953808 587.495031324 1633 772 c 1
 1630.91574643 1122.1545995 1356.43862529 1362 1001 1362 c 0
 575.254048092 1362 312.990659633 1037.08118926 312.990659633 627.238439754 c 0
 312.990659633 232.126845787 603.778718954 -72 996 -72 c 128
 1184 -72 1358 -24 1515 73 c 1
 1554 0 l 1
 1375 -115 1187 -172 992 -172 c 0
 519.611524497 -172 133 142.190602195 133 638 c 128
 133 1137.2943208 514.052076144 1468 1003 1468 c 0
 1426.38308822 1468 1753.00010151 1185.0212162 1751 767 c 1
EndSplineSet
EndChar

StartChar: A
Encoding: 65 65 39
Width: 1581
GlyphClass: 2
Flags: HW
LayerCount: 2
Fore
SplineSet
498 -14 m 1
 445.419526269 -4.5063033542 358.525802011 -0.574312224648 269.439857149 -0.574312224648 c 0
 165.685719189 -0.574312224648 58.9580210859 -5.90772259605 0 -14 c 1
 30 126 l 1
 76 126 l 2
 121 126 153 129 172 135 c 1
 220 199 239 272 271 357 c 0
 337 528 433 772 489 913 c 2
 697 1437 l 1
 789 1437 l 2
 838 1437 879 1432 911 1421 c 1
 1352 259 l 2
 1371 208 1391 166 1412 135 c 1
 1435 129 1467 126 1508 126 c 2
 1552 126 l 1
 1581 -14 l 1
 1518 -5 1430 0 1317 0 c 128
 1204 0 1112 -5 1041 -14 c 1
 1022 126 l 1
 1039 126 l 2
 1088 126 1121 129 1138 135 c 1
 1137 170 1127 211 1109 256 c 2
 1043 423 l 1
 466 423 l 1
 412 259 l 2
 397 213 389 176 389 147 c 0
 389 133 413 126 461 126 c 2
 507 126 l 1
 498 -14 l 1
750 1259 m 1
 499 526 l 1
 1005 526 l 1
 759 1259 l 1
 750 1259 l 1
EndSplineSet
EndChar

StartChar: B
Encoding: 66 66 40
Width: 1457
GlyphClass: 2
Flags: HW
LayerCount: 2
Fore
SplineSet
187 126 m 2
 304.647642312 126 306.000750074 139.844403605 306.000750074 248.189093255 c 0
 306.000750074 250.739993215 306 253.343277906 306 256 c 2
 306 1154 l 2
 306 1215 301 1263 290 1298 c 1
 262 1301 241 1303 227 1303 c 128
 213 1303 163 1302 78 1299 c 1
 78 1413 l 1
 267 1440 498 1453 770 1453 c 0
 1120 1453 1295 1325 1295 1070 c 0
 1295 896 1155 772 996 748 c 1
 1220 718 1332 600 1332 393 c 0
 1332 2.94149887693 942.014111396 0 530 0 c 128
 415 0 271 -5 98 -14 c 1
 98 126 l 1
 187 126 l 2
1076 1064 m 0
 1076 1255.44959767 935.961197403 1324 723 1324 c 1
 529 1316 l 1
 529 804 l 1
 604 799 665 796 714 796 c 128
 912 796 1076 876 1076 1064 c 0
775 126 m 2
 985 126 1107 200 1107 398 c 0
 1107 586 984 680 737 680 c 2
 603 680 l 130
 567 680 542 679 529 678 c 1
 529 126 l 1
 775 126 l 2
EndSplineSet
EndChar

StartChar: C
Encoding: 67 67 41
Width: 1375
GlyphClass: 2
Flags: HW
LayerCount: 2
Fore
SplineSet
833 1337 m 128
 490.790918 1337 358 1074.07968828 358 728 c 0
 358 373 488 98 817 98 c 128
 957 98 1115 139 1291 221 c 1
 1306 82 l 1
 1171 3 1007 -37 814 -37 c 0
 373 -36 117 240 117 685 c 0
 117 1164 367 1458 839 1458 c 0
 1000 1458 1169 1422 1283 1355 c 1
 1259 1076 l 1
 1136 1076 l 1
 1074.50226785 1239.99395241 1026.17141743 1337 833 1337 c 128
EndSplineSet
EndChar

StartChar: D
Encoding: 68 68 42
Width: 1618
GlyphClass: 2
Flags: HW
LayerCount: 2
Fore
SplineSet
626 124 m 130
 1033.45027102 124 1261 274.761909725 1261 683 c 128
 1261 1097 1161 1314 753 1314 c 1
 515 1310 l 1
 515 126 l 1
 526 125 536 124 546 124 c 130
 626 124 l 130
781 1453 m 0
 781.990015841 1453.00200003 782.978943646 1453.00300003 783.966783825 1453.00300003 c 0
 1277.9467902 1453.00300003 1501.00727181 1202.39698764 1501.00727181 705.485505085 c 0
 1501.00727181 70.1566138205 1067.30337048 0 422 0 c 128
 327 0 217 -5 91 -14 c 1
 91 127 l 1
 181 127 l 2
 231 127 265 130 284 136 c 1
 294 166 299 206 299 257 c 2
 299 1145 l 2
 299 1199 294 1247 284 1288 c 1
 264 1295 230 1299 181 1299 c 2
 78 1299 l 1
 78 1416 l 1
 275 1441 510 1453 781 1453 c 0
EndSplineSet
EndChar

StartChar: E
Encoding: 69 69 43
Width: 1356
GlyphClass: 2
Flags: HW
LayerCount: 2
Fore
SplineSet
297 1174 m 2
 297 1273.75339465 297.857607072 1299 189 1299 c 2
 78 1299 l 1
 78 1407 l 1
 186 1427 357 1437 592 1437 c 2
 1204 1437 l 1
 1231 1308 l 2
 1249 1218 1258 1163 1258 1144 c 1
 1111 1138 l 1
 1103 1188 l 2
 1096 1227 1088 1258 1080 1282 c 1
 1039 1301 954 1310 823 1310 c 0
 804 1310 702 1308 515 1303 c 1
 515 799 l 1
 855 799 l 2
 939.820659441 799 954.444585341 834.556048695 976 910 c 1
 1028 910 l 1
 1028 790 1024 672 1015 555 c 1
 952 555 l 1
 925.49063505 637.841765469 907.929637576 679 822 679 c 2
 515 679 l 1
 515 126 l 1
 971 126 l 2
 1137.57637157 126 1133.42781523 167.752326283 1146 327 c 1
 1270 325 l 1
 1270 209 l 2
 1270 164 1267 101 1260 21 c 1
 1154 -11 999 -14 869 -14 c 1
 407 0 l 1
 270 0 164 -5 89 -14 c 1
 89 126 l 1
 178 126 l 2
 294.808830241 126 297.003344952 140.039549372 297.003344952 243.472265374 c 0
 297.003344952 247.510426181 297 251.684843003 297 256 c 2
 297 1174 l 2
EndSplineSet
EndChar

StartChar: F
Encoding: 70 70 44
Width: 1339
GlyphClass: 2
Flags: HW
LayerCount: 2
Fore
SplineSet
820 803 m 2
 900.03225777 803 920.089956686 841.080619297 940 910 c 1
 992 910 l 1
 992 781 988 663 980 555 c 1
 917 555 l 1
 890 636 874 672 787 672 c 2
 523 672 l 1
 523 259 l 2
 523 209 528 168 538 135 c 1
 557 129 591 126 641 126 c 2
 731 126 l 1
 731 -14 l 1
 567 -5 457 0 400 0 c 128
 343 0 249 -4 119 -13 c 1
 98 -14 l 1
 98 126 l 1
 187 126 l 2
 301.615351305 126 305 135.891522217 305 243 c 2
 305 1178 l 2
 305 1281.52111238 304.722699604 1299 197 1299 c 2
 78 1299 l 1
 78 1407 l 1
 251 1427 482 1437 772 1437 c 2
 1212 1437 l 1
 1239 1268 1241 1237 1251 1144 c 1
 1105 1138 l 1
 1105 1183 1096 1231 1078 1282 c 1
 1039 1301 984 1310 912 1310 c 128
 840 1310 710 1308 523 1303 c 1
 523 803 l 1
 820 803 l 2
EndSplineSet
EndChar

StartChar: G
Encoding: 71 71 45
Width: 1395
GlyphClass: 2
Flags: HW
LayerCount: 2
Fore
SplineSet
868 1337 m 128
 502.728185988 1337 358 1078.9446917 358 705 c 0
 358 359 515 97 844 97 c 0
 965 97 1064 115 1140 152 c 1
 1140 384 l 2
 1140 441 1135 484 1126 513 c 1
 1101 522 1065 527 1019 527 c 2
 901 527 l 1
 901 635 l 1
 983.061890454 639.558993914 1120.62411113 653 1198 653 c 2
 1301 653 l 2
 1318 653 1337 653 1356 652 c 1
 1352 556 1350 500 1350 485 c 2
 1350 101 l 1
 1215 9 1046 -37 842 -37 c 0
 841.160860676 -37.0018524047 840.322342436 -37.0027783305 839.484445858 -37.0027783305 c 0
 386.424372538 -37.0027783305 116.997340069 232.692648612 116.997340069 685.642082549 c 0
 116.997340069 1180.98513972 397.884929854 1458 896 1458 c 0
 1049 1458 1217 1423 1324 1355 c 1
 1299 1076 l 1
 1176 1076 l 1
 1114.12853096 1242.70923602 1064.63671772 1337 868 1337 c 128
EndSplineSet
EndChar

StartChar: H
Encoding: 72 72 46
Width: 1696
GlyphClass: 2
Flags: HW
LayerCount: 2
Fore
SplineSet
169 126 m 2
 286.647642312 126 288.000750074 142.153298392 288.000750074 248.348425821 c 0
 288.000750074 250.848715842 288 253.398919118 288 256 c 2
 288 1181 l 2
 288 1228 282 1268 271 1301 c 1
 251 1308 217 1312 168 1312 c 2
 78 1312 l 1
 78 1422 l 1
 164 1432 277 1437 418 1437 c 128
 559 1437 659 1432 716 1422 c 1
 716 1312 l 1
 623 1312 l 2
 576 1312 541 1308 520 1301 c 1
 511 1270 506 1230 506 1181 c 2
 506 811 l 1
 1189 811 l 1
 1189 1181 l 2
 1189 1230 1184 1270 1173 1301 c 1
 1153 1308 1119 1312 1070 1312 c 2
 980 1312 l 1
 980 1422 l 1
 1066 1432 1179 1437 1320 1437 c 128
 1461 1437 1561 1432 1618 1422 c 1
 1618 1312 l 1
 1525 1312 l 2
 1476 1312 1442 1308 1422 1301 c 1
 1411 1266 1406 1226 1406 1181 c 2
 1406 259 l 2
 1406 209 1411 168 1421 135 c 1
 1440 129 1474 126 1524 126 c 2
 1614 126 l 1
 1614 -14 l 1
 1539 -5 1433 0 1297 0 c 128
 1161 0 1056 -5 981 -14 c 1
 981 126 l 1
 1070 126 l 2
 1187.64764231 126 1189.00075007 139.844403605 1189.00075007 248.189093255 c 2
 1189 256 l 1
 1189 676 l 1
 506 676 l 1
 506 259 l 2
 506 207 511 166 520 135 c 1
 540 129 574 126 623 126 c 2
 713 126 l 1
 713 -14 l 1
 638 -5 532 0 396 0 c 128
 260 0 155 -5 80 -14 c 1
 80 126 l 1
 169 126 l 2
EndSplineSet
EndChar

StartChar: I
Encoding: 73 73 47
Width: 792
GlyphClass: 2
Flags: HW
LayerCount: 2
Fore
SplineSet
168 126 m 2
 285.647642312 126 287.000750074 142.153298392 287.000750074 248.348425821 c 0
 287.000750074 250.848715842 287 253.398919118 287 256 c 2
 287 1187 l 2
 287 1232 282 1270 271 1301 c 1
 251 1308 217 1312 168 1312 c 2
 78 1312 l 1
 78 1422 l 1
 164 1432 278 1437 420 1437 c 128
 562 1437 659 1432 714 1422 c 1
 714 1312 l 1
 622 1312 l 2
 575 1312 540 1308 519 1301 c 1
 510 1265 505 1227 505 1187 c 2
 505 259 l 2
 505 212 510 171 519 135 c 1
 542 129 576 126 622 126 c 2
 712 126 l 1
 712 -14 l 1
 639 -5 536 0 404 0 c 128
 272 0 164 -5 79 -14 c 1
 79 126 l 1
 168 126 l 2
EndSplineSet
EndChar

StartChar: J
Encoding: 74 74 48
Width: 1023
GlyphClass: 2
Flags: HW
LayerCount: 2
Fore
SplineSet
755 316 m 2
 755 40.9382760638 660.243359092 -177 426 -177 c 128
 296 -177 114 -151 47 -106 c 1
 47 -84 54 23 67 214 c 1
 208 208 l 1
 215 143 229 62 250 -36 c 1
 300 -46 342 -51 375 -51 c 128
 533.524825994 -51 537.007354892 128.614467379 537.007354892 323.981346984 c 0
 537.007354892 332.959597771 537 341.971116708 537 351 c 2
 537 1181 l 2
 537 1295.33790971 536.620937747 1312 418 1312 c 2
 328 1312 l 1
 328 1422 l 1
 414 1432 527 1437 668 1437 c 128
 809 1437 909 1432 966 1422 c 1
 966 1312 l 1
 874 1312 l 2
 755.054475191 1312 755 1292.56375654 755 1180 c 2
 755 316 l 2
EndSplineSet
EndChar

StartChar: K
Encoding: 75 75 49
Width: 1465
GlyphClass: 2
Flags: HW
LayerCount: 2
Fore
SplineSet
894 1422 m 1
 989 1432 1098 1437 1222 1437 c 128
 1346 1437 1428 1432 1469 1422 c 1
 1462 1312 l 1
 1384 1312 l 2
 1343 1312 1312 1308 1289 1301 c 1
 1094.28985105 1140.44952631 884.268914477 884.295583681 763 751 c 1
 1160 256 l 1
 1201 203 1237 163 1268 135 c 1
 1289 129 1322 126 1367 126 c 2
 1446 126 l 1
 1460 -14 l 1
 1383 -5 1282 0 1157 0 c 128
 1032 0 927 -5 843 -14 c 1
 843 126 l 1
 862 126 l 2
 912 126 944 129 959 135 c 1
 948 162 923 202 883 256 c 2
 574 668 l 1
 559 683 545 702 534 725 c 1
 570 776 719 942 982 1221 c 0
 1016 1258 1025 1265 1025 1301 c 1
 1010 1308 982 1312 940 1312 c 2
 885 1312 l 1
 894 1422 l 1
169 126 m 2
 283.615351305 126 287 135.891522217 287 243 c 2
 287 1181 l 2
 287 1230 282 1270 271 1301 c 1
 251 1308 217 1312 168 1312 c 2
 78 1312 l 1
 78 1422 l 1
 164 1432 278 1437 420 1437 c 128
 562 1437 659 1432 714 1422 c 1
 714 1312 l 1
 622 1312 l 2
 575 1312 540 1308 519 1301 c 1
 510 1265 505 1225 505 1181 c 2
 505 256 l 2
 505 253.252269091 504.999109081 250.561277918 504.999109081 247.925892323 c 0
 504.999109081 142.30437342 506.430158072 126 624 126 c 2
 713 126 l 1
 713 -14 l 1
 629 -5 523 0 396 0 c 128
 269 0 164 -5 80 -14 c 1
 80 126 l 1
 169 126 l 2
EndSplineSet
EndChar

StartChar: L
Encoding: 76 76 50
Width: 1331
GlyphClass: 2
Flags: HW
LayerCount: 2
Fore
SplineSet
887 126 m 2
 1078.23304832 126 1119.10508762 167.420350471 1159 327 c 1
 1245 315 l 1
 1208 0 l 1
 1071 -9 956 -14 862 -14 c 128
 672 -14 532 0 343 0 c 128
 251 0 163 -5 79 -14 c 1
 79 126 l 1
 168 126 l 2
 285.647642312 126 287.000750074 142.153298392 287.000750074 248.348425821 c 0
 287.000750074 250.848715842 287 253.398919118 287 256 c 2
 287 1181 l 2
 287 1230 282 1270 271 1301 c 1
 251 1308 217 1312 168 1312 c 2
 78 1312 l 1
 78 1422 l 1
 164 1432 278 1437 420 1437 c 128
 562 1437 661 1432 716 1422 c 1
 716 1312 l 1
 623 1312 l 2
 576 1312 541 1308 520 1301 c 1
 511 1270 506 1230 506 1181 c 2
 506 126 l 1
 887 126 l 2
EndSplineSet
EndChar

StartChar: M
Encoding: 77 77 51
Width: 2204
GlyphClass: 2
Flags: HW
LayerCount: 2
Fore
SplineSet
1926 1312 m 1
 1925.03958792 1312.00000235 l 2
 1850.1912153 1312.00000235 1817 1311.87068627 1817 1251 c 0
 1817 1234 1819 1206 1822 1167 c 2
 1892 256 l 2
 1894 227 1903 187 1918 138 c 1
 1952 130 1996 126 2051 126 c 2
 2104 126 l 1
 2126 -14 l 1
 2047 -5 1943 0 1812 0 c 128
 1681 0 1578 -5 1503 -14 c 1
 1491 126 l 1
 1572 126 l 2
 1647 126 1677 134 1677 194 c 128
 1677 550.489286907 1638.90321901 823.075356008 1610 1194 c 1
 1387 566 1242 168 1177 0 c 1
 989 0 l 1
 812.208985348 475.975808678 774.775712001 610.054795883 581 1184 c 1
 540 571 519 252 519 228 c 128
 519 146 535 126 622 126 c 2
 703 126 l 1
 691 -14 l 1
 610.666560779 -4.2626134278 498.095444491 0.259854795298 386.755073894 0.259854795298 c 0
 269.40909262 0.259854795298 153.430208694 -4.76364791498 78 -14 c 1
 100 126 l 1
 200 126 l 2
 249 126 284 129 305 135 c 1
 352 218 351 273 363 387 c 128
 384.754639804 598.147974564 428 1025.95787859 428 1210 c 0
 428 1309.04611246 404.069448368 1312 310 1312 c 2
 206 1312 l 1
 206 1422 l 1
 279 1432 354 1437 433 1437 c 0
 546 1437 635 1432 698 1422 c 1
 761 1275 864 978 1008 530 c 0
 1071 335 1105 233 1112 224 c 1
 1295 778 1434 1177 1530 1422 c 1
 1597 1432 1666 1437 1738 1437 c 0
 1834 1437 1922 1432 2002 1422 c 1
 2012 1312 l 1
 1926 1312 l 1
EndSplineSet
EndChar

StartChar: N
Encoding: 78 78 52
Width: 1666
GlyphClass: 2
Flags: HW
LayerCount: 2
Fore
SplineSet
308 1181 m 2
 308 1295.33790971 307.092266989 1312 189 1312 c 2
 78 1312 l 1
 78 1422 l 1
 201 1432 286 1437 334 1437 c 0
 432 1437 498 1433 531 1424 c 1
 826 969 1068 582 1256 265 c 1
 1242 1181 l 2
 1242 1234 1237 1274 1226 1301 c 1
 1203 1308 1168 1312 1123 1312 c 2
 1022 1312 l 1
 1022 1422 l 1
 1097 1432 1201 1437 1334 1437 c 128
 1467 1437 1559 1432 1608 1422 c 1
 1608 1312 l 1
 1528 1312 l 2
 1483 1312 1448 1308 1425 1301 c 1
 1415 1272 1410 1205 1410 1100 c 128
 1410 995 1400 624 1381 -14 c 1
 1277 -14 l 2
 1240 -14 1210 -7 1186 7 c 1
 460 1162 l 1
 460.79988695 1138.80327846 461.113296064 1109.86328237 461.113296064 1076.53871255 c 0
 461.113296064 955.844183098 457.002199382 777.635670582 457.002199382 606.462683584 c 0
 457.002199382 403.629924731 462.774692549 210.675922354 488 135 c 1
 510 129 544 126 591 126 c 2
 682 126 l 1
 682 -14 l 1
 615 -5 520 0 399 0 c 128
 278 0 178 -5 101 -14 c 1
 101 126 l 1
 190 126 l 2
 307.647642312 126 309.000750074 139.844403605 309.000750074 248.189093255 c 0
 309.000750074 250.739993215 309 253.343277906 309 256 c 2
 308 1181 l 2
EndSplineSet
EndChar

StartChar: O
Encoding: 79 79 53
Width: 1567
GlyphClass: 2
Flags: HW
LayerCount: 2
Fore
SplineSet
784 1458 m 0
 1216 1458 1450 1159 1450 715 c 0
 1450 265 1213 -37 784 -37 c 0
 352 -37 115 270 115 714 c 0
 115 1160 349 1458 784 1458 c 0
784 1337 m 1
 484.342115828 1335.5593371 356 1070.49997901 356 711 c 0
 356 360 460 87 784 87 c 0
 1088.00728531 87 1210 352.495063195 1210 714 c 0
 1210 1065.92992596 1102.92430358 1337 784 1337 c 1
EndSplineSet
EndChar

StartChar: P
Encoding: 80 80 54
Width: 1345
GlyphClass: 2
Flags: HW
LayerCount: 2
Fore
SplineSet
535 1448 m 128
 970.870334722 1448 1265 1416.36370692 1265 1012 c 0
 1265 726 1073 583 688 583 c 0
 632 583 577 585 524 588 c 1
 524 259 l 2
 524 209 529 168 539 135 c 1
 561 129 595 126 642 126 c 2
 732 126 l 1
 732 -14 l 1
 659 -5 557 0 424 0 c 128
 291 0 183 -5 99 -14 c 1
 99 126 l 1
 188 126 l 2
 305.647642312 126 307.000750074 139.844403605 307.000750074 248.189093255 c 0
 307.000750074 250.739993215 307 253.343277906 307 256 c 2
 306 1186 l 2
 306 1189.10371541 306.001207925 1192.13167377 306.001207925 1195.08570363 c 0
 306.001207925 1301.6112942 304.430418174 1312 188 1312 c 2
 78 1312 l 1
 78 1422 l 1
 207 1439 360 1448 535 1448 c 128
1041 1011 m 1
 1041 1240 930 1312 695 1312 c 2
 524 1312 l 1
 524 709 l 1
 565 708 618 707 682 707 c 128
 906 707 1040 790 1041 1011 c 1
EndSplineSet
EndChar

StartChar: Q
Encoding: 81 81 55
Width: 1616
GlyphClass: 2
Flags: HW
LayerCount: 2
Fore
SplineSet
352 709 m 128
 352 355.098125314 457.619374749 84 779 84 c 0
 1063 84 1205 293 1205 712 c 0
 1205.00654982 714.036993417 1205.00983242 716.070277047 1205.00983242 718.099831205 c 0
 1205.00983242 1090.24659276 1094.64112911 1337 779 1337 c 128
 449.646816426 1337 352 1057.1588369 352 709 c 128
1440 736 m 1
 1440 364.989258466 1257.62372948 77.8870830279 966 0 c 1
 1019 -44 1109 -66 1238 -66 c 0
 1265 -66 1343 -48 1472 -13 c 1
 1499 -118 l 1
 1367 -176 1243 -205 1128 -205 c 0
 963 -205 819 -147 696 -31 c 1
 318 11 115 279 115 724 c 128
 115 1168 352 1458 779 1458 c 0
 1186.74908573 1458 1438.1296279 1149.35223364 1440 736 c 1
EndSplineSet
EndChar

StartChar: R
Encoding: 82 82 56
Width: 1443
GlyphClass: 2
Flags: HW
LayerCount: 2
Fore
SplineSet
1292 -14 m 2
 962.603848281 -14 865.147994885 300.873738401 800 608 c 1
 693 608 601 610 524 613 c 1
 524 259 l 2
 524 209 529 168 539 135 c 1
 561 129 595 126 642 126 c 2
 732 126 l 1
 732 -14 l 1
 659 -5 557 0 424 0 c 128
 291 0 183 -5 99 -14 c 1
 99 126 l 1
 188 126 l 2
 305.647642312 126 307.000750074 139.844403605 307.000750074 248.189093255 c 0
 307.000750074 250.739993215 307 253.343277906 307 256 c 2
 306 1195 l 2
 306 1299.25523291 304.592638229 1312 198 1312 c 2
 78 1312 l 1
 78 1422 l 1
 188 1439 382 1447 661 1447 c 0
 1033.07454564 1445.99710365 1281.00615278 1367.66159014 1281.00615278 1029.45590308 c 0
 1281.00615278 823.991607553 1160.31469784 701.761990865 994 644 c 1
 1029 465 1169 232 1322 146 c 0
 1346 133 1368 126 1387 126 c 2
 1443 126 l 1
 1443 -14 l 1
 1292 -14 l 2
1056 1023 m 0
 1056 1258 930 1312 679 1312 c 2
 524 1312 l 1
 524 729 l 1
 575 728 635 727 704 727 c 0
 939 727 1056 826 1056 1023 c 0
EndSplineSet
EndChar

StartChar: S
Encoding: 83 83 57
Width: 1225
GlyphClass: 2
Flags: HW
LayerCount: 2
Fore
SplineSet
295 394 m 1
 295 148.770081369 369.848416519 84 614 84 c 0
 763 84 898 181 899 327 c 1
 895.210251507 618.810633982 381.565611885 677.434388115 228 831 c 0
 160 898 126 980 125 1076 c 1
 125 1346 387 1458 678 1458 c 0
 838.927639934 1458 1003.04091592 1443.39131176 1057 1360 c 1
 1040 1210 1030 1116 1025 1079 c 1
 894 1088 l 1
 894 1286.05752681 834.17915451 1337.0146139 634.903575483 1337.0146139 c 0
 632.949156102 1337.0146139 630.98132265 1337.00971237 629 1337 c 0
 471 1337 342 1259 342 1108 c 0
 342 1024 394 955 497 902 c 1
 717.745513374 785.283981434 1123.94356834 707.848948886 1121 387 c 1
 1121 114 898 -37 614 -37 c 0
 390 -37 218 19 98 132 c 1
 145 400 l 1
 295 394 l 1
EndSplineSet
EndChar

StartChar: T
Encoding: 84 84 58
Width: 1389
GlyphClass: 2
Flags: HW
LayerCount: 2
Fore
SplineSet
474 126 m 2
 589.666259897 126 592 135.891522217 592 243 c 2
 592 1312 l 1
 224 1312 l 1
 201 1264 190 1183 190 1068 c 1
 52 1068 l 1
 41 1422 l 1
 61 1432 140 1437 277 1437 c 1
 712 1430 l 1
 1109 1437 l 1
 1246 1437 1326 1432 1348 1422 c 1
 1338 1068 l 1
 1213 1068 l 1
 1213 1183 1202 1264 1179 1312 c 1
 811 1312 l 1
 811 259 l 2
 811 205 816 164 826 135 c 1
 848 129 882 126 929 126 c 2
 1019 126 l 1
 1019 -14 l 1
 946 -5 843 0 710 0 c 128
 577 0 469 -5 385 -14 c 1
 385 126 l 1
 474 126 l 2
EndSplineSet
EndChar

StartChar: U
Encoding: 85 85 59
Width: 1605
GlyphClass: 2
Flags: HW
LayerCount: 2
Fore
SplineSet
459 501 m 1
 457.748045863 244.349401962 574.412289853 85 824 85 c 0
 1105 85 1195 276 1195 577 c 2
 1195 1181 l 2
 1195 1295.33790971 1194.09226699 1312 1076 1312 c 2
 986 1312 l 1
 986 1423 l 1
 1063 1432 1168 1437 1300 1437 c 128
 1432 1437 1523 1432 1575 1422 c 1
 1575 1312 l 1
 1483 1312 l 2
 1364.43595731 1312 1365 1293.57868823 1365 1181 c 2
 1365 516 l 1
 1364 171 1145 -37 794 -37 c 0
 425 -37 240 171 240 586 c 2
 240 1181 l 2
 240 1295.33790971 239.092266989 1312 121 1312 c 2
 31 1312 l 1
 31 1423 l 1
 112 1432 224 1437 369 1437 c 128
 514 1437 614 1432 669 1422 c 1
 669 1312 l 1
 576 1312 l 2
 529 1312 494 1308 473 1301 c 1
 464 1272 459 1232 459 1181 c 2
 459 501 l 1
EndSplineSet
EndChar

StartChar: V
Encoding: 86 86 60
Width: 1633
GlyphClass: 2
Flags: HW
LayerCount: 2
Fore
SplineSet
568 1312 m 2
 520 1312 487 1308 469 1301 c 1
 469 1258 492 1220 507 1181 c 2
 879 215 l 1
 889 215 l 1
 1238 1181 l 2
 1253 1223 1262 1263 1263 1301 c 1
 1244 1308 1211 1312 1163 1312 c 2
 1093 1312 l 1
 1098 1422 l 1
 1174 1432 1252 1437 1331 1437 c 0
 1488 1437 1588 1432 1633 1422 c 1
 1609 1312 l 1
 1557 1312 l 2
 1509 1312 1474 1308 1451 1301 c 1
 1432 1269 1409 1217 1383 1146 c 128
 1255 795 1074 316 945 0 c 1
 841 0 l 2
 783 0 742 5 726 46 c 2
 272 1181 l 2
 254 1225 232 1265 205 1301 c 1
 181 1308 145 1312 98 1312 c 2
 23 1312 l 1
 0 1422 l 1
 76 1432 160 1437 251 1437 c 0
 440 1437 566 1432 627 1422 c 1
 640 1312 l 1
 568 1312 l 2
EndSplineSet
EndChar

StartChar: W
Encoding: 87 87 61
Width: 2403
GlyphClass: 2
Flags: HW
LayerCount: 2
Fore
SplineSet
2027 1290 m 2
 2027 1310.58684256 1984.896354 1312.0391926 1944.54794633 1312.0391926 c 0
 1937.91978894 1312.0391926 1931.3389978 1312 1925 1312 c 2
 1855 1312 l 1
 1849 1422 l 1
 1924 1432 2001 1437 2080 1437 c 0
 2237 1437 2338 1432 2385 1422 c 1
 2371 1312 l 1
 2319 1312 l 2
 2271 1312 2236 1308 2214 1301 c 1
 2196 1263 2177 1211 2158 1144 c 128
 2054 776 1913 322 1784 0 c 1
 1617 0 l 2
 1550.0825041 0 1552.03638953 59.8908314007 1539 99 c 2
 1244 1006 l 1
 1143 638 1031 303 906 0 c 1
 746 0 l 2
 708 0 684 15 674 46 c 2
 290 1181 l 2
 277 1218 254 1258 223 1301 c 1
 199 1308 163 1312 116 1312 c 2
 41 1312 l 1
 18 1422 l 1
 94 1432 178 1437 269 1437 c 0
 458 1437 584 1432 645 1422 c 1
 658 1312 l 1
 586 1312 l 2
 538 1312 505 1308 487 1301 c 1
 490 1280 502 1240 525 1181 c 1
 838 216 l 1
 848 216 l 1
 912.893402564 395.786639892 1089.00262195 959.684146356 1154 1393 c 1
 1275 1393 l 1
 1323 1392 1341 1373 1354 1339 c 1
 1719 209 l 1
 1729 209 l 1
 1808 472 1880 709 1954 964 c 1
 2008.28750666 1157.1625237 2027 1185.93297591 2027 1272 c 2
 2027 1290 l 2
EndSplineSet
EndChar

StartChar: X
Encoding: 88 88 62
Width: 1615
GlyphClass: 2
Flags: HW
LayerCount: 2
Fore
SplineSet
1513 -14 m 1
 1444 -5 1346 0 1222 0 c 128
 1098 0 998 -5 921 -14 c 1
 921 126 l 1
 971 126 l 2
 1018 126 1050 129 1068 135 c 1
 1051 173 1028 214 997 259 c 2
 767 589 l 1
 528 259 l 2
 501 222 479 181 461 135 c 1
 479 129 511 126 558 126 c 2
 609 126 l 1
 609 -14 l 1
 534 -5 456 0 377 0 c 2
 224 0 l 2
 155 0 85 -5 16 -14 c 1
 16 126 l 1
 104 126 l 2
 149 126 182 129 203 135 c 1
 241 172 268 215 308 256 c 1
 684 704 l 1
 348 1181 l 2
 316 1227 297 1265 261 1301 c 1
 237 1308 201 1312 152 1312 c 2
 78 1312 l 1
 63 1422 l 1
 130 1432 207 1437 294 1437 c 0
 483 1437 612 1432 680 1422 c 1
 694 1312 l 1
 633 1312 l 2
 584 1312 552 1308 537 1301 c 1
 546 1266 575 1231 592 1206 c 2
 827 859 l 1
 1079 1181 l 2
 1114 1226 1140 1266 1155 1301 c 1
 1140 1308 1108 1312 1060 1312 c 2
 1020 1312 l 1
 1034 1422 l 1
 1124 1432 1209 1437 1290 1437 c 0
 1438 1437 1531 1432 1568 1422 c 1
 1556 1312 l 1
 1474 1312 l 2
 1426 1312 1389 1308 1363 1301 c 1
 1199.70320571 1143.33412965 1046.32311605 918.082489902 900 753 c 1
 1267 256 l 2
 1316 191 1349 150 1366 135 c 1
 1387 129 1420 126 1465 126 c 2
 1513 126 l 1
 1513 -14 l 1
EndSplineSet
EndChar

StartChar: Y
Encoding: 89 89 63
Width: 1588
GlyphClass: 2
Flags: HW
LayerCount: 2
Fore
SplineSet
555 126 m 2
 679.071740378 126 666.557618784 136.956854135 677 256 c 1
 677 490 l 1
 268 1181 l 2
 241 1226 228 1263 200 1301 c 1
 177 1308 142 1312 93 1312 c 2
 19 1312 l 1
 -10 1422 l 1
 69 1432 153 1437 243 1437 c 0
 430 1437 555 1432 618 1422 c 1
 635 1312 l 1
 564 1312 l 2
 515 1312 483 1308 466 1301 c 1
 468 1278 481 1247 506 1206 c 2
 827 659 l 1
 922 829 981 937 1061 1089 c 0
 1114 1190 1144 1260 1153 1301 c 1
 1136 1308 1103 1312 1055 1312 c 2
 985 1312 l 1
 1009 1422 l 1
 1093 1432 1178 1437 1263 1437 c 0
 1436 1437 1547 1432 1594 1422 c 1
 1554 1312 l 1
 1469 1312 l 2
 1421 1312 1385 1308 1361 1301 c 1
 1192.75842161 1048.63763241 1059.44888644 799.516636314 891 517 c 1
 891 259 l 2
 891 209 896 168 906 135 c 1
 928 129 962 126 1008 126 c 2
 1099 126 l 1
 1099 -14 l 1
 1026 -5 924 0 791 0 c 128
 658 0 550 -5 466 -14 c 1
 466 126 l 1
 555 126 l 2
EndSplineSet
EndChar

StartChar: Z
Encoding: 90 90 64
Width: 1230
GlyphClass: 2
Flags: HW
LayerCount: 2
Fore
SplineSet
612 1312 m 2
 454.299846857 1312 259 1303.1732184 259 1235 c 0
 259 1198 261 1162 264 1127 c 1
 231 1127 195 1126 155 1125 c 1
 113 1405 l 1
 190 1426 362 1437 631 1437 c 2
 1098 1437 l 1
 1126 1422 1140 1397 1140 1362 c 2
 1140 1306 l 1
 306 126 l 1
 816 126 l 2
 955.819146307 126 982 231.444393954 982 393 c 1
 1144 393 l 1
 1144 86 l 2
 1144 75 1141 54 1135 24 c 1
 1080.18181818 1.90909090909 1015.99173554 -0.099173553719 940.238918107 -0.099173553719 c 0
 923.404958678 -0.099173553719 906 -6.10622663544e-16 888 0 c 2
 106 0 l 1
 85 16 74 43 74 81 c 2
 74 133 l 1
 888 1312 l 1
 612 1312 l 2
EndSplineSet
EndChar

StartChar: bracketleft
Encoding: 91 91 65
Width: 648
GlyphClass: 2
Flags: HW
LayerCount: 2
Fore
SplineSet
475 1564 m 2
 547 1564 575 1557 575 1494 c 2
 575 1461 l 1
 366 1461 l 1
 366 -125 l 1
 575 -125 l 1
 575 -160 l 2
 574.086702508 -213.884552032 547.315923436 -229.399937849 498.496626184 -229.399937849 c 0
 493.862040472 -229.399937849 489.02874546 -229.260107524 484 -229 c 2
 205 -229 l 1
 205 1564 l 1
 475 1564 l 2
EndSplineSet
EndChar

StartChar: backslash
Encoding: 92 92 66
Width: 891
GlyphClass: 2
Flags: HW
LayerCount: 2
Fore
SplineSet
891 -66 m 1
 782 -66 l 2
 749 -66 724 -56 706 -37 c 1
 0 1490 l 1
 102 1490 l 2
 152 1490 171 1471 194 1443 c 1
 891 -66 l 1
EndSplineSet
EndChar

StartChar: bracketright
Encoding: 93 93 67
Width: 651
GlyphClass: 2
Flags: HW
LayerCount: 2
Fore
SplineSet
194 -229 m 2
 189.470588235 -229.058823529 185.065743945 -229.093425606 180.786484836 -229.093425606 c 0
 112.3183391 -229.093425606 76 -220.235294118 76 -160 c 2
 76 -125 l 1
 285 -125 l 1
 285 1461 l 1
 76 1461 l 1
 76 1494 l 2
 76 1538 87 1556 122 1564 c 1
 446 1564 l 1
 446 -229 l 1
 194 -229 l 2
EndSplineSet
EndChar

StartChar: asciicircum
Encoding: 94 94 68
Width: 1191
GlyphClass: 2
Flags: HW
LayerCount: 2
Fore
SplineSet
1059 505 m 1
 1076 472 1084 446 1084 428 c 128
 1084 410 1079 394 1069 380 c 1
 967 362 l 1
 597 1003 l 1
 234 364 l 1
 165 380 l 2
 137 386 117 398 104 415 c 1
 117 451 131 481 144 505 c 2
 540 1208 l 1
 607 1208 l 2
 640 1208 663 1196 677 1172 c 2
 1059 505 l 1
EndSplineSet
EndChar

StartChar: underscore
Encoding: 95 95 69
Width: 965
GlyphClass: 2
Flags: HW
LayerCount: 2
Fore
SplineSet
-10 -278 m 2
 -10 -217 30 -211 93 -211 c 2
 975 -211 l 1
 975 -270 l 2
 975 -308 960 -331 929 -339 c 1
 -10 -339 l 1
 -10 -278 l 2
EndSplineSet
EndChar

StartChar: grave
Encoding: 96 96 70
Width: 1223
GlyphClass: 2
Flags: HW
LayerCount: 2
Fore
SplineSet
393 1587 m 1
 643 1587 l 1
 832 1264 l 1
 694 1264 l 1
 393 1587 l 1
EndSplineSet
EndChar

StartChar: a
Encoding: 97 97 71
Width: 1247
GlyphClass: 2
Flags: HW
LayerCount: 2
Fore
SplineSet
578 955 m 0
 431.994345225 955 333.27264092 866.405910927 269 755 c 1
 130 843 l 1
 155 990 376 1061 566 1061 c 0
 843 1061 982 935 982 682 c 2
 982 269 l 2
 982 206 988 150 999 101 c 1
 1159 101 l 1
 1159 19 l 1
 1098 -2 1013 -13 902 -13 c 1
 786.18655998 -11.1014190161 753 -7.64800087821 753 95 c 1
 751 115 l 1
 648 22 540 -24 427 -24 c 0
 231 -24 102 72 102 271 c 0
 102 492 276 603 623 603 c 2
 770 603 l 1
 770 671 l 2
 770 845.425679528 738.569919753 955.026818547 582.262944977 955.026818547 c 0
 580.852159186 955.026818547 579.43120043 955.017890005 578 955 c 0
612 489 m 2
 445 489 317 435 317 280 c 0
 317 161 383 101 516 101 c 0
 582 101 661 136 754 205 c 1
 765 301 770 396 770 489 c 1
 612 489 l 2
EndSplineSet
EndChar

StartChar: b
Encoding: 98 98 72
Width: 1337
GlyphClass: 2
Flags: HW
LayerCount: 2
Fore
SplineSet
1225 551 m 1
 1225 249.4996626 1058.44872179 -13 768 -13 c 1
 218 0 l 1
 198 0 l 2
 185 0 131 -2 119 -2 c 1
 131 105 l 1
 199 127 228 157 228 237 c 2
 228 1323 l 2
 228 1369 226 1408 221 1441 c 1
 193 1450 164 1455 134 1455 c 2
 37 1455 l 1
 37 1542 l 1
 104 1560 213 1569 364 1569 c 0
 392 1569 415 1568 433 1566 c 1
 439 1539 442 1505 442 1464 c 2
 442 913 l 1
 537 1012 654 1062 793 1062 c 0
 1080 1062 1224 850 1225 551 c 1
684 87 m 128
 927.603458874 87 999.031108427 284.574717307 999.031108427 534.902845883 c 0
 999.031108427 537.927613545 999.020679705 540.960083415 999 544 c 0
 999 813 916 947 749 947 c 0
 647 947 551 906 462 825 c 1
 449 734 442 641 442 546 c 0
 442 389 446 241 455 101 c 1
 550 92 626 87 684 87 c 128
EndSplineSet
EndChar

StartChar: c
Encoding: 99 99 73
Width: 1082
GlyphClass: 2
Flags: HW
LayerCount: 2
Fore
SplineSet
112.996589652 507.276778508 m 0
 112.996589652 842.739111388 333.620913251 1061.02207156 668.824542397 1061.02207156 c 0
 798.698695071 1061.02207156 922.148052809 1028.07272658 999 966 c 1
 982 765 l 1
 910 765 l 1
 858 866 787 947 654 947 c 128
 436.003102133 947 332 771.460234646 332 560 c 0
 332 294 436 103 688 102 c 128
 798 102 897 129 988 184 c 1
 1002 54 l 1
 914 2 796 -24 648 -24 c 0
 323.383507973 -24 112.996589652 181.720499844 112.996589652 507.276778508 c 0
EndSplineSet
EndChar

StartChar: d
Encoding: 100 100 74
Width: 1339
GlyphClass: 2
Flags: HW
LayerCount: 2
Fore
SplineSet
1061.39840537 -12.3182515186 m 0
 1059.21624641 -12.3182515186 1057.05600258 -12.3188109115 1054.91775065 -12.3188109115 c 0
 961.558574069 -12.3188109115 910.12303042 -11.2524278114 907 84 c 1
 907 132 l 1
 825 28 708 -24 557 -24 c 0
 269 -24 114 205 113 503 c 1
 113.997982443 823.352364202 254.4316188 1070.00302562 558.155937849 1070.00302562 c 0
 558.769957796 1070.00302562 559.384645114 1070.00201756 560 1070 c 128
 698 1070 811 1025 900 936 c 1
 900 1354 l 2
 900 1389 898 1418 893 1441 c 1
 864 1450 835 1455 806 1455 c 2
 709 1455 l 1
 709 1542 l 1
 786 1560 899 1569 1048 1569 c 0
 1108.21851671 1569 1113.19513064 1560.72903376 1113.19513064 1516.62710859 c 0
 1113.19513064 1507.89431265 1113 1497.75660201 1113 1486 c 2
 1113 269 l 2
 1113 206 1119 150 1130 101 c 1
 1303 101 l 1
 1303 15 l 1
 1230.62976285 -2.8980156402 1149.78174593 -12.3182515186 1061.39840537 -12.3182515186 c 0
623 101 m 0
 623.919446606 100.991073334 624.837159905 100.986619955 625.753133833 100.986619955 c 0
 766.771553453 100.986619955 866.563345083 206.540711314 903 345 c 1
 903 542 899 707 891 838 c 1
 840.667411639 893.803521879 749.0233518 947.302841329 641.943216583 947.302841329 c 0
 637.323515861 947.302841329 632.675084403 947.203264539 628 947 c 0
 437 947 342 806 342 524 c 128
 342 242 436 101 623 101 c 0
EndSplineSet
EndChar

StartChar: e
Encoding: 101 101 75
Width: 1171
GlyphClass: 2
Flags: HW
LayerCount: 2
Fore
SplineSet
330 487 m 1
 343 253 450 101 684 101 c 128
 791 101 883 136 960 205 c 1
 1046 167 l 1
 973 40 840 -24 646 -24 c 0
 313.824611236 -24 112.996286066 184.961237535 112.996286066 516.528430361 c 0
 112.996286066 848.169517247 312.54378786 1061 642 1061 c 1
 889 1060 1068 905 1068 659 c 0
 1068 530 1041 487 916 487 c 2
 330 487 l 1
853 621 m 2
 853.011463134 622.753859488 853.017210761 624.503081268 853.017210761 626.247604161 c 0
 853.017210761 815.886932606 785.098093016 950 608 950 c 0
 434 950 341 835 329 604 c 1
 851 604 l 1
 852 607 853 609 853 612 c 2
 853 621 l 2
EndSplineSet
EndChar

StartChar: f
Encoding: 102 102 76
Width: 786
GlyphClass: 2
Flags: HW
LayerCount: 2
Fore
SplineSet
673 1452 m 0
 520 1452 496 1343 495 1170 c 1
 495 1032 l 1
 779 1032 l 1
 779 980 l 2
 779 943 763 920 731 912 c 1
 495 912 l 1
 495 238 l 2
 495 105.661172154 517.754583859 87.709449937 657 71 c 1
 665 -13 l 1
 563.5 -5.5 468.5 -1.75 380 -1.75 c 0
 291.5 -1.75 209.5 -5.5 134 -13 c 1
 136 71 l 1
 260 84 281 91 281 200 c 2
 281 912 l 1
 55 912 l 1
 55 987 l 1
 71 1017 107 1032 162 1032 c 2
 281 1032 l 1
 281 1124 l 2
 281 1425 426 1564 725 1564 c 128
 800 1564 868 1547 929 1512 c 1
 929 1288 l 1
 832 1288 l 1
 801 1397 748 1452 673 1452 c 0
EndSplineSet
EndChar

StartChar: g
Encoding: 103 103 77
Width: 1102
GlyphClass: 2
Flags: HW
LayerCount: 2
Fore
SplineSet
299 686 m 0
 299 529.605746221 373.555632965 449.967703291 527.884205807 449.967703291 c 0
 676.542817341 449.967703291 747 540.648120223 747 692 c 128
 747 854 675 947 518 947 c 128
 359 947 299 851 299 686 c 0
841 -147 m 128
 841 20.2673344684 720.792042321 40 522 40 c 0
 478 40 372 35 330 34 c 1
 267 -43 235 -104 235 -149 c 0
 235 -283 363 -333 527 -333 c 128
 696 -333 841 -308 841 -147 c 128
151 214 m 128
 151 293.66952193 204.908690694 371.642752325 275 390 c 1
 275 394 l 1
 165 460 110 561 110 697 c 0
 110 929 293 1062 533 1062 c 0
 598 1062 670 1047 750 1018 c 1
 1003 1052 l 1
 1071.71996015 1052 1075.03790596 1026.72580032 1075.03790596 959.142077181 c 0
 1075.03790596 951.918351791 1075 944.211260106 1075 936 c 2
 1075 918 l 1
 853 918 l 1
 909 851 937 783 937 716 c 128
 937 431 764 318 475 318 c 0
 438 318 392 323 338 332 c 1
 321 305 313 280 313 260 c 128
 313 186.476895812 363.453827127 179.643810021 444.198030909 179.643810021 c 0
 462.633057482 179.643810021 482.647038125 180 504 180 c 128
 787.301887222 180 1031.19296784 133.928012003 1029 -138 c 1
 1030.50199658 -358.793497604 793.868437182 -449 515 -449 c 128
 270.123592953 -449 47 -376.316899433 47 -153 c 0
 47 -46 108 25 229 60 c 1
 229 65 l 1
 169 70 151 132 151 214 c 128
EndSplineSet
EndChar

StartChar: h
Encoding: 104 104 78
Width: 1362
GlyphClass: 2
Flags: HW
LayerCount: 2
Fore
SplineSet
751 946 m 0
 625.781656564 946 456.053241116 852.399308369 442 747 c 1
 442 226 l 2
 442 102.815768331 455.499459634 88.1161582731 562 71 c 1
 570 -13 l 1
 478.5 -5.5 393.75 -1.75 315.5 -1.75 c 0
 237.25 -1.75 165.5 -5.5 100 -13 c 1
 104 71 l 1
 214 85 228 98 228 200 c 2
 228 1353 l 2
 228 1390 225 1420 220 1441 c 1
 193 1450 165 1455 135 1455 c 2
 37 1455 l 1
 37 1542 l 1
 113 1561 219 1570 355 1570 c 0
 440 1570 442 1559 442 1475 c 2
 442 918 l 1
 529 1000 665 1061 826 1061 c 0
 1042 1061 1135 960 1135 745 c 2
 1135 269 l 2
 1135 206 1141 150 1152 101 c 1
 1305 101 l 1
 1305 12 l 1
 1244 -5 1156 -13 1041 -13 c 0
 957 -13 915 16 915 73 c 1
 921 281 l 1
 921 644 l 2
 921 833.211026357 910.373186982 946 751 946 c 0
EndSplineSet
EndChar

StartChar: i
Encoding: 105 105 79
Width: 640
GlyphClass: 2
Flags: HW
LayerCount: 2
Fore
SplineSet
230 842 m 2
 230 925.583531586 214.847135335 936 137 936 c 2
 40 936 l 1
 40 1032 l 1
 93 1045 165 1052 256 1052 c 128
 347 1052 409 1045 443 1032 c 1
 443 269 l 2
 443 206 449 150 460 101 c 1
 604 101 l 1
 614 11 l 1
 550 -5 462 -13 349 -13 c 0
 265 -13 223 16 223 73 c 1
 230 281 l 1
 230 842 l 2
472 1424 m 128
 472 1329 426 1269 335 1269 c 128
 243 1269 198 1328 198 1424 c 128
 198 1485 260 1547 320 1547 c 128
 407 1547 472 1499 472 1424 c 128
EndSplineSet
EndChar

StartChar: j
Encoding: 106 106 80
Width: 810
GlyphClass: 2
Flags: HW
LayerCount: 2
Fore
SplineSet
485 1269 m 128
 402 1269 348 1325 348 1408 c 128
 348 1491 402 1547 485 1547 c 128
 561 1547 622 1491 622 1424 c 128
 622 1329 576 1269 485 1269 c 128
379 842 m 2
 379 925.583531586 363.847135335 936 286 936 c 2
 189 936 l 1
 189 1032 l 1
 242 1045 314 1052 405 1052 c 128
 496 1052 558 1045 592 1032 c 1
 592 86 l 2
 592 -182 506 -374 259 -374 c 0
 178 -374 91 -360 0 -333 c 1
 47 -56 l 1
 87 -63 122 -69 153 -74 c 1
 153 -126 158 -181 167 -240 c 1
 223 -248 261 -252 281 -252 c 128
 385.596564449 -252 377.719076917 -39.4633853104 379 104 c 1
 379 842 l 2
EndSplineSet
EndChar

StartChar: k
Encoding: 107 107 81
Width: 1245
GlyphClass: 2
Flags: HW
LayerCount: 2
Fore
SplineSet
392 1572 m 1
 432 1545 442 1517 442 1456 c 2
 442 523 l 1
 706 778 l 2
 782 851 820 897 821 918 c 0
 821 930 808 936 783 936 c 1
 783 1032 l 1
 1216 1032 l 1
 1216 936 l 1
 1178 936 l 2
 1126 936 1053 906 1012 872 c 1
 669 566 l 1
 1039 145 l 2
 1066 113 1132 81 1202 81 c 128
 1215 81 1226 82 1234 84 c 1
 1247 -14 l 1
 1169.79602256 -5.25021588963 1088.35349995 -0.738976940672 1002.80877908 -0.738976940672 c 0
 922.148227167 -0.738976940672 837.840533884 -4.74978411037 750 -13 c 1
 750 75 l 1
 773 75 799 72 799 92 c 1
 786 113 765 142 734 179 c 2
 495 470 l 1
 442 432 l 1
 442 226 l 2
 442 103.430169346 455.922099683 89.0482339795 562 72 c 1
 567 -13 l 1
 480.5 -5.5 398.25 -1.75 320.5 -1.75 c 0
 242.75 -1.75 169.5 -5.5 101 -13 c 1
 104 72 l 1
 214 86 228 99 228 201 c 2
 228 1337 l 2
 228 1379 225 1413 220 1440 c 1
 193 1449 165 1454 134 1454 c 2
 37 1454 l 1
 37 1541 l 1
 102 1555 221 1565 392 1572 c 1
EndSplineSet
EndChar

StartChar: l
Encoding: 108 108 82
Width: 638
GlyphClass: 2
Flags: HW
LayerCount: 2
Fore
SplineSet
212 73 m 1
 219 281 l 1
 219 1339 l 2
 219 1378 216 1412 210 1441 c 1
 183 1450 154 1455 123 1455 c 2
 27 1455 l 1
 27 1542 l 1
 110 1560 208 1569 323 1569 c 0
 380 1569 416 1560 430 1543 c 1
 430 269 l 2
 430 206 436 150 447 101 c 1
 611 101 l 1
 611 11 l 1
 544 -5 453 -13 338 -13 c 0
 254 -13 212 16 212 73 c 1
EndSplineSet
EndChar

StartChar: m
Encoding: 109 109 83
Width: 2006
GlyphClass: 2
Flags: HW
LayerCount: 2
Fore
SplineSet
247 841 m 2
 247 924.166047693 233.577895268 936 154 936 c 2
 57 936 l 1
 57 1032 l 1
 110 1045 182 1052 271 1052 c 128
 360 1052 422 1045 456 1032 c 1
 456 905 l 1
 574 1010 702 1062 839 1062 c 128
 976 1062 1064 1003 1101 885 c 1
 1206 1003 1332 1062 1480 1062 c 0
 1690 1062 1778 961 1778 748 c 2
 1778 269 l 2
 1778 206 1784 150 1795 101 c 1
 1939 101 l 1
 1949 12 l 1
 1882 -5 1794 -13 1683 -13 c 0
 1599 -13 1557 16 1557 73 c 1
 1564 281 l 1
 1562 660 l 2
 1562 832.622294414 1552.07336188 936 1405 936 c 0
 1281 936 1159 839 1118 746 c 1
 1118 237 l 2
 1118 101.751556953 1131.5576757 89.1800150606 1248 72 c 1
 1257 -13 l 1
 1164.5 -3.5 1078 1.25 997.75 1.25 c 0
 917.5 1.25 843.5 -3.5 776 -13 c 1
 780 72 l 1
 891 86 904 97 904 199 c 2
 904 660 l 2
 904 837.143394217 894.977300522 936 746 936 c 0
 630 936 493 834 461 746 c 1
 461 236 l 2
 460.877336772 228.272216627 460.807642977 220.946130735 460.807642977 213.997633129 c 0
 460.807642977 103.477742717 478.439302071 88.48296931 581 72 c 1
 589 -13 l 1
 498 -3.5 413.25 1.25 334.875 1.25 c 0
 256.5 1.25 184.5 -3.5 119 -13 c 1
 122 72 l 1
 236 86 247 103 247 209 c 2
 247 841 l 2
EndSplineSet
EndChar

StartChar: n
Encoding: 110 110 84
Width: 1382
GlyphClass: 2
Flags: HW
LayerCount: 2
Fore
SplineSet
456 906 m 1
 551.923526647 999.432006474 671.890916384 1062 842 1062 c 128
 1037 1062 1153 937 1153 744 c 2
 1153 269 l 2
 1153 206 1159 150 1170 101 c 1
 1314 101 l 1
 1325 12 l 1
 1258 -5 1169 -13 1058 -13 c 0
 975 -13 934 16 934 74 c 1
 940 289 l 1
 940 651 l 2
 940 826.213252779 899.4637461 936 764 936 c 128
 633.855807074 936 518.291656084 839.66070068 461 766 c 1
 461 237 l 2
 460.874119854 229.069550778 460.802136313 221.559245111 460.802136313 214.443384694 c 0
 460.802136313 103.801417838 478.204896615 88.5206416155 581 72 c 1
 589 -13 l 1
 498 -3.5 413.25 1.25 334.875 1.25 c 0
 256.5 1.25 184.5 -3.5 119 -13 c 1
 122 72 l 1
 237 86 247 100 247 206 c 2
 247 845 l 2
 247 917.544086395 240.825746165 936 170 936 c 2
 57 936 l 1
 57 1032 l 1
 110 1045 182 1052 272 1052 c 128
 362 1052 423 1045 456 1032 c 1
 456 906 l 1
EndSplineSet
EndChar

StartChar: o
Encoding: 111 111 85
Width: 1285
GlyphClass: 2
Flags: HW
LayerCount: 2
Fore
SplineSet
642 87 m 0
 870.578533983 87 939.464041288 264.410972772 943 519 c 1
 943 770 875 946 642 946 c 0
 421.839507415 946 342 770.523401877 342 519 c 0
 342 262 407 87 642 87 c 0
643 1062 m 0
 960.893548746 1062 1172 836.376374523 1172 516 c 0
 1172 184.493919811 958.831295255 -24 643 -24 c 0
 322.855005641 -24 111.09695147 196.384798426 113 518 c 1
 111.089869628 836.991772073 326.614535512 1062 643 1062 c 0
EndSplineSet
EndChar

StartChar: p
Encoding: 112 112 86
Width: 1327
GlyphClass: 2
Flags: HW
LayerCount: 2
Fore
SplineSet
219 831 m 2
 219 925.520431769 210.252997174 936 124 936 c 2
 27 936 l 1
 27 1032 l 1
 81 1045 143 1052 212 1052 c 0
 323 1052 395 1045 428 1032 c 1
 430 917 l 1
 523 1014 642 1062 788 1062 c 0
 1076.94927344 1062 1214.46262517 805.638361192 1214.46262517 542.027079742 c 0
 1214.46262517 263.072598316 1060.47579872 -24 769 -24 c 128
 646 -24 534 14 432 91 c 1
 432 -240 l 2
 432 -368.038851741 444.770297651 -383.605940694 553 -401 c 1
 561 -489 l 1
 486 -477 403 -471 312 -471 c 128
 221 -471 147 -477 90 -489 c 1
 95 -401 l 1
 208 -384 219 -372 219 -266 c 2
 219 831 l 2
694 101 m 128
 926.118862958 101 988 285.80061825 988 529 c 128
 988 748 948 946 755 946 c 0
 638 946 533 898 442 802 c 1
 432 292 l 1
 485 191 559 101 694 101 c 128
EndSplineSet
EndChar

StartChar: q
Encoding: 113 113 87
Width: 1337
GlyphClass: 2
Flags: HW
LayerCount: 2
Fore
SplineSet
340 522 m 0
 340 273.687405511 411.002194985 101 624 101 c 0
 728 101 815 138 886 212 c 1
 886 832 l 1
 793 908 689 946 573 946 c 0
 378 946 340 746 340 522 c 0
1204 936 m 2
 1117.94483202 936 1109 925.611719987 1109 831 c 2
 1109 -266 l 2
 1108.89370575 -271.421006944 1108.83732329 -276.594957354 1108.83732329 -281.53476658 c 0
 1108.83732329 -381.922067077 1132.12259016 -385.611920533 1233 -401 c 1
 1238 -489 l 1
 1181 -477 1107 -471 1016 -471 c 128
 925 -471 842 -477 767 -489 c 1
 775 -401 l 1
 886.748200721 -383.355547255 896 -364.002965779 896 -235 c 2
 896 91 l 1
 794 14 685 -24 570 -24 c 0
 270.404641145 -24 112.980412535 262.946680272 112.980412535 541.843522626 c 0
 112.980412535 805.519342096 253.6904207 1062 548 1062 c 128
 685 1062 802 1024 900 947 c 1
 900 1032 l 1
 953 1045 1025 1052 1115 1052 c 128
 1205 1052 1267 1045 1301 1032 c 1
 1301 936 l 1
 1204 936 l 2
EndSplineSet
EndChar

StartChar: r
Encoding: 114 114 88
Width: 994
GlyphClass: 2
Flags: HW
LayerCount: 2
Fore
SplineSet
738 909 m 128
 591.909957379 909 470 698.11772367 470 568 c 2
 470 231 l 2
 470 103.105849959 481.853059594 88.2337274325 591 71 c 1
 600 -13 l 1
 509 -5.5 424.25 -1.75 345.75 -1.75 c 0
 267.25 -1.75 195 -5.5 129 -13 c 1
 133 71 l 1
 248 85 258 99 258 205 c 2
 258 852 l 2
 258 920.771087001 244.130654363 936 181 936 c 2
 68 936 l 1
 68 1032 l 1
 121 1045 192 1052 280 1052 c 128
 368 1052 429 1045 463 1032 c 1
 463 791 l 1
 556.25855949 939.581433763 632.784223913 1062 806 1062 c 128
 876 1062 929 1052 963 1032 c 1
 938 756 l 1
 848 756 l 1
 824 902 l 1
 786 906 780 909 738 909 c 128
EndSplineSet
EndChar

StartChar: s
Encoding: 115 115 89
Width: 1010
GlyphClass: 2
Flags: HW
LayerCount: 2
Fore
SplineSet
117 764 m 132
 117 984.300160522 320.138026547 1062 549 1062 c 128
 686 1062 787 1040 854 997 c 1
 854 932.322883517 815.993537863 776.632201937 811 750 c 1
 711 767 l 1
 708 833 706 881 703 911 c 1
 660 934 598 946 517 946 c 128
 395.71018062 946 305 917.811877123 305 821 c 128
 305 689.878914464 396.398843512 662.423920577 510 624 c 1
 612 588 l 2
 768.194102218 532.114036821 920 470.231703076 920 306 c 128
 920 64.7711733894 731.447402976 -22.1224613939 493 -24 c 1
 354.035385583 -24 187.945398095 10.2738366386 92 78 c 1
 141 338 l 1
 245 325 l 1
 253 232 259 168 263 132 c 1
 322 102 405 87 512 87 c 0
 631.135817788 87 718 133.321729125 718 244 c 128
 718 349.08340373 619.040161694 382.621150873 523 419 c 2
 437 452 l 1
 244.205294142 527.511259794 117 557.27695105 117 764 c 132
EndSplineSet
EndChar

StartChar: t
Encoding: 116 116 90
Width: 894
GlyphClass: 2
Flags: HW
LayerCount: 2
Fore
SplineSet
777 980 m 1
 776 922 762 912 706 912 c 2
 455 912 l 1
 455 319 l 2
 455 173 503 100 600 100 c 0
 619 100 647 106 683 118 c 1
 691 181 698 246 706 309 c 1
 837 319 l 1
 847 48 l 1
 768 9 665 -11 538 -11 c 0
 341 -11 242 92 242 299 c 2
 242 912 l 1
 39 912 l 1
 39 966 l 2
 39 1001 54 1007 86 1011 c 2
 253 1032 l 1
 280 1217 l 1
 282 1241 290 1271 305 1307 c 1
 323 1355 l 1
 455 1355 l 1
 455 1032 l 1
 777 1032 l 1
 777 980 l 1
EndSplineSet
EndChar

StartChar: u
Encoding: 117 117 91
Width: 1353
GlyphClass: 2
Flags: HW
LayerCount: 2
Fore
SplineSet
436 352 m 2
 436 176.489911746 461.531628115 101 616 101 c 0
 616.525951686 100.99259223 617.062229816 100.988901329 617.608632214 100.988901329 c 0
 679.386506409 100.988901329 870.585271845 148.17054369 899 205 c 1
 910 274 916 383 916 531 c 2
 916 829 l 2
 916 867 912 899 904 925 c 1
 883 932 856 936 822 936 c 2
 739 936 l 1
 739 1032 l 1
 797 1045 869 1052 956 1052 c 128
 1043 1052 1100 1045 1128 1032 c 1
 1128 269 l 2
 1128 206 1134 150 1145 101 c 1
 1306 101 l 1
 1306 15 l 1
 1231 -4 1162 -13 1099 -13 c 128
 1071.05633803 -13 1045.55028764 -13.812537195 1022.80228604 -13.812537195 c 0
 944.606030549 -13.812537195 899 -4.21126760563 899 81 c 2
 899 115 l 1
 771.164537707 20.0918537523 695.562560498 -24 504 -24 c 0
 317 -24 224 84 224 299 c 2
 224 829 l 2
 224 864 220 896 213 925 c 1
 191 932 163 936 130 936 c 2
 47 936 l 1
 47 1032 l 1
 105 1045 177 1052 263 1052 c 128
 349 1052 407 1045 436 1032 c 1
 436 352 l 2
EndSplineSet
EndChar

StartChar: v
Encoding: 118 118 92
Width: 1319
GlyphClass: 2
Flags: HW
LayerCount: 2
Fore
SplineSet
8 1032 m 1
 51 1045 116 1052 203 1052 c 0
 365 1052 476 1045 535 1032 c 1
 552 936 l 1
 497 936 l 2
 462 936 436 931 417 921 c 1
 431.933568664 856.287869122 441.631318313 852.897351903 482 739 c 0
 549 550 625 356 710 157 c 1
 966 835 l 2
 977 864 984 892 993 921 c 1
 976 931 949 936 914 936 c 2
 859 936 l 1
 870 1032 l 1
 917 1045 993 1052 1098 1052 c 128
 1203 1052 1274 1045 1313 1032 c 1
 1313 936 l 1
 1259 936 l 2
 1226 936 1195 931 1167 921 c 1
 1054.61575705 771.154342738 904.078644541 314.107306731 838 166 c 1
 759 -8 l 1
 647 -8 l 2
 593 -8 581 -3 562 20 c 1
 218 835 l 2
 203 868 188 897 171 921 c 1
 145 931 114 936 79 936 c 2
 24 936 l 1
 8 1032 l 1
EndSplineSet
EndChar

StartChar: w
Encoding: 119 119 93
Width: 1906
GlyphClass: 2
Flags: HW
LayerCount: 2
Fore
SplineSet
2 1032 m 1
 42 1045 105 1052 190 1052 c 0
 349 1052 459 1045 518 1032 c 1
 535 936 l 1
 480 936 l 2
 445 936 419 931 402 921 c 1
 657 146 l 1
 767 489 l 2
 821 658 880 838 933 1004 c 1
 988 1004 l 2
 1038 1004 1076 1004 1088 969 c 2
 1360 133 l 1
 1556 835 l 2
 1565 866 1565 894 1577 921 c 1
 1560 931 1535 936 1504 936 c 2
 1449 936 l 1
 1460 1032 l 1
 1507 1045 1583 1052 1688 1052 c 128
 1793 1052 1864 1045 1903 1032 c 1
 1903 936 l 1
 1849 936 l 2
 1814 936 1784 931 1757 921 c 1
 1644 612 1533 299 1423 -8 c 1
 1308 -8 l 2
 1219.0318273 -8 1208.67238728 14.982838173 1186 83 c 2
 974 710 l 1
 892 467 807 228 719 -8 c 1
 604 -8 l 2
 540 -8 504 6 496 35 c 1
 210 835 l 2
 201 860 186 888 163 921 c 1
 137 931 107 936 72 936 c 2
 18 936 l 1
 2 1032 l 1
EndSplineSet
EndChar

StartChar: x
Encoding: 120 120 94
Width: 1241
GlyphClass: 2
Flags: HW
LayerCount: 2
Fore
SplineSet
887 921 m 1
 872 931 850 936 819 936 c 2
 764 936 l 1
 788 1032 l 1
 843 1045 908 1052 985 1052 c 0
 1117 1052 1199 1045 1231 1032 c 1
 1197 936 l 1
 1154 936 l 2
 1120 936 1088 931 1057 921 c 1
 934 771 l 1
 840 658 780 588 753 559 c 1
 987 222 l 2
 1051.03962312 128.685120601 1064.97713341 97.243201323 1181 81 c 1
 1221 -13 l 1
 1172 -4 1088 0 971 0 c 128
 854 0 774 -4 732 -13 c 1
 723 71 l 1
 780 78 809 92 809 112 c 0
 809 125 788 161 747 221 c 2
 598 434 l 1
 459 242 l 2
 410 175 386 132 386 113 c 128
 386 94 411 80 460 71 c 1
 426 -13 l 1
 400.425172523 -6.60629313064 304.916015136 0.125260743106 205.64997495 0.125260743106 c 0
 134.134578896 0.125260743106 60.6692244371 -3.36865981775 10 -13 c 1
 46 71 l 1
 201.632242914 87.825107342 215.036179302 133.140031517 286 221 c 1
 528 515 l 1
 295 835 l 2
 277 859 251 888 216 921 c 1
 186 931 154 936 119 936 c 2
 86 936 l 1
 59 1032 l 1
 100 1045 165 1052 256 1052 c 0
 421 1052 535 1045 596 1032 c 1
 613 936 l 1
 557 936 l 2
 523 936 499 931 484 921 c 1
 502 892 526 864 547 835 c 2
 687 642 l 1
 732 699 798 792 887 921 c 1
EndSplineSet
EndChar

StartChar: y
Encoding: 121 121 95
Width: 1317
GlyphClass: 2
Flags: HW
LayerCount: 2
Fore
SplineSet
8 1031 m 1
 53 1045 118 1052 205 1052 c 0
 364 1052 474 1045 536 1031 c 1
 551 935 l 1
 496 935 l 2
 457 935 428 930 411 920 c 1
 419 885 548 570 561 536 c 2
 706 171 l 1
 970 835 l 1
 979 864 989 892 996 921 c 1
 979 931 953 936 918 936 c 2
 862 936 l 1
 874 1032 l 1
 921 1045 997 1052 1102 1052 c 128
 1207 1052 1278 1045 1317 1032 c 1
 1317 936 l 1
 1263 936 l 2
 1227 936 1196 931 1171 921 c 1
 1167 917 1142 864 1097 761 c 2
 682 -196 l 2
 599.720290694 -385.60106927 499.367032794 -488 304 -488 c 128
 300.96029519 -488 297.849659558 -488.001942813 294.679699283 -488.001942813 c 0
 234.994552894 -488.001942813 154.278401703 -487.313201916 130 -460 c 1
 152 -321 l 1
 203 -340 248 -349 288 -349 c 128
 488.379139338 -349 506.459889163 -238.995693326 590 -47 c 1
 217 834 l 2
 201 871 185 900 170 920 c 1
 144 930 114 935 79 935 c 2
 25 935 l 1
 8 1031 l 1
EndSplineSet
EndChar

StartChar: z
Encoding: 122 122 96
Width: 1095
GlyphClass: 2
Flags: HW
LayerCount: 2
Fore
SplineSet
133 0 m 2
 87 0 86 29 86 81 c 2
 86 140 l 1
 756 927 l 1
 390 927 l 2
 325 927 279 920 254 905 c 1
 212 753 l 1
 180 750 148 749 116 749 c 1
 111 834 108 899 108 944 c 2
 108 1037 l 1
 405 1032 l 1
 865 1032 l 1
 931 1029 952 1018 952 955 c 2
 952 877 l 1
 295 105 l 1
 698 105 l 2
 763 105 809 112 834 127 c 1
 876 279 l 1
 908 282 940 283 972 283 c 1
 978 115 l 2
 979 106 979 98 979 90 c 128
 979 82 979 75 980 70 c 1
 980 -10 l 1
 927 -3 859 0 778 0 c 2
 133 0 l 2
EndSplineSet
EndChar

StartChar: braceleft
Encoding: 123 123 97
Width: 702
GlyphClass: 2
Flags: HW
LayerCount: 2
Fore
SplineSet
599 -177 m 2
 599 -228.090530309 568.167552668 -232.144216039 521.795584762 -232.144216039 c 0
 513.049024965 -232.144216039 503.749623076 -232 494 -232 c 128
 317 -232 232 -165 232 17 c 2
 232 437 l 2
 232 555 191 613 102 646 c 1
 101 663 103 688 100 703 c 1
 186 745 232 789 232 896 c 2
 232 1323 l 2
 232 1512.07505579 333.213970104 1564 522 1564 c 128
 573 1564 599 1546 599 1510 c 2
 599 1494 l 1
 441.810261751 1485.16911583 393 1469.62350307 393 1317 c 2
 393 910 l 2
 393 775 348 694 258 665 c 1
 350 636 396 555 396 422 c 2
 396 16 l 2
 396 -136.405205717 463.753344449 -149.95945669 599 -161 c 1
 599 -177 l 2
EndSplineSet
EndChar

StartChar: bar
Encoding: 124 124 98
Width: 1168
GlyphClass: 2
Flags: HW
LayerCount: 2
Fore
SplineSet
580 1595 m 2
 621 1595 646 1579 656 1548 c 1
 656 -248 l 1
 586 -248 l 2
 561 -248 538 -244 519 -237 c 1
 513 -189 510 -132 510 -66 c 2
 510 1595 l 1
 580 1595 l 2
EndSplineSet
EndChar

StartChar: braceright
Encoding: 125 125 99
Width: 701
GlyphClass: 2
Flags: HW
LayerCount: 2
Fore
SplineSet
465 922 m 2
 464.942764321 919.080980383 464.914191511 916.211560825 464.914191511 913.390574051 c 0
 464.914191511 799.807010674 511.235609196 764.741279549 598 732 c 1
 598 646 l 1
 485 608 465 517 465 370 c 2
 465 17 l 2
 465 -173 384 -232 191 -232 c 0
 132 -232 102 -214 102 -177 c 2
 102 -161 l 1
 259.484703595 -150.138985959 304.73547097 -135.723444996 307 16 c 1
 307 358 l 2
 307 529.218206625 327.488330963 628.902603426 443 665 c 1
 352 689 307 775 307 924 c 2
 307 1293 l 2
 307 1464.31473788 267.698363636 1482.02180504 102 1494 c 1
 102 1510 l 2
 102 1546 130 1564 184 1564 c 128
 388 1564 465 1508 465 1295 c 2
 465 922 l 2
EndSplineSet
EndChar

StartChar: asciitilde
Encoding: 126 126 100
Width: 1205
GlyphClass: 2
Flags: HW
LayerCount: 2
Fore
SplineSet
378.101590486 669.114305421 m 0
 535.369048673 669.114305421 673.562554506 538 820 538 c 128
 919 538 990 584 1026 645 c 1
 1059 602 1081 568 1090 543 c 1
 1065.0150144 464.713711791 966.958383374 394 866 394 c 128
 663.500352268 394 554.845254255 530 374 530 c 0
 305 530 243 486 189 398 c 1
 147 443 122 475 113 495 c 1
 137.675853732 591.805272333 257.219142426 669.114305421 378.101590486 669.114305421 c 0
EndSplineSet
EndChar

StartChar: exclamdown
Encoding: 161 161 102
Width: 704
GlyphClass: 2
Flags: HW
LayerCount: 2
Fore
SplineSet
335 1179 m 128
 266.480153858 1179 210.258614262 1247.95950767 210.258614262 1324.90873586 c 0
 210.258614262 1399.82988749 267.315316397 1457 350 1457 c 128
 444 1457 491 1400 492 1306 c 128
 492 1230.11747337 424.200976437 1179 335 1179 c 128
425 935 m 128
 425 667.268149123 466 324.564859017 466 77 c 0
 466 -2 429 -22 340 -22 c 128
 299.585851659 -22 219 -11.4121122953 219 29 c 2
 219 52 l 2
 219 119.222150748 235.896413033 208.353224393 240 300 c 2
 275 965 l 2
 278 1033 296 1044 364 1044 c 128
 386 1044 408 1040 429 1032 c 1
 426 1005 425 973 425 935 c 128
EndSplineSet
EndChar

StartChar: cent
Encoding: 162 162 103
Width: 1206
GlyphClass: 2
Flags: HW
LayerCount: 2
Fore
SplineSet
753 1187 m 128
 863 1187 1030 1171 1072 1108 c 1
 1072 1093 1071 1078 1069 1061 c 1
 1020 885 l 1
 920 906 l 1
 878 999 825 1060 713 1072 c 1
 713 213 l 1
 824 213 920 259 999 350 c 1
 1077 312 l 1
 1026 177 905 103 713 90 c 1
 713 -76 l 1
 668 -76 l 2
 605 -76 601 -59 601 2 c 2
 601 92 l 1
 331 121 162 307 162 602 c 0
 162 912 339 1112 601 1168 c 1
 601 1347 l 1
 645 1347 l 1
 704 1346 713 1332 713 1274 c 2
 713 1184 l 1
 727 1186 740 1187 753 1187 c 128
601 1064 m 1
 454 1006 382 851 382 636 c 0
 382 433 455 292 601 235 c 1
 601 1064 l 1
EndSplineSet
EndChar

StartChar: sterling
Encoding: 163 163 104
Width: 1218
GlyphClass: 2
Flags: HW
LayerCount: 2
Fore
SplineSet
1008 1130 m 1
 970.893573198 1269.39981961 897.19967785 1340.00721677 729.71055532 1340.00721677 c 0
 572.34701716 1340.00721677 505 1237.22993175 505 1078 c 0
 505 1031 507 990 512 955 c 2
 530 805 l 1
 867 805 l 1
 867 756 l 1
 866 704 852 698 802 698 c 2
 543 698 l 1
 548 634 551 578 551 529 c 0
 551 383 511 246 430 118 c 1
 702 118 l 2
 936.131439089 118 998.513352372 145.821749702 1079 333 c 1
 1158 299 l 1
 1158 194 1149 98 1132 10 c 1
 1053 -1 950 -7 822 -7 c 128
 517 -7 443 -7 150 0 c 1
 110 17 100 39 100 92 c 1
 263.156096024 143.429638964 356 193.913544013 356 390 c 128
 356 478 351 581 340 698 c 1
 131 698 l 1
 131 748 l 1
 132 801 141 805 192 805 c 2
 325 805 l 1
 304 929 294 1020 294 1080 c 128
 294 1336.73110157 457.672735791 1468 705 1468 c 128
 857 1468 1070 1450 1126 1375 c 1
 1127 1301 1127 1224 1131 1151 c 1
 1008 1130 l 1
EndSplineSet
EndChar

StartChar: currency
Encoding: 164 164 105
Width: 1251
GlyphClass: 2
Flags: HW
LayerCount: 2
Fore
SplineSet
947 731 m 0
 947 940.905739806 787.40973822 1045.95071832 627.739667237 1045.95071832 c 0
 467.909818123 1045.95071832 308 940.695402478 308 730 c 0
 308 540 450 408 627 408 c 0
 807 408 947 551 947 731 c 0
1024 252 m 1
 993.724764023 263.154034307 916.46481679 349.53518321 897 369 c 1
 814 309 723 279 624 279 c 128
 525 279 436 309 357 369 c 1
 226 240 l 1
 181 283 155 312 146 328 c 1
 155 347 167 364 184 381 c 2
 266 462 l 1
 206 538 176 628 176 731 c 128
 176 834 206 924 266 1000 c 1
 133 1131 l 1
 159 1155 193 1196 226 1210 c 1
 247 1198 263 1186 276 1173 c 2
 356 1093 l 1
 437 1154 527 1184 624 1184 c 128
 721 1184 812 1153 895 1092 c 1
 1027 1224 l 1
 1058.70019239 1192.29980761 1097 1167.52355657 1097 1128 c 128
 1097 1116 1097 1109 1096 1108 c 2
 989 1002 l 1
 1049 924 1079 834 1079 730 c 128
 1079 626 1049 537 988 462 c 1
 1118 330 l 1
 1074 286 1043 260 1024 252 c 1
EndSplineSet
EndChar

StartChar: yen
Encoding: 165 165 106
Width: 1624
GlyphClass: 2
Flags: HW
LayerCount: 2
Fore
SplineSet
1186 349 m 2
 1186 292 1172 289 1119 289 c 2
 911 289 l 1
 911 250 l 2
 911 200 916 159 926 126 c 1
 948 120 982 117 1028 117 c 2
 1119 117 l 1
 1119 -19 l 1
 1018 -6 915 0 812 0 c 128
 709 0 600 -6 486 -19 c 1
 486 117 l 1
 575 117 l 2
 624 117 658 120 678 126 c 1
 688 156 693 196 693 247 c 2
 693 289 l 1
 426 289 l 1
 426 356 l 1
 445 378 478 389 527 389 c 2
 693 389 l 1
 693 488 l 1
 688 497 l 1
 426 497 l 1
 426 564 l 1
 447 587 482 598 531 598 c 2
 633 598 l 1
 283 1197 l 2
 255 1243 244 1279 215 1317 c 1
 192 1324 157 1328 108 1328 c 2
 34 1328 l 1
 10 1430 l 1
 78 1439 160 1443 255 1443 c 0
 448 1443 575 1438 638 1428 c 1
 650 1328 l 1
 579 1328 l 2
 530 1328 498 1324 481 1317 c 1
 483 1294 496 1263 521 1222 c 1
 847 659 l 1
 971.368843515 871.238135128 1071.09109485 1058.77964536 1146 1230 c 1
 1162 1270 1172 1299 1176 1317 c 1
 1159 1324 1126 1328 1078 1328 c 2
 1008 1328 l 1
 1029 1430 l 1
 1102 1439 1184 1443 1275 1443 c 0
 1454 1443 1567 1438 1614 1428 c 1
 1574 1328 l 1
 1492 1328 l 2
 1444 1328 1408 1324 1384 1317 c 1
 1357 1280 1332 1240 1310 1197 c 2
 1291 1161 l 2
 1233 1050 1162 926 1077 789 c 2
 960 598 l 1
 1186 598 l 1
 1186 557 l 2
 1186 501 1173 497 1120 497 c 2
 911 497 l 1
 911 389 l 1
 1186 389 l 1
 1186 349 l 2
EndSplineSet
EndChar

StartChar: brokenbar
Encoding: 166 166 107
Width: 551
GlyphClass: 2
Flags: HW
LayerCount: 2
Fore
SplineSet
285 -447 m 2
 218.093615702 -446.057656559 208.907956833 -429.13111223 208.907956833 -369.442399256 c 0
 208.907956833 -365.790391227 208.942343441 -361.978302584 209 -358 c 2
 209 354 l 1
 265 354 l 2
 307 354 333 339 343 308 c 1
 343 -447 l 1
 285 -447 l 2
285 732 m 2
 214 732 209 754 209 822 c 2
 209 1535 l 1
 265 1535 l 2
 307 1535 333 1519 343 1488 c 1
 343 732 l 1
 285 732 l 2
EndSplineSet
EndChar

StartChar: section
Encoding: 167 167 108
Width: 1063
GlyphClass: 2
Flags: HW
LayerCount: 2
Fore
SplineSet
670 483 m 1
 753 525 795 580 795 648 c 1
 796.526997714 744.200855985 580.117690611 846.383612778 443 906 c 1
 364 865 325 811 325 744 c 0
 325 660.153473291 382.366578262 622.782546412 441 592 c 0
 484 569 561 533 670 483 c 1
552.305911579 -134.444607972 m 0
 427.025520744 -134.444607972 239.859623651 -98.8596236514 164 -23 c 1
 164 54 166 124 169 187 c 1
 265 198 l 1
 312.681966011 49.7992948322 390.389618088 -18 552 -18 c 128
 672 -18 769 30 769 141 c 1
 770 226 658 282 578 317 c 128
 414.611632669 386.824088603 160 484.482715776 160 704 c 128
 160 855 219 922 326 971 c 1
 249 1028 195 1094 195 1212 c 128
 195 1441.4559269 375.364300247 1518 615 1518 c 128
 755 1518 846 1493 889 1442 c 1
 852 1235 l 1
 760 1254 l 1
 723.480598226 1363.55820532 682.86980849 1400 555 1400 c 128
 445 1400 363 1356 363 1251 c 1
 366.815186911 1086.94696284 655.20855914 1014.43968937 773 949 c 128
 875 892 959 830 959 688 c 0
 959 559 906 470 801 419 c 1
 882 372 941 289 941 172 c 128
 941 -45.464872851 757.852870348 -134.444607972 552.305911579 -134.444607972 c 0
EndSplineSet
EndChar

StartChar: dieresis
Encoding: 168 168 109
Width: 877
GlyphClass: 2
Flags: HW
LayerCount: 2
Fore
SplineSet
726 1424 m 128
 726 1350.58544262 683.723214553 1299 613 1299 c 128
 549 1299 500 1348 500 1412 c 128
 500 1476 549 1524 613 1524 c 128
 671 1524 726 1474 726 1424 c 128
382 1424 m 128
 382 1350.58544262 339.723214553 1299 269 1299 c 128
 205 1299 156 1348 156 1412 c 128
 156 1476 205 1524 269 1524 c 128
 327 1524 382 1474 382 1424 c 128
EndSplineSet
EndChar

StartChar: copyright
Encoding: 169 169 110
Width: 1774
GlyphClass: 2
Flags: HW
LayerCount: 2
Fore
SplineSet
887 1382 m 128
 507.988709212 1382 225 1098.75456034 225 720 c 128
 225 340.988709212 508.245439655 58 887 58 c 128
 1266.01129079 58 1549 341.245439655 1549 720 c 128
 1549 1099.01129079 1265.75456034 1382 887 1382 c 128
113 720 m 128
 113 964 215 1142 340 1267 c 128
 466 1393 643 1494 887 1494 c 128
 1131 1494 1309 1392 1434 1267 c 128
 1560 1141 1661 964 1661 720 c 128
 1661 476 1559 298 1434 173 c 128
 1308 47 1131 -54 887 -54 c 128
 643 -54 465 48 340 173 c 128
 214 299 113 476 113 720 c 128
644 770 m 128
 644 544 714 378 926 378 c 128
 1014 378 1094 402 1165 450 c 1
 1176 347 l 1
 1105 304 1011 282 895 282 c 0
 638 282 470 448 470 705 c 0
 470 969 638 1152 898 1152 c 128
 1022 1152 1114 1125 1173 1071 c 1
 1160 911 l 1
 1103 911 l 1
 1054 1012 983 1062 890 1062 c 0
 743 1062 644 921 644 770 c 128
EndSplineSet
EndChar

StartChar: ordfeminine
Encoding: 170 170 111
Width: 793
GlyphClass: 2
Flags: HW
LayerCount: 2
Fore
SplineSet
218 992 m 0
 218 933 266 894 325 894 c 0
 377 894 434 915 496 956 c 1
 503 1007 507 1062 507 1119 c 1
 407 1119 l 2
 281 1119 218 1077 218 992 c 0
381.382983572 1416.18257239 m 0
 291.63171001 1416.18257239 234.520205876 1353.54277665 185 1287 c 1
 132 1317 101 1336 91 1344 c 1
 91 1434 247 1484 346 1484 c 128
 538 1483 652 1428 652 1244 c 2
 651 1024 l 2
 651 956 653 911 656 890 c 1
 676 884 710 881 759 881 c 1
 759 826 l 1
 715 815 665 809 608 809 c 128
 551 809 518 821 510 845 c 1
 507 896 l 1
 438 831 365 798 287 798 c 0
 158 798 72 858 72 985 c 0
 72 1123 186 1192 414 1192 c 2
 507 1192 l 1
 507 1248 l 2
 507.999353724 1360.92697085 452.921351347 1416.18257239 381.382983572 1416.18257239 c 0
EndSplineSet
EndChar

StartChar: guillemotleft
Encoding: 171 171 112
Width: 1028
GlyphClass: 2
Flags: HW
LayerCount: 2
Fore
SplineSet
561 138 m 1
 518 105 490 89 476 89 c 128
 462 89 448 93 434 101 c 1
 133 531 l 1
 141 560 154 587 171 612 c 2
 421 962 l 2
 427 971 433 979 440 986 c 2
 458 1003 l 1
 476 1003 497 996 521 981 c 1
 574 959 l 1
 313 548 l 1
 561 138 l 1
882 171 m 1
 851.67651957 147.268580533 832.805491515 122 800 122 c 0
 780 122 765 126 754 134 c 1
 482 531 l 1
 484 553 496 580 519 612 c 2
 741 928 l 2
 748 937 754 945 760 951 c 2
 777 968 l 1
 781 968 l 2
 791 968 811 961 842 948 c 2
 895 925 l 1
 662 548 l 1
 882 171 l 1
EndSplineSet
EndChar

StartChar: logicalnot
Encoding: 172 172 113
Width: 1257
GlyphClass: 2
Flags: HW
LayerCount: 2
Fore
SplineSet
133 752 m 2
 133 824 155 829 227 829 c 2
 1124 829 l 1
 1124 255 l 1
 1056 255 l 2
 1014 255 989 270 980 301 c 1
 980 685 l 1
 133 685 l 1
 133 752 l 2
EndSplineSet
EndChar

StartChar: uni00AD
Encoding: 173 173 114
Width: 898
GlyphClass: 2
Flags: HW
LayerCount: 2
Fore
SplineSet
170 561 m 2
 170 617 195 622 250 622 c 2
 728 622 l 1
 728 537 l 2
 728 501 713 480 682 473 c 1
 170 473 l 1
 170 561 l 2
EndSplineSet
EndChar

StartChar: registered
Encoding: 174 174 115
Width: 1774
GlyphClass: 2
Flags: HW
LayerCount: 2
Fore
SplineSet
1065.01228574 886.223330097 m 0
 1065.01228574 1015.61969367 1004.87014147 1053 868 1053 c 0
 835 1053 805 1052 778 1050 c 1
 778 714 l 1
 809 713 843 712 882 712 c 0
 1005.92922211 712 1065.01228574 769.977500167 1065.01228574 886.223330097 c 0
501 1106 m 1
 607.602194026 1115.07252715 682.554869988 1131 826 1131 c 128
 1047 1131 1217 1097 1215 888 c 1
 1215 765.452750932 1129.57299244 683.020854983 1014 650 c 1
 1078 629 1135 572 1184 478 c 2
 1221 407 l 2
 1228 393 1242 356 1258 356 c 128
 1264 356 1291 368 1338 393 c 1
 1354 347 l 1
 1297 300 1246 276 1203 276 c 0
 1142 276 1119 293 1104 330 c 0
 1054 452 993 557 921 644 c 1
 861 644 813 645 778 647 c 1
 778 437 l 2
 778 375.81372035 778.936444514 360 846 360 c 2
 898 360 l 1
 898 282 l 1
 829 289 764 293 706 293 c 128
 648 293 584 289 513 282 c 1
 513 360 l 1
 579 360 l 2
 631.364856315 360 633.007358192 377.39720487 633.007358192 425.026169212 c 0
 633.007358192 428.21406238 633 431.537389847 633 435 c 2
 633 981 l 2
 633 986.29580454 633.055613815 991.373124472 633.055613815 996.190671494 c 0
 633.055613815 1026.10260443 630.911638815 1046 600 1046 c 2
 501 1046 l 1
 501 1106 l 1
887 1382 m 128
 507.988709212 1382 225 1098.75456034 225 720 c 128
 225 340.988709212 508.245439655 58 887 58 c 128
 1266.01129079 58 1549 341.245439655 1549 720 c 128
 1549 1099.01129079 1265.75456034 1382 887 1382 c 128
113 720 m 128
 113 964 215 1142 340 1267 c 128
 466 1393 643 1494 887 1494 c 128
 1131 1494 1309 1392 1434 1267 c 128
 1560 1141 1661 964 1661 720 c 128
 1661 476 1559 298 1434 173 c 128
 1308 47 1131 -54 887 -54 c 128
 643 -54 465 48 340 173 c 128
 214 299 113 476 113 720 c 128
EndSplineSet
EndChar

StartChar: macron
Encoding: 175 175 116
Width: 591
GlyphClass: 2
Flags: HW
LayerCount: 2
Fore
SplineSet
2 1421 m 1
 589 1421 l 1
 589 1298 l 1
 2 1298 l 1
 2 1421 l 1
EndSplineSet
EndChar

StartChar: degree
Encoding: 176 176 117
Width: 839
GlyphClass: 2
Flags: HW
LayerCount: 2
Fore
SplineSet
417 1337 m 0
 305 1337 208 1239 208 1126 c 0
 208 1004 305 916 417 916 c 0
 532 916 627 1011 627 1126 c 1
 628 1240 531 1337 417 1337 c 0
417 805 m 1
 244 806 98 950 98 1126 c 0
 98 1336.00044172 255.901411895 1438.00122134 415.087049365 1438.00122134 c 0
 577.457043679 1438.00122134 741.163156883 1331.87876828 740 1126 c 1
 741 950 593 806 417 805 c 1
EndSplineSet
EndChar

StartChar: plusminus
Encoding: 177 177 118
Width: 1257
GlyphClass: 2
Flags: HW
LayerCount: 2
Fore
SplineSet
133 103 m 2
 133 172 148 179 213 179 c 2
 1124 179 l 1
 1124 112 l 2
 1124 71 1108 45 1076 35 c 1
 133 35 l 1
 133 103 l 2
623 1191 m 2
 692 1191 701 1176 701 1111 c 2
 701 816 l 1
 1124 816 l 1
 1124 750 l 2
 1124 709 1108 683 1076 673 c 1
 701 673 l 1
 701 299 l 1
 632 299 l 1
 563 300 556 311 556 378 c 2
 556 673 l 1
 133 673 l 1
 133 740 l 2
 132.972856655 741.872890775 132.958975012 743.700102358 132.958975012 745.482734649 c 0
 132.958975012 809.374849496 150.791460741 816 215 816 c 2
 556 816 l 1
 556 1191 l 1
 623 1191 l 2
EndSplineSet
EndChar

StartChar: twosuperior
Encoding: 178 178 119
Width: 891
GlyphClass: 2
Flags: HW
LayerCount: 2
Fore
SplineSet
158 1303 m 1
 172.77331114 1407.75620627 295.295631846 1466 449 1466 c 128
 607 1466 720 1379 720 1228 c 128
 720 1156 689 1081 626 1002 c 0
 569 930 452 817 277 662 c 1
 520 662 l 2
 613 662 677 702 711 782 c 1
 750 775 l 1
 750 697 747 636 742 591 c 1
 690 574 573 574 504 574 c 2
 197 574 l 2
 167 574 148 584 140 605 c 1
 140 612 143 629 148 656 c 1
 365 869 495 1009 540 1077 c 0
 575 1130 592 1182 592 1234 c 0
 592 1339 545 1391 450 1391 c 0
 449.184368384 1391.00807556 448.369649774 1391.01210781 447.555874715 1391.01210781 c 0
 347.599547921 1391.01210781 261.878866592 1330.17629282 247 1229 c 1
 158 1303 l 1
EndSplineSet
EndChar

StartChar: threesuperior
Encoding: 179 179 120
Width: 875
GlyphClass: 2
Flags: HW
LayerCount: 2
Fore
SplineSet
721 1248 m 1
 719.565501743 1143.28162723 620.841776013 1062.47812023 505 1036 c 1
 670 1015 752 939 752 810 c 0
 752 647 623 557 453 557 c 0
 450.908533185 556.970121903 448.816577427 556.955273369 446.724587686 556.955273369 c 0
 319.492680411 556.955273369 192.135068667 611.878561166 167 681 c 1
 175 740 182 786 187 819 c 1
 254 807 l 1
 254 703 325 633 426 633 c 128
 553 633 629 698 629 817 c 0
 629 932 542 990 367 990 c 2
 342 990 l 1
 342 1027 l 2
 342 1041 344 1053 348 1062 c 1
 382 1062 l 2
 494.505020121 1062 602 1136.01438736 602 1242 c 128
 602 1347.66620836 532.301512375 1392.59848359 454.930968304 1392.59848359 c 0
 366.154574684 1392.59848359 267.277387739 1333.4420333 252 1239 c 1
 170 1306 l 1
 182.992551021 1400.66001458 303.057118169 1468 414 1468 c 128
 582 1468 721 1401 721 1248 c 1
EndSplineSet
EndChar

StartChar: acute
Encoding: 180 180 121
Width: 1225
GlyphClass: 2
Flags: HW
LayerCount: 2
Fore
SplineSet
831 1587 m 1
 793 1542 692 1435 528 1264 c 1
 433 1264 l 130
 409 1264 395 1264 391 1265 c 1
 515 1476 578 1584 580 1587 c 1
 831 1587 l 1
EndSplineSet
EndChar

StartChar: mu
Encoding: 181 181 122
Width: 1521
GlyphClass: 2
Flags: HW
LayerCount: 2
Fore
SplineSet
566 284 m 2
 566 146.9373973 621.082056572 91 745 91 c 0
 745.557990384 90.9925601282 746.124106799 90.9888532719 746.69819344 90.9888532719 c 0
 815.244375934 90.9888532719 997.417748884 143.835497767 1028 205 c 1
 1039 274 1045 383 1045 531 c 2
 1045 834 l 2
 1045 872 1041 904 1033 930 c 1
 1012 937 985 941 951 941 c 2
 868 941 l 1
 868 1027 l 1
 955 1045 1078 1054 1235 1054 c 0
 1250 1054 1257 1040 1257 1011 c 2
 1257 269 l 2
 1257 196 1265 140 1280 102 c 1
 1305 99 1333 98 1364 98 c 2
 1435 98 l 1
 1435 15 l 1
 1360 -2 1291 -11 1228 -11 c 128
 1198.75524476 -11 1172.11091007 -11.961024989 1148.48366412 -11.961024989 c 0
 1072.73749328 -11.961024989 1028 -2.08391608392 1028 81 c 1
 1026 115 l 1
 891 20 780 -27 691 -27 c 0
 647 -27 605 -18 566 -1 c 1
 566 -120 l 2
 566 -214.3474711 578.638356622 -257 667 -257 c 1
 667 -340 l 1
 622 -356 556 -364 472 -364 c 128
 388 -364 346 -335 346 -278 c 1
 353 -70 l 1
 353 834 l 2
 353 869 349 901 342 930 c 1
 320 937 292 941 259 941 c 2
 176 941 l 1
 176 1027 l 1
 263 1045 386 1054 543 1054 c 0
 558 1054 566 1038 566 1007 c 2
 566 284 l 2
EndSplineSet
EndChar

StartChar: paragraph
Encoding: 182 182 123
Width: 1208
GlyphClass: 2
Flags: HW
LayerCount: 2
Fore
SplineSet
361 -66 m 2
 478.647642312 -66 480.000750074 -49.8467016076 480.000750074 56.3484258214 c 0
 480.000750074 58.8487158417 480 61.3989191181 480 64 c 2
 480 595 l 1
 214 596 82 738 82 1010 c 128
 82 1317.73465386 319.854050522 1387 655 1387 c 2
 797 1387 l 2
 958 1387 1067 1382 1124 1372 c 1
 1124 1272 l 1
 1032 1272 l 2
 913.435957306 1272 914 1253.57868823 914 1141 c 2
 914 64 l 2
 914 61.2522690909 913.999109081 58.5612779185 913.999109081 55.9258923232 c 0
 913.999109081 -49.6956265802 915.430158072 -66 1033 -66 c 2
 1122 -66 l 1
 1122 -202 l 1
 992 -189 876 -183 774 -183 c 1
 774 1311 l 1
 620 1311 l 1
 620 -183 l 1
 515 -183 399 -189 272 -202 c 1
 272 -66 l 1
 361 -66 l 2
EndSplineSet
EndChar

StartChar: periodcentered
Encoding: 183 183 124
Width: 554
GlyphClass: 2
Flags: HW
LayerCount: 2
Fore
SplineSet
392 610 m 128
 392 536.585442625 349.723214553 485 279 485 c 128
 215 485 166 534 166 598 c 128
 166 662 215 710 279 710 c 128
 337 710 392 660 392 610 c 128
EndSplineSet
EndChar

StartChar: cedilla
Encoding: 184 184 125
Width: 695
GlyphClass: 2
Flags: HW
LayerCount: 2
Fore
SplineSet
306 -498 m 0
 225.974389247 -498 123 -491.925102347 123 -417 c 128
 123 -401 125 -384 129 -366 c 1
 182 -382 228 -390 267 -390 c 128
 338 -390 397 -358 397 -291 c 0
 397 -226 364 -189 297 -178 c 0
 292 -178 279 -181 260 -186 c 1
 209 -163 l 1
 294 11 l 1
 395 11 l 1
 339 -96 l 1
 485.22514925 -103.904062122 564 -140.682949056 564 -277 c 128
 564 -426 455 -498 306 -498 c 0
EndSplineSet
EndChar

StartChar: onesuperior
Encoding: 185 185 126
Width: 707
GlyphClass: 2
Flags: HW
LayerCount: 2
Fore
SplineSet
273 650 m 2
 328.142030401 650 330.009863716 674.61383307 330.009863716 719.009782678 c 0
 330.009863716 722.236007124 330 725.566697629 330 729 c 2
 330 1330 l 1
 314 1342 299 1348 285 1348 c 128
 271 1348 255 1347 237 1345 c 1
 179 1334 l 1
 168 1391 l 1
 242.207265802 1416.97254303 322.91350684 1458 418 1458 c 128
 436 1458 448 1452 455 1440 c 1
 455 731 l 2
 455 662.293898416 454.40345079 650 525 650 c 2
 580 650 l 1
 580 568 l 1
 522 576 462 580 398 580 c 128
 334 580 269 576 204 568 c 1
 204 650 l 1
 273 650 l 2
EndSplineSet
EndChar

StartChar: ordmasculine
Encoding: 186 186 127
Width: 845
GlyphClass: 2
Flags: HW
LayerCount: 2
Fore
SplineSet
424 1407 m 128
 282 1407 244 1297 244 1140 c 0
 244 963 304 875 425 875 c 0
 565 875 602 986 602 1141 c 128
 602 1297 566 1407 424 1407 c 128
424 1483 m 128
 635.285094893 1483 773 1350.35585484 773 1139 c 128
 773 926.772975934 634.859051673 798 424 798 c 128
 210.656484625 798 72 924.747827798 72 1139 c 128
 72 1352.18362928 211.449788332 1483 424 1483 c 128
EndSplineSet
EndChar

StartChar: guillemotright
Encoding: 187 187 128
Width: 1028
GlyphClass: 2
Flags: HW
LayerCount: 2
Fore
SplineSet
605 129 m 2
 592 111 582 103 568 89 c 1
 543 89 505 105 456 138 c 1
 715 548 l 1
 465 959 l 1
 515 981 l 1
 538 994 558 1001 577 1003 c 1
 594 986 606 973 613 962 c 2
 856 612 l 1
 877 585 890 558 895 531 c 1
 605 129 l 2
284 162 m 2
 276 150 264 137 249 122 c 1
 234 122 216 128 193 140 c 2
 133 171 l 1
 366 548 l 1
 146 925 l 1
 196 948 l 1
 228 961 248 968 257 968 c 1
 270 955 282 945 294 928 c 2
 509 612 l 1
 530 585 542 558 547 531 c 1
 284 162 l 2
EndSplineSet
EndChar

StartChar: onequarter
Encoding: 188 188 129
Width: 1716
GlyphClass: 2
Flags: HW
LayerCount: 2
Fore
SplineSet
1293 322 m 1
 1293 701 l 1
 1291 730 l 1
 1016 342 l 1
 1005 322 l 1
 1293 322 l 1
1221 83 m 2
 1291.36298509 83 1293.00392771 92.7609233359 1293.00392771 152.819185371 c 0
 1293.00392771 155.757484311 1293 158.816173536 1293 162 c 2
 1293 245 l 1
 913 245 l 1
 897 258 889 275 889 298 c 1
 892 307 912 338 949 390 c 128
 1044.61439618 525.331145369 1202.19649915 781.196499153 1303 882 c 1
 1357 882 l 2
 1401 882 1413 877 1413 836 c 2
 1413 322 l 1
 1583 322 l 1
 1583 289 l 2
 1583 249 1572 245 1535 245 c 2
 1413 245 l 1
 1413 163 l 2
 1413 92.1752350209 1413.42685639 83 1484 83 c 2
 1538 83 l 1
 1538 0 l 1
 1482 8 1423 12 1360 12 c 128
 1297 12 1232 8 1167 0 c 1
 1167 83 l 1
 1221 83 l 2
245 650 m 2
 300.142030401 650 302.009863716 674.61383307 302.009863716 719.009782678 c 0
 302.009863716 722.236007124 302 725.566697629 302 729 c 2
 302 1330 l 1
 286 1342 271 1348 257 1348 c 128
 243 1348 227 1347 209 1345 c 1
 151 1334 l 1
 140 1391 l 1
 214.207265802 1416.97254303 294.91350684 1458 390 1458 c 128
 408 1458 420 1452 427 1440 c 1
 427 731 l 2
 427 662.293898416 426.40345079 650 497 650 c 2
 552 650 l 1
 552 568 l 1
 494 576 434 580 370 580 c 128
 306 580 241 576 176 568 c 1
 176 650 l 1
 245 650 l 2
351 -25 m 1
 360 -9 623 490 1141 1472 c 1
 1195 1472 l 2
 1230 1472 1252 1466 1260 1453 c 1
 1252 1435 1235 1402 1210 1355 c 2
 473 -40 l 1
 408 -40 l 2
 378 -40 359 -35 351 -25 c 1
EndSplineSet
EndChar

StartChar: onehalf
Encoding: 189 189 130
Width: 1797
GlyphClass: 2
Flags: HW
LayerCount: 2
Fore
SplineSet
1059 729 m 1
 1073.77331114 833.756206269 1196.29563185 892 1350 892 c 128
 1508 892 1619 805 1620 654 c 128
 1620 582 1590 507 1527 428 c 0
 1470 356 1353 243 1178 88 c 1
 1421 88 l 2
 1514 88 1578 128 1612 208 c 1
 1651 201 l 1
 1651 123 1648 62 1643 17 c 1
 1591 0 1474 0 1405 0 c 2
 1098 0 l 2
 1068 0 1049 10 1041 31 c 1
 1041 38 1044 55 1049 82 c 1
 1266 295 1396 435 1441 503 c 0
 1476 556 1493 608 1493 660 c 0
 1493 765 1446 817 1351 817 c 0
 1350.18436838 817.008075561 1349.36964977 817.012107811 1348.55587472 817.012107811 c 0
 1248.59954792 817.012107811 1162.87886659 756.176292824 1148 655 c 1
 1059 729 l 1
245 650 m 2
 300.142030401 650 302.009863716 674.61383307 302.009863716 719.009782678 c 0
 302.009863716 722.236007124 302 725.566697629 302 729 c 2
 302 1330 l 1
 286 1342 271 1348 257 1348 c 128
 243 1348 227 1347 209 1345 c 1
 151 1334 l 1
 140 1391 l 1
 214.207265802 1416.97254303 294.91350684 1458 390 1458 c 128
 408 1458 420 1452 427 1440 c 1
 427 731 l 2
 427 662.293898416 426.40345079 650 497 650 c 2
 552 650 l 1
 552 568 l 1
 494 576 434 580 370 580 c 128
 306 580 241 576 176 568 c 1
 176 650 l 1
 245 650 l 2
1210 1472 m 2
 1245 1472 1266 1466 1275 1453 c 1
 1259 1420 1241 1389 1224 1355 c 2
 487 -40 l 1
 422 -40 l 2
 393 -40 374 -35 366 -25 c 1
 393.420878013 57.2626340396 413.999329204 65.4017135666 504 236 c 1
 587 391 804 803 1155 1472 c 1
 1210 1472 l 2
EndSplineSet
EndChar

StartChar: threequarters
Encoding: 190 190 131
Width: 1830
GlyphClass: 2
Flags: HW
LayerCount: 2
Fore
SplineSet
701 1248 m 1
 699.565501743 1143.28162723 600.841776013 1062.47812023 485 1036 c 1
 650 1015 732 939 732 810 c 0
 732 647 603 557 433 557 c 0
 430.908533185 556.970121903 428.816577427 556.955273369 426.724587686 556.955273369 c 0
 299.492680411 556.955273369 172.135068667 611.878561166 147 681 c 1
 150 704 l 2
 155 741 159 773 167 819 c 1
 234 807 l 1
 234 703 305 633 406 633 c 128
 533 633 609 698 609 817 c 0
 609 932 522 990 347 990 c 2
 322 990 l 1
 322 1027 l 2
 322 1041 324 1053 328 1062 c 1
 362 1062 l 2
 474.505020121 1062 582 1136.01438736 582 1242 c 128
 582 1347.66620836 512.301512375 1392.59848359 434.930968304 1392.59848359 c 0
 346.154574684 1392.59848359 247.277387739 1333.4420333 232 1239 c 1
 150 1306 l 1
 162.992551021 1400.66001458 283.057118169 1468 394 1468 c 128
 562 1468 701 1401 701 1248 c 1
1439 322 m 1
 1439 701 l 1
 1437 730 l 1
 1162 342 l 1
 1151 322 l 1
 1439 322 l 1
1367 83 m 2
 1437.36298509 83 1439.00392771 92.7609233359 1439.00392771 152.819185371 c 0
 1439.00392771 155.757484311 1439 158.816173536 1439 162 c 2
 1439 245 l 1
 1059 245 l 1
 1043 258 1035 275 1035 298 c 1
 1038 307 1058 338 1095 390 c 128
 1190.61439618 525.331145369 1348.19649915 781.196499153 1449 882 c 1
 1503 882 l 2
 1547 882 1559 877 1559 836 c 2
 1559 322 l 1
 1729 322 l 1
 1729 289 l 2
 1729 249 1718 245 1681 245 c 2
 1559 245 l 1
 1559 163 l 2
 1559 92.1752350209 1559.42685639 83 1630 83 c 2
 1684 83 l 1
 1684 0 l 1
 1628 8 1569 12 1506 12 c 128
 1443 12 1378 8 1313 0 c 1
 1313 83 l 1
 1367 83 l 2
1343 1472 m 2
 1378 1472 1399 1466 1407 1453 c 1
 1398 1434 1380 1398 1353 1347 c 2
 620 -40 l 1
 555 -40 l 2
 526 -40 507 -35 497 -25 c 1
 516 11 534 47 556 84 c 1
 1288 1472 l 1
 1343 1472 l 2
EndSplineSet
EndChar

StartChar: AE
Encoding: 198 198 139
Width: 2265
GlyphClass: 2
Flags: HW
LayerCount: 2
Fore
SplineSet
1084 526 m 1
 949 1231 l 1
 580 526 l 1
 1084 526 l 1
1048 126 m 2
 1061.38325452 126 1074.88257417 125.620652507 1087.48423476 125.620652507 c 0
 1122.13580347 125.620652507 1150 128.488971592 1150 150 c 2
 1150 168 l 2
 1150 191 1146 221 1139 256 c 2
 1106 423 l 1
 531 423 l 1
 452 259 l 2
 425 202 412 164 412 144 c 0
 412 132 434 126 479 126 c 2
 526 126 l 1
 496 -14 l 1
 441.102820936 -3.7740548803 349.997209189 2.97588070175 251.524894196 2.97588070175 c 0
 167.033780091 2.97588070175 77.1193244742 -1.99339858486 0 -14 c 1
 51 126 l 1
 97 126 l 2
 140 126 172 129 193 135 c 1
 213 158 240 198 273 256 c 1
 358.496685013 431.614812458 569.189770941 797.036307376 630 913 c 2
 909 1437 l 1
 1805 1437 l 1
 1879 1268 1919 1170 1925 1144 c 1
 1779 1138 l 1
 1760 1188 l 2
 1747 1224 1732 1255 1716 1282 c 1
 1669 1301 1568 1310 1414 1310 c 2
 1376 1310 l 2
 1312 1310 1213 1307 1147 1306 c 1
 1259 799 l 1
 1599 799 l 2
 1678 799 1692 830 1696 910 c 1
 1748 910 l 1
 1775 785 1797 667 1814 555 c 1
 1751 555 l 1
 1704.86911628 634.536006406 1686.82046231 679 1593 679 c 2
 1286 679 l 1
 1410 126 l 1
 1866 126 l 2
 1967.83677269 126 2008 127.217270905 2008 210 c 128
 2008 233 2004 272 1997 327 c 1
 2124 325 l 1
 2146 209 l 2
 2164 114 2175 52 2179 21 c 1
 2106 -2 1978 -14 1795 -14 c 1
 1330 0 l 1
 1202 0 1101 -5 1026 -14 c 1
 1026 126 l 1
 1048 126 l 2
EndSplineSet
EndChar

StartChar: Eth
Encoding: 208 208 149
Width: 1650
GlyphClass: 2
Flags: HW
LayerCount: 2
Fore
SplineSet
1268 715 m 0
 1268 1131.35968655 1142.5206847 1316 741 1316 c 1
 522 1313 l 1
 522 793 l 1
 853 793 l 1
 853 738 l 2
 853 703 840 682 815 675 c 1
 523 675 l 1
 523 129 l 1
 582 124 651 122 729 122 c 128
 1109 122 1268 321 1268 715 c 0
721 1442 m 0
 1250.48913481 1442 1505.54303271 1239.79306127 1507 708 c 1
 1507 232 1229 0 732 0 c 2
 289 0 l 2
 207 0 195 9 195 89 c 1
 275 133 304 158 304 270 c 2
 304 675 l 1
 86 675 l 1
 86 730 l 2
 86 788 107 793 163 793 c 2
 304 793 l 1
 304 1184 l 2
 304 1185.87543673 304.000325387 1187.72245464 304.000325387 1189.54147104 c 0
 304.000325387 1289.82122246 303.01142218 1305 192 1305 c 1
 84 1303 l 1
 84 1396 l 1
 302 1427 514 1442 721 1442 c 0
EndSplineSet
EndChar

StartChar: multiply
Encoding: 215 215 156
Width: 1229
GlyphClass: 2
Flags: HW
LayerCount: 2
Fore
SplineSet
158 1025 m 1
 186.902901342 1053.90290134 214.578695528 1092 252 1092 c 2
 272 1092 l 2
 275 1092 278 1092 281 1091 c 1
 614 757 l 1
 977 1120 l 1
 1024 1073 1051 1042 1059 1026 c 1
 1050 1009 1037 991 1018 972 c 2
 709 662 l 1
 1071 299 l 1
 1026 256 l 2
 1004.79407053 235.910172079 989.884306173 224.785077988 974.8330012 224.785077988 c 0
 960.055859277 224.785077988 945.142286163 235.50857093 924 259 c 1
 614 568 l 1
 252 206 l 1
 207 250 l 2
 184 273 172 288 169 297 c 1
 178 316 191 334 210 353 c 2
 520 662 l 1
 158 1025 l 1
EndSplineSet
EndChar

StartChar: Oslash
Encoding: 216 216 157
Width: 1520
GlyphClass: 2
Flags: HW
LayerCount: 2
Fore
SplineSet
763 85 m 128
 1105.18071303 85 1210 342.777071259 1210 692 c 128
 1210 887 1182 1036 1126 1139 c 1
 545 156 l 1
 608 109 681 85 763 85 c 128
784 1337 m 0
 484.342115828 1335.5593371 356 1070.49997901 356 711 c 0
 356 512 390 359 459 252 c 1
 1044 1244 l 1
 976 1306 889 1337 784 1337 c 0
1450 675 m 128
 1450 253.838061027 1190.38439984 -37 784 -37 c 0
 674 -37 581 -20 506 14 c 2
 471 30 l 1
 394 -100 l 1
 340 -92 291 -89 279 -46 c 1
 288 -29 301 -11 316 10 c 1
 366 95 l 1
 199 235 115 441 115 714 c 0
 115 1169 351 1458 800 1458 c 0
 914 1458 1022 1431 1124 1378 c 1
 1209 1523 l 1
 1260 1515 1311 1511 1323 1471 c 1
 1308 1452 1301 1436 1289 1415 c 2
 1225 1307 l 1
 1380 1181 1450 972 1450 675 c 128
EndSplineSet
EndChar

StartChar: Thorn
Encoding: 222 222 163
Width: 1293
GlyphClass: 2
Flags: HW
LayerCount: 2
Fore
SplineSet
1052 779 m 0
 1052 998 935 1065 706 1065 c 0
 634 1065 577 1063 535 1060 c 1
 535 497 l 1
 576 496 630 495 694 495 c 128
 910 495 1052 567 1052 779 c 0
734 1201 m 128
 1055.17304179 1201 1276 1097.18174132 1276 780 c 0
 1276 491 1054 371 746 371 c 2
 669 371 l 2
 623 371 578 373 535 376 c 1
 535 250 l 2
 535 200 540 159 550 126 c 1
 572 120 606 117 653 117 c 2
 743 117 l 1
 743 -19 l 1
 642 -6 539 0 436 0 c 128
 333 0 224 -6 110 -19 c 1
 110 117 l 1
 199 117 l 2
 316.647642312 117 318.000750074 130.844403605 318.000750074 239.189093255 c 0
 318.000750074 241.739993215 318 244.343277906 318 247 c 2
 317 1197 l 2
 317 1246 312 1286 301 1317 c 1
 281 1324 247 1328 198 1328 c 2
 108 1328 l 1
 108 1430 l 1
 183 1439 294 1443 441 1443 c 128
 588 1443 689 1438 744 1428 c 1
 744 1328 l 1
 652 1328 l 2
 605 1328 570 1324 549 1317 c 1
 540 1281 535 1241 535 1198 c 1
 593 1200 659 1201 734 1201 c 128
EndSplineSet
EndChar

StartChar: germandbls
Encoding: 223 223 164
Width: 1325
GlyphClass: 2
Flags: HW
LayerCount: 2
Fore
SplineSet
711 1564 m 0
 975.645289616 1564 1151.57907618 1434.7496952 1151.57907618 1174.03649882 c 0
 1151.57907618 1092.72987801 1127.30620584 1017.61702824 1078 974 c 1
 1044 981 1010 985 978 985 c 128
 878 985 778 939 778 851 c 128
 778 569.76618805 1286 631.461742295 1286 328 c 128
 1286 87.1695521968 1117.48445846 -22 886 -22 c 0
 793.387522795 -22 566 29.053971244 566 72 c 0
 566 85 583 151 616 269 c 1
 705 242 l 1
 742.851242698 149.840452562 794.180399975 85 892 85 c 128
 1009.3803639 85 1088 148.201406176 1088 252 c 128
 1088 480.22715645 748.948304735 489.567203844 644 626 c 0
 608 673 590 733 590 806 c 0
 590 953 694 1041 902 1071 c 1
 935 1116 952 1161 952 1206 c 128
 952 1367 866 1468 714 1469 c 1
 517.570978355 1469 431 1282.73116981 431 1041 c 2
 431 277 l 1
 437 69 l 1
 437 11 396 -18 313 -18 c 0
 202 -18 113 -10 47 7 c 1
 57 90 l 1
 117 90 l 2
 205.20313618 90 218 132.538839651 218 227 c 2
 218 959 l 2
 218 958 212 958 201 958 c 2
 106 958 l 1
 106 1008 114 1019 161 1019 c 1
 218 1017 l 1
 218 1342 394 1564 711 1564 c 0
EndSplineSet
EndChar

StartChar: ae
Encoding: 230 230 171
Width: 1828
GlyphClass: 2
Flags: HW
LayerCount: 2
Fore
SplineSet
317 284 m 128
 317 160 382 93 501 93 c 0
 578 93 663 130 754 205 c 1
 765 301 770 396 770 489 c 1
 612 489 l 2
 448 489 317 435 317 284 c 128
1511 621 m 1
 1509.76654387 810.952243937 1443.19141644 958 1266 958 c 0
 1092 958 999 840 987 604 c 1
 1509 604 l 1
 1510 607 1511 609 1511 612 c 2
 1511 621 l 1
578 965 m 0
 434.816164631 965 333.139184194 870.45053155 269 755 c 1
 130 843 l 1
 155 994 375 1068 566 1068 c 0
 737 1068 854 1021 919 927 c 1
 1013 1021 1140 1068 1300 1068 c 0
 1550 1068 1726 907 1726 659 c 0
 1726 530 1699 487 1574 487 c 2
 988 487 l 1
 1001 248 1112 93 1350 93 c 128
 1458 93 1547 130 1618 205 c 1
 1704 167 l 1
 1633 37 1495 -28 1291 -28 c 128
 1087 -28 941 46 852 195 c 1
 722.823485714 130.411742857 638.811493887 -28 440 -28 c 128
 234 -28 102 73 102 271 c 0
 102 492 276 603 623 603 c 2
 770 603 l 1
 770 671 l 2
 770 849.471606798 740.507301451 965.025456691 582.098173152 965.025456691 c 0
 580.741590785 965.025456691 579.375553882 965.016982147 578 965 c 0
EndSplineSet
EndChar

StartChar: eth
Encoding: 240 240 181
Width: 1309
GlyphClass: 2
Flags: HW
LayerCount: 2
Fore
SplineSet
940 554 m 0
 940 781.321774926 830.196604168 914 639 914 c 0
 454 914 362 779 362 508 c 0
 362 256.109365736 434.516123826 82 672 82 c 128
 885.306445626 82 940 322.211636549 940 554 c 0
1161 648 m 128
 1161 269.876236541 1009.11607173 -29 639 -29 c 0
 329 -29 133 192 133 506 c 1
 132 810 335 1021 639 1021 c 0
 751 1021 846 989 925 925 c 1
 889 1091 813 1218 698 1305 c 1
 452 1161 l 1
 424 1197 l 2
 415 1208 403 1217 400 1231 c 1
 409 1246 424 1260 445 1272 c 2
 609 1368 l 1
 517 1424 418 1459 313 1474 c 1
 365 1562 l 1
 514 1551 643 1515 753 1453 c 1
 986 1592 l 1
 1014 1556 l 1
 1020 1544 1029 1534 1035 1522 c 1
 1021 1499 957 1456 844 1395 c 1
 1037.57953788 1244.85176869 1161 987.871774227 1161 648 c 128
EndSplineSet
EndChar

StartChar: oslash
Encoding: 248 248 189
Width: 1182
GlyphClass: 2
Flags: HW
LayerCount: 2
Fore
SplineSet
640 86 m 128
 901 86 943 284 943 555 c 128
 943 651 926 736 893 810 c 1
 502 114 l 1
 539 95 585 86 640 86 c 128
660 960 m 128
 400.211548212 960 342 789.381890152 342 514 c 128
 342 362 368 251 421 183 c 1
 824 902 l 1
 779 941 725 960 660 960 c 128
118.296780763 535.213994403 m 0
 118.296780763 841.42371315 329.653634549 1068 643 1068 c 0
 732 1068 813 1050 888 1015 c 1
 992 1200 l 1
 1036 1189 l 1
 1069 1185 1087 1174 1091 1155 c 1
 1078 1133 1066 1113 1053 1096 c 1
 977 960 l 1
 1107 860 1172 713 1172 518 c 0
 1172 197 963 -28 643 -28 c 0
 570 -28 502 -17 441 6 c 1
 344 -167 l 1
 299 -156 l 1
 268 -152 250 -140 246 -121 c 1
 255 -105 267 -86 283 -63 c 1
 347 51 l 1
 202.084227702 141.927543403 118.296780763 339.430759691 118.296780763 535.213994403 c 0
EndSplineSet
EndChar

StartChar: thorn
Encoding: 254 254 195
Width: 1359
GlyphClass: 2
Flags: HW
LayerCount: 2
Fore
SplineSet
369 1569 m 0
 446.563661593 1569 429.017776732 1542.81038152 435 1479 c 1
 435 913 l 1
 534 1016 654 1068 793 1068 c 0
 1076 1068 1216 844 1216 547 c 0
 1216 241.996981924 1046.32349331 -24 756 -24 c 128
 630 -24 522 1 433 51 c 1
 433 -172 l 2
 432.861288268 -183.096938527 432.777402709 -193.717638363 432.777402709 -203.88784123 c 0
 432.777402709 -334.090584224 446.526311804 -390.456520093 535 -427 c 1
 535 -469 l 1
 472 -482 402 -488 325 -488 c 128
 248 -488 178 -482 115 -469 c 1
 115 -427 l 1
 209.944600871 -389.022159652 222 -304.712835531 222 -172 c 2
 221 1339 l 2
 221 1375 218 1409 213 1441 c 1
 185 1450 156 1455 126 1455 c 2
 30 1455 l 1
 30 1542 l 1
 107 1560 220 1569 369 1569 c 0
714 84 m 128
 922.7535927 84 990 314.220163167 990 540 c 0
 990 813 907 950 741 950 c 0
 639 950 543 908 454 825 c 1
 440 725 433 609 433 478 c 128
 433 347 435 232 439 133 c 1
 457.275080178 107.414887751 610.295865886 84 714 84 c 128
EndSplineSet
EndChar

StartChar: Dcroat
Encoding: 272 272 207
Width: 1618
GlyphClass: 2
Flags: HW
LayerCount: 2
Fore
SplineSet
1261 716 m 0
 1261 1121.54674422 1141.48010353 1314 753 1314 c 1
 515 1310 l 1
 515 804 l 1
 699 804 l 1
 699 752 l 2
 699 710 683 683 651 672 c 1
 515 672 l 1
 515 126 l 1
 532 125 549 124 566 124 c 2
 616 124 l 2
 1066.82474333 124 1261.01523777 271.516273022 1261.01523777 709.259109256 c 0
 1261.01523777 711.498471122 1261.01015573 713.745428334 1261 716 c 0
781 1453 m 0
 781.990015841 1453.00200003 782.978943646 1453.00300003 783.966783825 1453.00300003 c 0
 1277.94568897 1453.00300003 1501.00726866 1202.39768825 1501.00726866 705.48745573 c 0
 1501.00726866 71.8366837539 1069.40707954 7.1054273576e-14 426 0 c 128
 334 0 222 -5 91 -14 c 1
 91 127 l 1
 181 127 l 2
 231 127 265 130 284 136 c 1
 294 166 299 206 299 257 c 2
 299 672 l 1
 118 672 l 1
 118 742 l 2
 118 799 144 804 200 804 c 2
 299 804 l 1
 299 1145 l 2
 299 1199 294 1247 284 1288 c 1
 264 1295 230 1299 181 1299 c 2
 78 1299 l 1
 78 1416 l 1
 275 1441 510 1453 781 1453 c 0
EndSplineSet
EndChar

StartChar: dcroat
Encoding: 273 273 208
Width: 1339
GlyphClass: 2
Flags: HW
LayerCount: 2
Fore
SplineSet
623 101 m 0
 623.919446606 100.991073334 624.837159905 100.986619955 625.753133833 100.986619955 c 0
 766.771553453 100.986619955 866.563345083 206.540711314 903 345 c 1
 903 542 899 707 891 838 c 1
 840.667411639 893.803521879 749.0233518 947.302841329 641.943216583 947.302841329 c 0
 637.323515861 947.302841329 632.675084403 947.203264539 628 947 c 0
 437 947 342 806 342 524 c 128
 342 242 436 101 623 101 c 0
1061.39840537 -12.3182515186 m 0
 1059.21624641 -12.3182515186 1057.05600258 -12.3188109115 1054.91775065 -12.3188109115 c 0
 961.558574069 -12.3188109115 910.12303042 -11.2524278114 907 84 c 1
 907 132 l 1
 825 28 708 -24 557 -24 c 0
 269 -24 114 205 113 503 c 1
 113.997982443 823.352364202 254.4316188 1070.00302562 558.155937849 1070.00302562 c 0
 558.769957796 1070.00302562 559.384645114 1070.00201756 560 1070 c 128
 698 1070 811 1025 900 936 c 1
 900 1187 l 1
 714 1187 l 1
 714 1257 l 2
 714 1314 740 1319 796 1319 c 2
 900 1319 l 1
 900 1354 l 2
 900 1389 898 1418 893 1441 c 1
 864 1450 835 1455 806 1455 c 2
 709 1455 l 1
 709 1542 l 1
 786 1560 899 1569 1048 1569 c 0
 1108.21851671 1569 1113.19513064 1560.72903376 1113.19513064 1516.62710859 c 0
 1113.19513064 1507.89431265 1113 1497.75660201 1113 1486 c 2
 1113 1319 l 1
 1295 1319 l 1
 1295 1267 l 2
 1295 1225 1279 1198 1247 1187 c 1
 1113 1187 l 1
 1113 269 l 2
 1113 206 1119 150 1130 101 c 1
 1303 101 l 1
 1303 15 l 1
 1230.62976285 -2.8980156402 1149.78174593 -12.3182515186 1061.39840537 -12.3182515186 c 0
EndSplineSet
EndChar

StartChar: hbar
Encoding: 295 295 213
Width: 1356
GlyphClass: 2
Flags: HW
LayerCount: 2
Fore
SplineSet
751 946 m 0
 625.781656564 946 456.053241116 852.399308369 442 747 c 1
 442 226 l 2
 442 102.815768331 455.499459634 88.1161582731 562 71 c 1
 570 -13 l 1
 478.5 -5.5 393.75 -1.75 315.5 -1.75 c 0
 237.25 -1.75 165.5 -5.5 100 -13 c 1
 104 71 l 1
 214 85 228 98 228 200 c 2
 228 1150 l 1
 43 1150 l 1
 43 1273 l 1
 228 1273 l 1
 228 1353 l 2
 228 1390 225 1420 220 1441 c 1
 193 1450 165 1455 135 1455 c 2
 37 1455 l 1
 37 1542 l 1
 113 1561 219 1570 355 1570 c 0
 440 1570 442 1559 442 1475 c 2
 442 1273 l 1
 630 1273 l 1
 630 1150 l 1
 442 1150 l 1
 442 918 l 1
 529 1000 665 1061 826 1061 c 0
 1042 1061 1135 960 1135 745 c 2
 1135 269 l 2
 1135 206 1141 150 1152 101 c 1
 1305 101 l 1
 1305 12 l 1
 1244 -5 1156 -13 1041 -13 c 0
 957 -13 915 16 915 73 c 1
 921 281 l 1
 921 644 l 2
 921 833.211026357 910.373186982 946 751 946 c 0
EndSplineSet
EndChar

StartChar: dotlessi
Encoding: 305 305 216
Width: 655
GlyphClass: 2
Flags: HW
LayerCount: 2
Fore
SplineSet
237 839 m 2
 237 922.042255437 226.316868242 940 143 940 c 2
 47 940 l 1
 47 1026 l 1
 127 1044 231 1053 359 1053 c 0
 408 1053 434 1053 450 1026 c 1
 450 227 l 2
 450 132.035628113 462.555528785 90 552 90 c 2
 610 90 l 1
 621 7 l 1
 557 -9 469 -17 356 -17 c 0
 272 -17 230 12 230 69 c 1
 237 277 l 1
 237 839 l 2
EndSplineSet
EndChar

StartChar: kgreenlandic
Encoding: 312 312 222
Width: 1245
GlyphClass: 2
Flags: HW
LayerCount: 2
Fore
SplineSet
389 1056 m 1
 429 1029 439 1001 439 940 c 2
 439 523 l 1
 703 778 l 2
 779 851 817 897 818 918 c 0
 818 930 805 936 780 936 c 1
 780 1032 l 1
 1213 1032 l 1
 1213 936 l 1
 1175 936 l 2
 1124 936 1048 907 1009 872 c 2
 666 566 l 1
 1036 145 l 2
 1063 113 1130 81 1200 81 c 128
 1213 81 1223 82 1231 84 c 1
 1244 -14 l 1
 1166.79602256 -5.25021588963 1085.35349995 -0.738976940672 999.808779076 -0.738976940672 c 0
 919.148227167 -0.738976940672 834.840533884 -4.74978411037 747 -13 c 1
 747 75 l 1
 770 75 796 72 796 92 c 1
 783 113 762 142 731 179 c 2
 492 470 l 1
 439 432 l 1
 439 226 l 2
 439 103.430169346 452.922099683 89.0482339795 559 72 c 1
 564 -13 l 1
 477.5 -5.5 395.25 -1.75 317.5 -1.75 c 0
 239.75 -1.75 166.5 -5.5 98 -13 c 1
 101 72 l 1
 211 86 225 99 225 201 c 2
 225 821 l 2
 225 863 222 897 217 924 c 1
 190 933 162 938 131 938 c 2
 34 938 l 1
 34 1025 l 1
 99 1039 218 1049 389 1056 c 1
EndSplineSet
EndChar

StartChar: Lslash
Encoding: 321 321 229
Width: 1341
GlyphClass: 2
Flags: HW
LayerCount: 2
Fore
SplineSet
887 126 m 2
 1078.23304832 126 1119.10508762 167.420350471 1159 327 c 1
 1245 315 l 1
 1208 0 l 1
 1071 -9 956 -14 862 -14 c 128
 672 -14 532 0 343 0 c 128
 251 0 163 -5 79 -14 c 1
 79 126 l 1
 168 126 l 2
 285.647642312 126 287.000750074 142.153298392 287.000750074 248.348425821 c 0
 287.000750074 250.848715842 287 253.398919118 287 256 c 2
 287 523 l 1
 82 396 l 1
 82 544 l 1
 287 671 l 1
 287 1181 l 2
 287 1230 282 1270 271 1301 c 1
 251 1308 217 1312 168 1312 c 2
 78 1312 l 1
 78 1422 l 1
 164 1432 278 1437 420 1437 c 128
 562 1437 661 1432 716 1422 c 1
 716 1312 l 1
 623 1312 l 2
 576 1312 541 1308 520 1301 c 1
 511 1270 506 1230 506 1181 c 2
 506 808 l 1
 883 1043 l 1
 883 894 l 1
 506 659 l 1
 506 126 l 1
 887 126 l 2
EndSplineSet
EndChar

StartChar: lslash
Encoding: 322 322 230
Width: 666
GlyphClass: 2
Flags: HW
LayerCount: 2
Fore
SplineSet
212 73 m 1
 219 281 l 1
 219 713 l 1
 42 601 l 1
 42 732 l 1
 219 845 l 1
 219 1339 l 2
 219 1378 216 1412 210 1441 c 1
 183 1450 154 1455 123 1455 c 2
 27 1455 l 1
 27 1542 l 1
 110 1560 208 1569 323 1569 c 0
 380 1569 416 1560 430 1543 c 1
 430 979 l 1
 604 1090 l 1
 604 957 l 1
 430 846 l 1
 430 269 l 2
 430 206 436 150 447 101 c 1
 611 101 l 1
 611 11 l 1
 544 -5 453 -13 338 -13 c 0
 254 -13 212 16 212 73 c 1
EndSplineSet
EndChar

StartChar: OE
Encoding: 338 338 237
Width: 2158
GlyphClass: 2
Flags: HW
LayerCount: 2
Fore
SplineSet
784 1337 m 0
 484.342115828 1335.5593371 356 1070.49997901 356 711 c 0
 356 358 460 87 787 87 c 128
 932 87 1044 99 1122 122 c 1
 1122 1310 l 1
 1049 1328 936 1337 784 1337 c 0
756 -37 m 128
 333.323251805 -37 115 290.086464573 115 714 c 0
 115 1160 349 1458 784 1458 c 0
 907 1458 1015 1437 1122 1437 c 2
 2028 1437 l 1
 2055 1308 l 2
 2066 1251 2076 1207 2082 1144 c 1
 1935 1138 l 1
 1927 1188 l 2
 1920 1227 1912 1258 1904 1282 c 1
 1863 1301 1778 1310 1647 1310 c 0
 1628 1310 1526 1308 1339 1303 c 1
 1339 799 l 1
 1679 799 l 2
 1763.82065944 799 1778.44458534 834.556048695 1800 910 c 1
 1852 910 l 1
 1852 790 1848 672 1839 555 c 1
 1776 555 l 1
 1749.49063505 637.841765469 1731.92963758 679 1646 679 c 2
 1339 679 l 1
 1339 126 l 1
 1795 126 l 2
 1961.57637157 126 1957.42781523 167.752326283 1970 327 c 1
 2094 325 l 1
 2094 209 l 2
 2094 164 2091 101 2084 21 c 1
 1978 -11 1823 -14 1693 -14 c 1
 1231 0 l 1
 1095.9656772 0 868.383847078 -37 756 -37 c 128
EndSplineSet
EndChar

StartChar: oe
Encoding: 339 339 238
Width: 1853
GlyphClass: 2
Flags: HW
LayerCount: 2
Fore
SplineSet
1553 668 m 128
 1553 820 1473 958 1330 958 c 128
 1155 958 1097 791 1087 604 c 1
 1551 604 l 1
 1552 619 1553 640 1553 668 c 128
342 518 m 0
 342 273.830196098 398.758953516 73 610 73 c 0
 787 73 876 220 876 516 c 128
 876 812 787 960 609 960 c 128
 431 960 342 813 342 518 c 0
1088 488 m 1
 1098 260 1202 90 1428 90 c 128
 1530 90 1616 128 1685 205 c 1
 1769 167 l 1
 1697 33 1561 -34 1362 -34 c 0
 1205 -34 1077 25 980 142 c 1
 893 25 768 -34 607 -34 c 0
 293 -34 112 197 113 518 c 1
 112 835 301 1068 611 1068 c 0
 783 1068 908 1005 985 879 c 1
 1080 1005 1207 1068 1366 1068 c 0
 1607 1068 1768 900 1769 659 c 0
 1769 533 1745 488 1627 488 c 2
 1088 488 l 1
EndSplineSet
EndChar

StartChar: florin
Encoding: 402 402 266
Width: 828
GlyphClass: 2
Flags: HW
LayerCount: 2
Fore
SplineSet
822 1294 m 1
 803 1297 779 1298 750 1298 c 128
 599.89570493 1298 569.387334821 1170.01083193 543 1021 c 2
 501 785 l 1
 726 785 l 1
 706 674 l 1
 480 674 l 1
 370 87 l 1
 323.845072309 -148.902963755 265.590129294 -282 16 -282 c 0
 -17 -282 -50 -281 -82 -278 c 1
 -67 -160 l 1
 149.824331886 -160 172.009395483 -95.3402419386 212 122 c 2
 316 674 l 1
 112 674 l 1
 132 785 l 1
 337 785 l 1
 401 1121 l 1
 436 1314 540 1417 733 1421 c 1
 782 1421 819 1417 844 1408 c 1
 822 1294 l 1
EndSplineSet
EndChar

StartChar: dotlessj
Encoding: 567 567 295
Width: 865
GlyphClass: 2
Flags: HW
LayerCount: 2
Fore
SplineSet
434 842 m 2
 434 925.583531586 418.847135335 936 341 936 c 2
 244 936 l 1
 244 1032 l 1
 297 1045 369 1052 460 1052 c 128
 551 1052 613 1045 647 1032 c 1
 647 86 l 2
 647 -182 561 -374 314 -374 c 0
 233 -374 146 -360 55 -333 c 1
 102 -56 l 1
 142 -63 177 -69 208 -74 c 1
 208 -126 213 -181 222 -240 c 1
 278 -248 316 -252 336 -252 c 128
 428.397903647 -252 434.113958296 -89.9127399829 434.113958296 47.6983521995 c 0
 434.113958296 67.1285950461 434 86.0708680349 434 104 c 2
 434 842 l 2
EndSplineSet
EndChar

StartChar: circumflex
Encoding: 710 710 296
Width: 1229
GlyphClass: 2
Flags: HW
LayerCount: 2
Fore
SplineSet
940 1282 m 1
 932 1270 914 1264 887 1264 c 2
 806 1264 l 1
 616 1456 l 1
 422 1264 l 1
 345 1264 l 2
 316 1264 297 1270 289 1282 c 1
 296 1297 304 1309 311 1319 c 2
 515 1587 l 1
 714 1587 l 1
 919 1319 l 1
 930 1302 937 1289 940 1282 c 1
EndSplineSet
EndChar

StartChar: caron
Encoding: 711 711 297
Width: 1284
GlyphClass: 2
Flags: HW
LayerCount: 2
Fore
SplineSet
289 1589 m 1
 320 1598 348 1603 373 1603 c 128
 398 1603 420 1600 439 1593 c 1
 643 1385 l 1
 846 1593 l 1
 866 1600 885 1603 904 1603 c 0
 935 1603 965 1598 995 1589 c 1
 910 1485 830 1379 746 1275 c 1
 718 1244 684 1229 644 1229 c 0
 605 1229 574 1242 551 1268 c 1
 289 1589 l 1
EndSplineSet
EndChar

StartChar: uni02C9
Encoding: 713 713 298
Width: 591
GlyphClass: 2
Flags: HW
LayerCount: 2
Fore
SplineSet
2 1421 m 1
 589 1421 l 1
 589 1298 l 1
 2 1298 l 1
 2 1421 l 1
EndSplineSet
EndChar

StartChar: breve
Encoding: 728 728 299
Width: 1259
GlyphClass: 2
Flags: HW
LayerCount: 2
Fore
SplineSet
959 1559 m 1
 950 1391 811 1266 632 1266 c 128
 452 1266 312 1391 303 1559 c 1
 393 1596 l 1
 417 1468 496 1404 631 1404 c 128
 766 1404 845 1468 869 1596 c 1
 959 1559 l 1
EndSplineSet
EndChar

StartChar: dotaccent
Encoding: 729 729 300
Width: 706
GlyphClass: 2
Flags: HW
LayerCount: 2
Fore
SplineSet
342 1600 m 128
 432 1600 497 1558 497 1476 c 0
 497 1378 455 1329 371 1329 c 0
 276 1329 223 1373 223 1466 c 128
 223 1542 273 1600 342 1600 c 128
EndSplineSet
EndChar

StartChar: ring
Encoding: 730 730 301
Width: 655
GlyphClass: 2
Flags: HW
LayerCount: 2
Fore
SplineSet
324 1333 m 128
 402 1333 456 1381 456 1460 c 128
 456 1539 406 1589 328 1589 c 128
 250 1589 198 1539 198 1460 c 128
 198 1381 245 1333 324 1333 c 128
326 1685 m 128
 460 1685 559 1591 559 1459 c 0
 559 1321 458 1235 326 1235 c 0
 193 1235 94 1329 94 1460 c 128
 94 1591 193 1685 326 1685 c 128
EndSplineSet
EndChar

StartChar: ogonek
Encoding: 731 731 302
Width: 981
GlyphClass: 2
Flags: HW
LayerCount: 2
Fore
SplineSet
543 -436 m 0
 419.936567548 -436 352 -382.012213016 352 -281 c 0
 352 -167.300603581 489.636255222 -45.1662040155 615 24 c 1
 672 1 l 1
 569 -81 518 -158 518 -230 c 0
 518 -300 555 -330 627 -330 c 128
 646 -330 679 -321 724 -302 c 1
 737 -318 745 -343 748 -376 c 1
 692 -416 624 -436 543 -436 c 0
EndSplineSet
EndChar

StartChar: tilde
Encoding: 732 732 303
Width: 1229
GlyphClass: 2
Flags: HW
LayerCount: 2
Fore
SplineSet
767 1275 m 0
 677.391566907 1275 548.1589258 1383 452 1383 c 128
 385 1383 354 1329 323 1293 c 1
 286 1293 254 1302 225 1320 c 1
 286 1454 366 1521 467 1521 c 0
 543.046548739 1521 711.938051079 1414 784 1414 c 128
 823 1414 861 1444 899 1505 c 1
 934 1505 968 1496 1001 1477 c 1
 930 1342 852 1275 767 1275 c 0
EndSplineSet
EndChar

StartChar: hungarumlaut
Encoding: 733 733 304
Width: 1194
GlyphClass: 2
Flags: HW
LayerCount: 2
Fore
SplineSet
544 1265 m 1
 733 1587 l 1
 983 1587 l 1
 681 1264 l 1
 544 1265 l 1
209 1265 m 1
 397 1587 l 1
 648 1587 l 1
 345 1264 l 1
 209 1265 l 1
EndSplineSet
EndChar

StartChar: dotaccentcmb
Encoding: 775 775 305
Width: 641
GlyphClass: 2
Flags: HW
LayerCount: 2
Fore
SplineSet
458.834442192 97.988259761 m 0
 458.834442192 30.5403669933 416.021909118 -36.0131788941 323.791380849 -36.0131788941 c 0
 241.072044588 -36.0131788941 189 19.7210222578 189 101 c 128
 189 185 245 242 325 242 c 0
 411.569766977 242 458.834442192 169.119984786 458.834442192 97.988259761 c 0
EndSplineSet
EndChar

StartChar: uni030F
Encoding: 783 783 306
Width: 1272
GlyphClass: 2
Flags: HW
LayerCount: 2
Fore
SplineSet
1013 1265 m 1
 1010 1264 1003 1264 994 1264 c 2
 877 1264 l 1
 697 1449 596 1557 574 1587 c 1
 825 1587 l 1
 1013 1265 l 1
678 1265 m 1
 674 1264 667 1264 658 1264 c 2
 541 1264 l 1
 337 1475 290 1519 239 1587 c 1
 489 1587 l 1
 678 1265 l 1
EndSplineSet
EndChar

StartChar: uni0311
Encoding: 785 785 307
Width: 1259
GlyphClass: 2
Flags: HW
LayerCount: 2
Fore
SplineSet
303 1303 m 1
 312 1471 451 1596 630 1596 c 128
 810 1596 950 1471 959 1303 c 1
 869 1266 l 1
 845 1394 766 1458 631 1458 c 128
 496 1458 417 1394 393 1266 c 1
 303 1303 l 1
EndSplineSet
EndChar

StartChar: uni0326
Encoding: 806 806 308
Width: 556
GlyphClass: 2
Flags: HW
LayerCount: 2
Fore
SplineSet
89.1501315448 -200.868558325 m 0
 89.1501315448 -121.479018662 140.277515018 -76 229 -76 c 128
 314 -76 356 -113 356 -196 c 128
 356 -396.841672212 242.6168303 -540.685397239 127 -641 c 1
 106 -641 92 -635 83 -623 c 1
 70 -592 l 1
 125 -514 157 -424 166 -322 c 2
 169 -284 l 1
 112.348605115 -284 89.1501315448 -244.633110521 89.1501315448 -200.868558325 c 0
EndSplineSet
EndChar

StartChar: uni03BC
Encoding: 956 956 310
Width: 1311
GlyphClass: 2
Flags: HW
LayerCount: 2
Fore
SplineSet
1069 245 m 2
 1069 122.797546698 1081.88057746 89 1198 89 c 2
 1242 89 l 1
 1242 0 l 1
 902 0 l 1
 897 169 l 1
 893 169 l 1
 834 50 741 -26 580 -26 c 128
 512 -26 458 -12 419 15 c 1
 419 -457 l 1
 239 -457 l 1
 239 792 l 2
 239 876 218 913 142 913 c 2
 70 913 l 1
 70 1008 l 1
 218 1008 334 1014 419 1025 c 1
 419 381 l 2
 419 189.710772167 467.914956834 98 624 98 c 128
 802.713001976 98 881.31190652 260.750184615 883 438 c 1
 891 781 l 1
 891 881 859 913 769 913 c 2
 691 913 l 1
 691 1008 l 1
 902 1008 1028 1014 1069 1025 c 1
 1069 245 l 2
EndSplineSet
EndChar

StartChar: pi
Encoding: 960 960 311
Width: 1242
GlyphClass: 2
Flags: HW
LayerCount: 2
Fore
SplineSet
931 484 m 128
 931 430.243795345 927.919697372 370.439075541 927.919697372 314.095506685 c 0
 927.919697372 196.586710992 941.317865794 94.1326319754 1024 93 c 0
 1075 93 1100 125 1129 156 c 1
 1156 114 l 1
 1115 43 1042 -26 948 -26 c 128
 782.314385858 -26 754 78.4599049633 754 268 c 128
 754 386 762 551 776 763 c 1
 652 766 541 767 444 767 c 1
 444 729 l 2
 444 468.308607011 417.726543574 143.416644236 306 11 c 1
 256 -8 215 -21 182 -26 c 1
 169 11 l 1
 285.397373016 148.322743446 365 461.565025296 365 769 c 1
 221.46930281 769 177.091498747 738.909557149 95 674 c 1
 66 721 l 1
 156.119925919 811.119925919 224.704993425 904.858678085 411 907 c 1
 985 902 l 2
 1060.96991299 902 1078.65998877 921.812923336 1109 970 c 1
 1158 954 l 1
 1145 875 1120 813 1085 767 c 1
 1059 761 1012 758 943 758 c 1
 935 686 931 595 931 484 c 128
EndSplineSet
EndChar

StartChar: endash
Encoding: 8211 8211 312
Width: 990
GlyphClass: 2
Flags: HW
LayerCount: 2
Fore
SplineSet
1000 590 m 2
 1000 546 986 529 952 519 c 1
 -10 519 l 1
 -10 581 l 2
 -10 635.809919305 20.0412725425 651.399288347 71.7385597744 651.399288347 c 0
 76.6338979875 651.399288347 81.7234179604 651.259504035 87 651 c 2
 1000 651 l 1
 1000 590 l 2
EndSplineSet
EndChar

StartChar: emdash
Encoding: 8212 8212 313
Width: 1756
GlyphClass: 2
Flags: HW
LayerCount: 2
Fore
SplineSet
1766 590 m 2
 1766 546 1753 529 1719 519 c 1
 -10 519 l 1
 -10 581 l 2
 -10 635.809919305 20.0412725425 651.399288347 71.7385597744 651.399288347 c 0
 76.6338979875 651.399288347 81.7234179604 651.259504035 87 651 c 2
 1766 651 l 1
 1766 590 l 2
EndSplineSet
EndChar

StartChar: quoteleft
Encoding: 8216 8216 314
Width: 464
GlyphClass: 2
Flags: HW
LayerCount: 2
Fore
SplineSet
114.724414097 1136.03117836 m 0
 114.724414097 1316.28104484 240.837032321 1483.15709971 345 1564 c 1
 366 1564 385 1548 403 1516 c 1
 346 1444 312 1341 302 1208 c 1
 349 1208 384 1179 384 1122 c 128
 384 1050 333 1001 263 1001 c 128
 150.466290775 1001 114.724414097 1060.9545725 114.724414097 1136.03117836 c 0
EndSplineSet
EndChar

StartChar: quoteright
Encoding: 8217 8217 315
Width: 463
GlyphClass: 2
Flags: HW
LayerCount: 2
Fore
SplineSet
353.213801153 1428.40049956 m 0
 353.213801153 1248.28778336 227.580392576 1080.60597047 123 1001 c 1
 102 1001 83 1017 65 1049 c 1
 132 1137 156 1226 166 1357 c 1
 165.216230997 1356.98332406 164.435799037 1356.97499073 163.658810778 1356.97499073 c 0
 117.842417504 1356.97499073 84 1385.95052837 84 1442 c 128
 84 1514 135 1564 205 1564 c 128
 317.48807365 1564 353.213801153 1503.75428826 353.213801153 1428.40049956 c 0
EndSplineSet
EndChar

StartChar: quotesinglbase
Encoding: 8218 8218 316
Width: 462
GlyphClass: 2
Flags: HW
LayerCount: 2
Fore
SplineSet
199 243 m 128
 294.126333066 243 348.013646147 218.452964294 348.013646147 125.576339863 c 0
 348.013646147 -78.8691079186 232.651642886 -218.43136458 117 -322 c 1
 85 -322 76 -303 61 -273 c 1
 115 -198 148 -96 160 35 c 1
 111 36 76 73 76 114 c 128
 76 192 125 243 199 243 c 128
EndSplineSet
EndChar

StartChar: quotedblleft
Encoding: 8220 8220 317
Width: 861
GlyphClass: 2
Flags: HW
LayerCount: 2
Fore
SplineSet
104.724414097 1136.03117836 m 0
 104.724414097 1316.28104484 230.837032321 1483.15709971 335 1564 c 1
 356 1564 375 1548 393 1516 c 1
 336 1444 302 1341 292 1208 c 1
 339 1208 374 1179 374 1122 c 128
 374 1050 323 1001 253 1001 c 128
 140.466290775 1001 104.724414097 1060.9545725 104.724414097 1136.03117836 c 0
502.724414097 1136.03117836 m 0
 502.724414097 1316.28104484 628.837032321 1483.15709971 733 1564 c 1
 754 1564 773 1548 791 1516 c 1
 734 1444 700 1341 690 1208 c 1
 737 1208 772 1179 772 1122 c 128
 772 1050 721 1001 651 1001 c 128
 538.466290775 1001 502.724414097 1060.9545725 502.724414097 1136.03117836 c 0
EndSplineSet
EndChar

StartChar: quotedblright
Encoding: 8221 8221 318
Width: 860
GlyphClass: 2
Flags: HW
LayerCount: 2
Fore
SplineSet
791.213801153 1428.40049956 m 0
 791.213801153 1248.28778336 665.580392576 1080.60597047 561 1001 c 1
 540 1001 521 1017 503 1049 c 1
 570 1137 594 1226 604 1357 c 1
 603.216230997 1356.98332406 602.435799037 1356.97499073 601.658810778 1356.97499073 c 0
 555.842417504 1356.97499073 522 1385.95052837 522 1442 c 128
 522 1514 573 1564 643 1564 c 128
 755.48807365 1564 791.213801153 1503.75428826 791.213801153 1428.40049956 c 0
393.213801153 1428.40049956 m 0
 393.213801153 1248.28778336 267.580392576 1080.60597047 163 1001 c 1
 142 1001 123 1017 105 1049 c 1
 172 1137 196 1226 206 1357 c 1
 205.216230997 1356.98332406 204.435799037 1356.97499073 203.658810778 1356.97499073 c 0
 157.842417504 1356.97499073 124 1385.95052837 124 1442 c 128
 124 1514 175 1564 245 1564 c 128
 357.48807365 1564 393.213801153 1503.75428826 393.213801153 1428.40049956 c 0
EndSplineSet
EndChar

StartChar: quotedblbase
Encoding: 8222 8222 319
Width: 861
GlyphClass: 2
Flags: HW
LayerCount: 2
Fore
SplineSet
477.426735672 120.253291779 m 0
 477.426735672 193.643981487 539.558421477 247.110042472 609.504299444 247.110042472 c 0
 679.682457398 247.110042472 746 196.883276113 746 127 c 0
 746 -35 669 -185 515 -322 c 1
 495 -322 476 -306 459 -273 c 1
 513 -196 546 -94 558 35 c 1
 501.711202647 35 477.426735672 75.7327841177 477.426735672 120.253291779 c 0
347 131 m 0
 347 -42.4677085626 240.345292626 -215.441196745 118 -322 c 1
 86 -322 77 -303 61 -273 c 1
 124 -190 157 -87 160 35 c 1
 112 37 77 74 77 114 c 128
 77 203 128 243 219 243 c 0
 304 243 347 206 347 131 c 0
EndSplineSet
EndChar

StartChar: dagger
Encoding: 8224 8224 320
Width: 927
GlyphClass: 2
Flags: HW
LayerCount: 2
Fore
SplineSet
72 1068 m 1
 383 1068 l 1
 383 1387 l 1
 545 1387 l 1
 545 1068 l 1
 855 1068 l 1
 855 957 l 1
 545 957 l 1
 545 0 l 1
 383 0 l 1
 383 957 l 1
 72 957 l 1
 72 1068 l 1
EndSplineSet
EndChar

StartChar: daggerdbl
Encoding: 8225 8225 321
Width: 927
GlyphClass: 2
Flags: HW
LayerCount: 2
Fore
SplineSet
72 1106 m 1
 383 1106 l 1
 383 1387 l 1
 545 1387 l 1
 545 1106 l 1
 855 1106 l 1
 855 995 l 1
 545 995 l 1
 545 392 l 1
 855 392 l 1
 855 280 l 1
 545 280 l 1
 545 0 l 1
 383 0 l 1
 383 280 l 1
 72 280 l 1
 72 392 l 1
 383 392 l 1
 383 995 l 1
 72 995 l 1
 72 1106 l 1
EndSplineSet
EndChar

StartChar: bullet
Encoding: 8226 8226 322
Width: 750
GlyphClass: 2
Flags: HW
LayerCount: 2
Fore
SplineSet
374 365 m 128
 217.184513219 365 100 482.650554469 100 638 c 128
 100 796.359483853 215.761090947 913 374 913 c 128
 531.773436934 913 650 795.125487706 650 638 c 128
 650 479.653068705 531.314249499 365 374 365 c 128
EndSplineSet
EndChar

StartChar: ellipsis
Encoding: 8230 8230 323
Width: 1988
GlyphClass: 2
Flags: HW
LayerCount: 2
Fore
SplineSet
1824 106 m 128
 1824 18 1783 -26 1702 -26 c 128
 1621 -26 1581 18 1581 106 c 128
 1581 194 1621 238 1702 238 c 128
 1783 238 1824 194 1824 106 c 128
1115 106 m 128
 1115 18 1075 -26 994 -26 c 128
 913 -26 872 18 872 106 c 128
 872 194 913 238 994 238 c 128
 1075 238 1115 194 1115 106 c 128
407 106 m 128
 407 18 367 -26 286 -26 c 128
 205 -26 164 18 164 106 c 128
 164 194 205 238 286 238 c 128
 367 238 407 194 407 106 c 128
EndSplineSet
EndChar

StartChar: perthousand
Encoding: 8240 8240 324
Width: 2099
GlyphClass: 2
Flags: HW
LayerCount: 2
Fore
SplineSet
1108 1449 m 1
 1232 1449 l 1
 358 -62 l 1
 235 -62 l 1
 1108 1449 l 1
1722 55 m 0
 1839.89115936 55 1866 205.133390733 1866 358 c 128
 1866 501 1857 660 1722 660 c 128
 1587 660 1577 501 1577 358 c 128
 1577 214 1589 55 1722 55 c 0
1701.97494632 757.22189685 m 0
 1926.51162266 757.22189685 2007 603.845914747 2007 358 c 0
 2007 97 1912 -34 1722 -34 c 128
 1532 -34 1437 97 1437 358 c 1
 1438.07064227 575.34038092 1520.04367973 757.22189685 1701.97494632 757.22189685 c 0
521 989 m 128
 521 995.490055291 521.004601161 1001.99809499 521.004601161 1008.51274653 c 0
 521.004601161 1168.2683455 518.237677284 1332 377 1332 c 128
 254.863511624 1332 233 1201.40069458 233 1070 c 128
 233 1062.56686886 232.99307858 1055.11196092 232.99307858 1047.6521178 c 0
 232.99307858 888.449916041 236.14542509 727 377 727 c 128
 499.136488376 727 521 857.59930542 521 989 c 128
661 1029 m 0
 661.010024645 1026.96499705 661.015053152 1024.93725989 661.015053152 1022.91680473 c 0
 661.015053152 776.143617631 586.002046777 638 377 638 c 0
 187 638 92 769 92 1030 c 128
 92 1291 187 1421 377 1421 c 0
 566 1421 661 1290 661 1029 c 0
1232 358 m 128
 1232 502 1224 660 1088 660 c 128
 952 660 944 502 944 358 c 128
 944 214 952 55 1088 55 c 128
 1224 55 1232 214 1232 358 c 128
1067.92186834 757.638006786 m 0
 1292.36122885 757.638006786 1372 603.931353039 1372 358 c 0
 1372 97 1277 -34 1088 -34 c 0
 898 -34 803 97 803 358 c 1
 804.065928253 574.383435407 886.360337099 757.638006786 1067.92186834 757.638006786 c 0
EndSplineSet
EndChar

StartChar: guilsinglleft
Encoding: 8249 8249 325
Width: 679
GlyphClass: 2
Flags: HW
LayerCount: 2
Fore
SplineSet
546 980 m 1
 496.239492829 824.083744197 408.101841683 698.203683366 331 544 c 1
 460 275 527 131 533 114 c 1
 518 101 495 88 464 77 c 1
 133 481 l 1
 133 579 l 1
 472 1015 l 1
 503 1004 528 992 546 980 c 1
EndSplineSet
EndChar

StartChar: guilsinglright
Encoding: 8250 8250 326
Width: 680
GlyphClass: 2
Flags: HW
LayerCount: 2
Fore
SplineSet
135 114 m 1
 146.970718808 181.834073248 316.783254434 484.590243851 349 550 c 1
 218 822 151 965 148 979 c 1
 165 994 188 1006 216 1015 c 1
 549 609 l 1
 549 514 l 1
 210 77 l 1
 179 86 154 99 135 114 c 1
EndSplineSet
EndChar

StartChar: fraction
Encoding: 8260 8260 327
Width: 202
GlyphClass: 2
Flags: HW
LayerCount: 2
Fore
SplineSet
497 1529 m 2
 537 1529 562 1521 571 1505 c 1
 555 1477 538 1445 519 1409 c 2
 -234 -80 l 1
 -299 -80 l 2
 -336 -80 -360 -71 -369 -54 c 1
 -356 -28 -339 3 -316 40 c 1
 436 1529 l 1
 497 1529 l 2
EndSplineSet
EndChar

StartChar: foursuperior
Encoding: 8308 8308 328
Width: 1210
GlyphClass: 2
Flags: HW
LayerCount: 2
Fore
SplineSet
659 896 m 1
 659 1275 l 1
 657 1304 l 1
 382 916 l 1
 371 896 l 1
 659 896 l 1
587 657 m 2
 657.362985087 657 659.003927714 666.760923336 659.003927714 726.819185371 c 0
 659.003927714 729.757484311 659 732.816173536 659 736 c 2
 659 819 l 1
 279 819 l 1
 263 832 255 849 255 872 c 1
 258 881 278 912 315 964 c 128
 410.614396185 1099.33114537 568.196499153 1355.19649915 669 1456 c 1
 723 1456 l 2
 767 1456 779 1451 779 1410 c 2
 779 896 l 1
 949 896 l 1
 949 863 l 2
 949 823 938 819 901 819 c 2
 779 819 l 1
 779 737 l 2
 779 666.175235021 779.426856387 657 850 657 c 2
 904 657 l 1
 904 574 l 1
 848 582 789 586 726 586 c 128
 663 586 598 582 533 574 c 1
 533 657 l 1
 587 657 l 2
EndSplineSet
EndChar

StartChar: Euro
Encoding: 8364 8364 329
Width: 1420
GlyphClass: 2
Flags: HW
LayerCount: 2
Fore
SplineSet
904 1468 m 0
 1080.41497573 1468 1263.23185868 1437.18175588 1329 1336 c 1
 1329 1262 1330 1187 1331 1111 c 1
 1207 1093 l 1
 1141 1230 1058 1337 884 1337 c 0
 687 1337 569 1190 532 897 c 1
 1106 897 l 1
 1083 822 l 2
 1074 794 1044 779 991 778 c 0
 977 778 964 778 952 777 c 1
 522 777 l 1
 522 702 524 652 527 625 c 1
 1050 625 l 1
 1030 563 1034 505 953 505 c 2
 922 505 l 1
 812 506 l 1
 545 506 l 1
 590.294806415 267.284128354 701.475529948 102 945 102 c 0
 1067 102 1174 150 1266 246 c 1
 1360 201 l 1
 1279 42 1127 -37 904 -37 c 0
 563.682613426 -35.6109494426 348.645126898 172.58086298 296 506 c 1
 84 506 l 1
 101 576 l 2
 111 619 120 625 168 625 c 2
 282 625 l 1
 281 634 281 644 281 653 c 2
 281 682 l 2
 281 714 282 746 284 777 c 1
 108 777 l 1
 123 847 l 2
 132 885 142 897 182 897 c 2
 298 897 l 1
 351 1218 549 1468 904 1468 c 0
EndSplineSet
EndChar

StartChar: trademark
Encoding: 8482 8482 330
Width: 2116
GlyphClass: 2
Flags: HW
LayerCount: 2
Fore
SplineSet
913 566 m 1
 987 566 1023 579 1023 638 c 2
 1023 1261 l 1
 1001 1316 955 1345 885 1348 c 1
 885 1387 l 1
 1143 1387 l 1
 1470 729 l 1
 1804 1387 l 1
 2030 1387 l 1
 2030 1348 l 1
 1943 1348 1910 1324 1910 1249 c 2
 1910 638 l 2
 1910 569 1947 566 2018 566 c 1
 2018 527 l 1
 1656 527 l 1
 1656 566 l 1
 1728 566 1762 578 1762 638 c 2
 1762 1170 l 1
 1758 1170 l 1
 1433 527 l 1
 1408 527 l 1
 1092 1170 l 1
 1088 1170 l 1
 1088 638 l 2
 1088 576 1133 566 1199 566 c 1
 1199 527 l 1
 913 527 l 1
 913 566 l 1
243 566 m 1
 313 566 349 579 349 638 c 2
 349 1336 l 1
 213 1336 l 2
 137 1336 97 1291 94 1200 c 1
 55 1200 l 1
 55 1387 l 1
 792 1387 l 1
 792 1200 l 1
 754 1200 l 1
 751 1277 715 1336 635 1336 c 2
 498 1336 l 1
 498 638 l 2
 498 578 541 566 605 566 c 1
 605 527 l 1
 243 527 l 1
 243 566 l 1
EndSplineSet
EndChar

StartChar: Omega
Encoding: 8486 8486 331
Width: 1558
GlyphClass: 2
Flags: HW
LayerCount: 2
Fore
SplineSet
1267 140 m 2
 1381.5746658 140 1391.46212948 192.476638044 1427 296 c 1
 1480 294 l 1
 1427 0 l 1
 927 0 l 1
 912 40 l 1
 1013.20104136 221.398093009 1188 500.923103264 1188 750 c 128
 1188.01105527 752.354772356 1188.01659858 754.706794836 1188.01659858 757.055988222 c 0
 1188.01659858 1086.31601889 1079.12112953 1360 775 1360 c 0
 508.036814946 1360 368 1114.14454237 368 792 c 128
 368 429.089690129 474.751644529 316.611377637 640 40 c 1
 623 0 l 1
 128 0 l 1
 79 294 l 1
 129 296 l 1
 164.807577511 190.204884627 181.598307935 140 290 140 c 2
 514 140 l 1
 310.494907596 307.164897332 162 468.893349303 162 772 c 128
 162 1161.74822583 414.272577595 1423 783 1423 c 1
 1154.65641116 1420.94664966 1395.00731833 1164.97366084 1395.00731833 789.290809898 c 0
 1395.00731833 543.729484618 1214.82067177 304.082069647 1033 140 c 1
 1267 140 l 2
EndSplineSet
EndChar

StartChar: partialdiff
Encoding: 8706 8706 333
Width: 1071
GlyphClass: 2
Flags: HW
LayerCount: 2
Fore
SplineSet
562 794 m 0
 339.191182222 794 249 545.709461887 249 300 c 1
 250 159 321 34 455 34 c 0
 671.506293523 34 767.944255895 408.253756372 802 642 c 1
 764.755203187 720.342503642 684.657234166 794 562 794 c 0
70 383 m 0
 70 645.80257884 249.905734132 875 529 875 c 0
 649 875 760 814 818 727 c 1
 829 850 835 932 835 973 c 0
 835 1207.19825996 738.637612989 1466 504 1466 c 0
 411 1466 314 1426 212 1345 c 1
 183 1346 147 1395 146 1448 c 129
 146 1537.07545864 383.037636287 1559 447 1559 c 0
 791.751593285 1559 985 1189.70672495 985 798 c 1
 986.119243844 415.218605293 843.405302008 -30 460 -30 c 128
 207 -30 70 137 70 383 c 0
EndSplineSet
EndChar

StartChar: Delta
Encoding: 8710 8710 334
Width: 1311
GlyphClass: 2
Flags: HW
LayerCount: 2
Fore
SplineSet
597 1170 m 1
 174 96 l 1
 1025 96 l 1
 597 1170 l 1
63 0 m 1
 63 51 l 1
 607 1400 l 1
 690 1421 l 1
 1248 51 l 1
 1248 0 l 1
 63 0 l 1
EndSplineSet
EndChar

StartChar: product
Encoding: 8719 8719 335
Width: 1481
GlyphClass: 2
Flags: HW
LayerCount: 2
Fore
SplineSet
451 40 m 2
 451 -93.7983094451 463.587091092 -108.428128502 609 -122 c 1
 609 -174 l 1
 84 -174 l 1
 84 -122 l 1
 242 -109 270 -101 270 40 c 2
 270 1212 l 2
 270 1347.5224581 235.341355141 1344.62584472 78 1355 c 1
 78 1408 l 1
 1403 1408 l 1
 1403 1355 l 1
 1246.76821746 1342.71210699 1212 1345.23801142 1212 1212 c 2
 1212 42 l 2
 1212 -101 1243 -110 1399 -122 c 1
 1399 -174 l 1
 859 -174 l 1
 859 -122 l 1
 1016 -109 1036 -102 1036 40 c 2
 1036 1272 l 2
 1036 1333 1021 1340 961 1340 c 2
 518 1340 l 2
 461 1340 451 1334 451 1281 c 2
 451 40 l 2
EndSplineSet
EndChar

StartChar: summation
Encoding: 8721 8721 336
Width: 1224
GlyphClass: 2
Flags: HW
LayerCount: 2
Fore
SplineSet
789 -28 m 2
 1005.35726933 -28 1021.05202959 59.5055352437 1081 223 c 1
 1138 207 l 1
 1047 -180 l 1
 80 -180 l 1
 80 -132 l 1
 551 572 l 1
 94 1357 l 1
 94 1408 l 1
 1047 1408 l 1
 1050 1359 l 2
 1055 1272 1065 1141 1072 1074 c 1
 1016 1061 l 1
 972.60404122 1284.92314731 954.166911393 1343 729 1343 c 2
 319 1343 l 1
 707 685 l 1
 240 -28 l 1
 789 -28 l 2
EndSplineSet
EndChar

StartChar: minus
Encoding: 8722 8722 337
Width: 1308
GlyphClass: 2
Flags: HW
LayerCount: 2
Fore
SplineSet
158 558 m 2
 158 625 173 635 237 635 c 2
 1150 635 l 1
 1150 567 l 2
 1150 526 1134 500 1103 490 c 1
 158 490 l 1
 158 558 l 2
EndSplineSet
EndChar

StartChar: uni2215
Encoding: 8725 8725 338
Width: 1078
GlyphClass: 2
Flags: HW
LayerCount: 2
Fore
SplineSet
955 1478 m 1
 1078 1478 l 1
 124 -91 l 1
 0 -91 l 1
 955 1478 l 1
EndSplineSet
EndChar

StartChar: uni2219
Encoding: 8729 8729 339
Width: 627
GlyphClass: 2
Flags: HW
LayerCount: 2
Fore
SplineSet
314 722 m 128
 381 722 435 668 435 610 c 128
 435 521.685383021 371.965101665 477.93792043 310.37055866 477.93792043 c 0
 251.528018117 477.93792043 194 517.863499545 194 597 c 128
 194 669 240 722 314 722 c 128
EndSplineSet
EndChar

StartChar: radical
Encoding: 8730 8730 340
Width: 1071
GlyphClass: 2
Flags: HW
LayerCount: 2
Fore
SplineSet
770 -298 m 1
 727 -321 l 1
 270 800 l 1
 89 710 l 1
 66 779 l 1
 392 932 l 1
 745 32 l 1
 749 32 l 1
 1036 1821 l 1
 1117 1802 l 1
 770 -298 l 1
EndSplineSet
EndChar

StartChar: infinity
Encoding: 8734 8734 341
Width: 1511
GlyphClass: 2
Flags: HW
LayerCount: 2
Fore
SplineSet
1118 360 m 128
 1241.00839772 360 1324 450.086366654 1324 557 c 128
 1324 700 1262 792 1123 792 c 128
 981.632064759 792 894.882095843 654.334564754 824 578 c 1
 918.727258424 468.171294581 992.352375557 360 1118 360 c 128
190 570 m 0
 190 453 280 360 395 360 c 0
 532.48853061 360 593.189623118 450.930997849 672 541 c 2
 696 568 l 1
 621 663 534 792 385 792 c 0
 264 792 190 695 190 570 c 0
397 900 m 0
 539.712928516 900 673.275760151 774.895395377 766 665 c 1
 786 687 l 2
 889.592313241 802.288219575 976.827682688 900 1139 900 c 0
 1318 900 1439 762 1439 578 c 0
 1439 387 1304 249 1126 249 c 1
 983.910283519 250.578774628 850.269612076 376.676465508 760 485 c 1
 647.333400174 355.517489753 574.692252526 249 381 249 c 128
 198.407786975 249 72 388.951611869 72 572 c 128
 72 768 212 900 397 900 c 0
EndSplineSet
EndChar

StartChar: integral
Encoding: 8747 8747 342
Width: 824
GlyphClass: 2
Flags: HW
LayerCount: 2
Fore
SplineSet
777.745437916 1614.81984596 m 0
 777.745437916 1579.07438153 729.238934731 1535 686 1535 c 128
 613.530914592 1535 626.824342005 1632 571 1632 c 0
 513 1632 484 1538 484 1350 c 0
 484 1019.55195924 528 665.273366429 528 337 c 0
 528 -158 425 -406 218 -406 c 0
 131.832972172 -406 41 -369.929284009 41 -309 c 0
 41 -252.933729654 92.532273143 -213 134 -213 c 128
 209.447888891 -213 191.181078913 -315 248 -315 c 128
 329 -315 333 -136 333 -47 c 128
 333 293 287 731 287 1056 c 128
 287 1353.13236049 330.732648296 1719 616 1719 c 0
 616.649173019 1719.01064218 617.302816992 1719.01594245 617.96076356 1719.01594245 c 0
 679.209936932 1719.01594245 777.745437916 1673.08378755 777.745437916 1614.81984596 c 0
EndSplineSet
EndChar

StartChar: approxequal
Encoding: 8776 8776 343
Width: 1189
GlyphClass: 2
Flags: HW
LayerCount: 2
Fore
SplineSet
806 266 m 0
 700.989538898 266 515.996278834 402.815865317 396.070002931 402.815865317 c 0
 315.604810261 402.815865317 247.560983831 358.564135732 189 266 c 1
 113 331 l 1
 166.02484976 437.04969952 257.151655869 527 396 527 c 128
 577.903994722 527 639.598329358 379 802 379 c 128
 912.151994352 379 948.043794802 445.788547965 999 527 c 1
 1074 460 l 1
 1001 331 912 266 806 266 c 0
397 881 m 128
 582.542988524 881 640.258888248 732 817 732 c 0
 880 732 941 782 999 881 c 1
 1074 812 l 1
 1001 682 912 617 806 617 c 0
 647.413454747 617 552.605485949 767 398 767 c 128
 280.459826761 767 246.580370862 703.983475653 189 621 c 1
 113 685 l 1
 166.442574215 793.046943521 257.093428087 881 397 881 c 128
EndSplineSet
EndChar

StartChar: notequal
Encoding: 8800 8800 344
Width: 1252
GlyphClass: 2
Flags: HW
LayerCount: 2
Fore
SplineSet
133 743 m 1
 134 809 166 816 227 816 c 2
 655 816 l 1
 751 1040 l 1
 819 1040 l 2
 862 1040 888 1031 898 1014 c 1
 887 983 877 954 864 924 c 2
 818 816 l 1
 1119 816 l 1
 1119 752 l 2
 1119 713 1104 688 1074 677 c 1
 758 677 l 1
 652 428 l 1
 1119 428 l 1
 1119 365 l 2
 1119 324 1104 299 1074 290 c 1
 593 290 l 1
 496 61 l 1
 427 61 l 2
 386 61 360 71 349 90 c 1
 360 120 370 148 383 177 c 2
 431 290 l 1
 133 290 l 1
 133 354 l 2
 132.969669914 355.971455583 132.954058454 357.891395976 132.954058454 359.761132529 c 0
 132.954058454 419.537662319 148.910795411 428 210 428 c 2
 490 428 l 1
 596 677 l 1
 133 677 l 1
 133 743 l 1
EndSplineSet
EndChar

StartChar: lessequal
Encoding: 8804 8804 345
Width: 1198
GlyphClass: 2
Flags: HW
LayerCount: 2
Fore
SplineSet
133 2 m 1
 133 122 l 1
 1065 122 l 1
 1065 2 l 1
 133 2 l 1
145 652 m 1
 145 774 l 1
 1058 1224 l 1
 1058 1088 l 1
 265 716 l 1
 265 712 l 1
 1058 336 l 1
 1058 201 l 1
 145 652 l 1
EndSplineSet
EndChar

StartChar: greaterequal
Encoding: 8805 8805 346
Width: 1191
GlyphClass: 2
Flags: HW
LayerCount: 2
Fore
SplineSet
133 2 m 1
 143 122 l 1
 1058 122 l 1
 1058 2 l 1
 133 2 l 1
1058 774 m 1
 1058 652 l 1
 145 201 l 1
 145 336 l 1
 935 710 l 1
 935 714 l 1
 143 1088 l 1
 143 1224 l 1
 1058 774 l 1
EndSplineSet
EndChar

StartChar: lozenge
Encoding: 9674 9674 347
Width: 1087
GlyphClass: 2
Flags: HW
LayerCount: 2
Fore
SplineSet
550 1379 m 1
 541 1379 l 1
 192 678 l 1
 544 -24 l 1
 548 -24 l 1
 895 676 l 1
 550 1379 l 1
612 -144 m 1
 476 -144 l 1
 61 676 l 1
 478 1504 l 1
 612 1504 l 1
 1026 676 l 1
 612 -144 l 1
EndSplineSet
EndChar

StartChar: fi
Encoding: 64257 64257 348
Width: 1433
GlyphClass: 2
Flags: HW
LayerCount: 2
Fore
SplineSet
1121 1547 m 128
 1209 1547 1258 1489 1258 1394 c 128
 1258 1328 1197 1269 1121 1269 c 128
 1028 1269 984 1328 984 1424 c 128
 984 1493 1049 1547 1121 1547 c 128
281 1124 m 2
 281 1425 426 1564 725 1564 c 128
 800 1564 868 1547 929 1512 c 1
 929 1288 l 1
 832 1288 l 1
 801 1397 748 1452 673 1452 c 0
 520 1452 496 1343 495 1170 c 1
 495 1032 l 1
 826 1032 l 2
 933 1032 1080 1052 1155 1052 c 128
 1191 1052 1216 1045 1229 1032 c 1
 1229 269 l 2
 1229 206 1235 150 1246 101 c 1
 1390 101 l 1
 1400 11 l 1
 1336 -5 1248 -13 1135 -13 c 0
 1051 -13 1009 16 1009 73 c 1
 1016 281 l 1
 1016 831 l 2
 1016 865 1014 892 1009 912 c 1
 495 912 l 1
 495 238 l 2
 495 105.661172154 517.754583859 87.709449937 657 71 c 1
 665 -13 l 1
 563.5 -5.5 468.5 -1.75 380 -1.75 c 0
 291.5 -1.75 209.5 -5.5 134 -13 c 1
 134 71 l 1
 257 84 281 90 281 200 c 2
 281 912 l 1
 55 912 l 1
 55 987 l 1
 71 1017 107 1032 162 1032 c 2
 281 1032 l 1
 281 1124 l 2
EndSplineSet
EndChar

StartChar: fl
Encoding: 64258 64258 349
Width: 1421
GlyphClass: 2
Flags: HW
LayerCount: 2
Fore
SplineSet
281 1124 m 2
 281 1416 422 1564 709 1564 c 0
 970 1564 1139 1547 1216 1513 c 1
 1216 269 l 2
 1216 206 1222 150 1233 101 c 1
 1397 101 l 1
 1397 11 l 1
 1330 -5 1239 -13 1124 -13 c 0
 1040 -13 998 16 998 73 c 1
 1005 281 l 1
 1005 1339 l 2
 1005 1379 1002 1411 997 1436 c 1
 906 1447 798 1452 673 1452 c 0
 520 1452 496 1343 495 1170 c 1
 495 1032 l 1
 779 1032 l 1
 779 980 l 2
 779 943 763 920 731 912 c 1
 495 912 l 1
 495 238 l 2
 495 105.661172154 517.754583859 87.709449937 657 71 c 1
 665 -13 l 1
 563 -5.5 468 -1.75 379.875 -1.75 c 0
 291.75 -1.75 210.5 -5.5 136 -13 c 1
 136 71 l 1
 260 84 281 90 281 200 c 2
 281 912 l 1
 55 912 l 1
 55 987 l 1
 71 1017 107 1032 162 1032 c 2
 281 1032 l 1
 281 1124 l 2
EndSplineSet
EndChar

